<svg version="1.1" id="Layer_1" xmlns="http://www.w3.org/2000/svg" xmlns:xlink="http://www.w3.org/1999/xlink" x="0px" y="0px"
	 width="100%" viewBox="0 0 541 540" enable-background="new 0 0 541 540" xml:space="preserve">
<path fill="#000000" opacity="1.000000" stroke="none" 
	d="
M270.232727,540.704224 
	C181.684555,541.000000 93.369072,540.977539 5.053766,541.087646 
	C1.748503,541.091736 0.896667,540.589294 0.898961,537.055237 
	C1.014036,359.757874 1.017306,182.460419 0.885365,5.163079 
	C0.882502,1.316572 1.969920,0.921884 5.335322,0.923526 
	C182.799347,1.010121 360.263428,1.012742 537.727417,0.908426 
	C541.269287,0.906344 542.104004,1.555920 542.101624,5.225811 
	C541.985352,182.356522 541.982605,359.487305 542.110413,536.618042 
	C542.113281,540.628296 540.916199,541.085144 537.383545,541.080994 
	C449.568237,540.977722 361.752777,541.000000 273.468658,541.000000 
	C271.629517,539.254456 273.048492,538.088135 274.124268,536.500122 
	C280.482117,531.808777 287.224945,528.489746 293.737305,524.789307 
	C337.908752,499.690186 382.044617,474.528503 426.249786,449.488373 
	C445.089203,438.816742 463.832550,427.966522 482.728088,417.390961 
	C487.317505,414.822327 489.380157,411.573792 489.128937,406.164764 
	C488.742767,397.850769 488.994843,389.503662 489.052185,380.774994 
	C489.285187,379.033051 489.203796,377.697723 488.869293,375.939880 
	C488.907288,371.363678 488.975037,367.217529 488.786377,362.621643 
	C488.880280,360.703613 489.144409,359.239410 488.825195,357.313416 
	C488.923920,352.644653 488.954712,348.424408 488.797241,343.755219 
	C488.856110,341.866180 489.193909,340.435577 488.886017,338.555481 
	C488.948608,335.043976 488.824402,331.953125 489.146790,328.484070 
	C489.817169,324.357208 486.900940,322.809387 484.568390,321.156281 
	C477.965912,316.476959 470.987518,312.361359 464.171387,308.001465 
	C461.270447,306.145905 458.085449,304.568512 456.335297,300.811646 
	C455.762512,297.933380 455.865051,295.435974 455.864532,292.947876 
	C455.857239,258.558533 455.831116,224.169189 455.878601,189.352325 
	C457.018890,184.732407 455.222961,182.095093 451.670807,179.920731 
	C437.767242,171.409973 423.399933,163.678131 409.519073,155.160416 
	C393.923889,145.590744 377.674835,137.123154 362.436523,126.976700 
	C358.541779,124.383408 354.295959,122.454933 350.293365,120.078278 
	C347.704193,118.540901 345.097015,117.004631 344.150757,113.390793 
	C343.901581,108.418419 343.644226,103.837196 344.240936,98.839401 
	C344.215546,96.719582 343.769257,95.028755 344.270691,92.918335 
	C344.362061,91.406075 344.070312,90.307396 344.363129,88.808205 
	C344.442841,87.867943 344.470184,87.330818 344.491150,86.393936 
	C344.497498,85.729965 344.498718,85.465179 344.500580,84.804749 
	C344.624573,82.064980 344.315491,79.729446 344.457092,77.026337 
	C345.133362,72.861832 349.566467,72.802513 351.070587,69.592896 
	C349.170929,64.872467 345.712952,61.746155 342.400452,58.540806 
	C339.666351,55.895134 336.944977,53.246471 334.135284,50.190170 
	C329.973816,45.947083 325.778931,42.228596 321.860535,37.706825 
	C320.765656,35.001492 320.911865,32.570206 321.273254,29.737095 
	C322.679932,26.118040 323.275879,22.907560 320.965637,19.411549 
	C320.066223,17.372324 319.996796,15.577463 319.937958,13.431652 
	C319.875153,12.097443 320.184113,11.051502 319.201935,10.007878 
	C313.229767,10.957147 311.025604,13.214211 310.998047,18.573215 
	C310.974213,23.205853 310.430603,27.842510 311.203735,32.485519 
	C311.653503,35.186737 310.756714,37.717896 307.898529,38.398647 
	C304.702423,39.159889 303.387421,36.444016 302.813751,34.090317 
	C302.009644,30.791346 300.198395,28.061605 298.886078,25.057177 
	C297.480591,21.839439 295.489685,22.293066 293.345490,23.601828 
	C291.148926,24.942553 287.480927,25.598751 289.292267,29.640751 
	C290.526611,32.395180 291.765625,35.101639 290.806763,38.557541 
	C290.467560,39.058861 290.295013,39.234386 289.783997,39.563274 
	C288.698273,39.877163 287.972900,39.780888 286.935547,39.372314 
	C285.281311,38.267796 283.856964,37.458889 282.330139,36.201721 
	C279.328918,34.574120 279.049438,31.206003 276.508392,29.259178 
	C271.581207,25.896761 268.731567,30.102650 264.975159,31.898224 
	C262.944031,32.636150 261.629913,33.917786 259.783142,34.953236 
	C256.706970,36.443459 254.090607,38.056614 251.266205,39.967659 
	C250.207687,40.540413 249.460403,40.993710 248.448517,41.636948 
	C247.998306,41.939034 247.809357,42.045265 247.320786,42.270828 
	C245.654572,42.950378 244.251572,43.448257 243.004547,44.836189 
	C242.085449,45.624500 241.451813,46.243805 240.534943,47.059574 
	C236.267014,49.505051 232.619812,52.332088 228.129974,54.398315 
	C223.840515,56.700481 220.072296,59.207607 215.992249,61.852184 
	C213.625778,63.355473 211.599960,64.763290 209.212479,66.229210 
	C206.828354,67.200050 205.004883,68.419281 203.169708,70.224457 
	C202.761520,70.615295 202.582520,70.755692 202.103455,71.059074 
	C197.972580,72.132843 195.002106,74.562126 191.650940,77.017387 
	C187.302780,79.543976 183.475952,82.288277 178.837158,84.292274 
	C175.143173,84.680817 173.329147,87.835464 170.057831,89.007797 
	C167.615280,90.979637 165.534332,92.863373 162.683807,94.266632 
	C155.412216,97.293839 149.736877,102.226151 143.472046,106.211281 
	C139.427307,108.784203 135.115250,110.913254 130.941711,113.950005 
	C127.815247,115.974289 125.138733,118.070473 121.582718,119.322998 
	C117.324219,119.793831 113.711380,121.583481 109.583374,121.301239 
	C107.011101,121.125359 105.435402,123.831436 103.660500,125.548065 
	C102.342407,126.822891 100.934372,127.991982 99.406410,129.532715 
	C96.871880,132.237900 93.628807,133.768997 91.913185,137.287476 
	C91.032516,138.238129 90.147949,138.581985 89.073509,139.266693 
	C86.029907,141.104614 83.444016,143.021103 80.342590,144.747711 
	C79.721321,145.229065 79.373421,145.510330 78.751755,145.976105 
	C77.177872,146.544312 76.320190,147.537933 75.117828,148.601746 
	C74.521667,149.046555 74.166374,149.276184 73.536766,149.659454 
	C73.092422,149.933990 72.910629,150.036560 72.444550,150.264206 
	C71.360580,150.682373 70.725868,151.180115 70.062927,152.155563 
	C69.683235,152.550018 69.517113,152.696686 69.068779,153.024506 
	C63.917870,155.578415 58.873875,157.638214 54.368217,161.363815 
	C52.284203,162.804871 52.804356,164.541321 53.085964,166.650024 
	C53.204628,247.760254 53.127514,328.439301 53.155693,409.550934 
	C51.945004,414.079376 53.912529,415.953278 58.088394,416.639862 
	C76.086372,426.065033 93.354881,436.057556 110.732567,445.852814 
	C131.736649,457.692169 152.767654,469.483856 173.764862,481.334686 
	C186.646423,488.605042 199.439285,496.072296 212.449829,503.070770 
	C227.381836,511.102814 241.795853,520.058105 257.252563,527.834412 
	C258.105103,528.361206 258.622925,528.768127 259.419922,529.312195 
	C259.846710,529.590149 260.019196,529.695374 260.440308,529.966125 
	C260.851746,530.243347 261.014557,530.355103 261.660797,530.804077 
	C262.608582,531.516785 263.129272,531.803650 263.924011,532.241272 
	C265.675140,533.324219 267.220367,534.148254 268.899841,535.417908 
	C270.284454,537.051758 271.236420,538.494629 270.232727,540.704224 
z"/>
<path fill="#C0D0D4" opacity="1.000000" stroke="none" 
	d="
M275.080383,536.692627 
	C275.711212,539.386963 272.780212,538.958618 272.683685,540.720520 
	C272.250000,541.000000 271.500000,541.000000 270.375000,541.000000 
	C271.029236,539.232483 268.207520,538.581848 268.684784,536.635254 
	C269.207428,534.513123 270.725433,534.793762 272.501526,534.947815 
	C273.776459,535.218994 274.726685,535.368103 275.080383,536.692627 
z"/>
<path fill="#62BE8C" opacity="1.000000" stroke="none" 
	d="
M345.578857,114.057770 
	C347.244446,116.899025 350.100464,117.654213 352.380249,119.005791 
	C368.286591,128.435883 384.548309,137.292068 400.189606,147.136963 
	C417.784302,158.211380 436.263000,167.754517 453.799377,178.905655 
	C456.521515,180.636642 458.504578,182.458618 457.891113,186.349472 
	C456.267731,187.640411 455.004028,188.872330 453.913788,190.413849 
	C416.807220,242.879547 379.569427,295.252319 342.364960,347.648529 
	C333.308868,360.402435 324.847290,373.593597 314.783783,386.030518 
	C314.520813,386.509247 314.431763,386.707977 314.205261,387.199524 
	C313.876953,387.890045 313.686859,388.288086 313.336212,388.995056 
	C310.595581,392.236450 307.882935,391.207520 305.121643,389.603302 
	C279.975342,374.994354 255.127701,359.877747 229.826050,345.529297 
	C220.725555,340.368408 211.958588,334.613892 202.771393,329.580109 
	C201.028091,328.624908 199.283371,327.621796 197.826019,325.691956 
	C196.932144,322.752533 198.554901,320.924561 199.883469,319.049591 
	C239.713943,262.838287 279.105164,206.318054 318.812042,150.020126 
	C326.388519,139.277954 333.664185,128.323242 341.500336,117.764435 
	C342.574799,116.316605 343.321594,114.538673 345.578857,114.057770 
z"/>
<path fill="#62BE8C" opacity="1.000000" stroke="none" 
	d="
M273.313232,536.486023 
	C271.767303,536.706116 270.677216,535.441101 268.872742,536.237793 
	C266.591583,535.907593 264.778625,535.175415 263.122589,533.494141 
	C262.611633,532.596680 261.988190,532.511230 261.140259,532.192505 
	C260.872620,532.042725 260.976410,532.011719 260.990845,532.063904 
	C260.802734,531.831238 260.576447,531.566895 260.118439,531.162842 
	C259.914276,530.999207 260.005798,530.996887 260.007324,531.042603 
	C259.599701,530.570862 258.984161,530.510681 258.155823,530.198364 
	C246.868591,523.909363 235.227814,518.933533 224.819214,511.589783 
	C220.681396,508.670380 215.269836,507.309021 210.989243,504.688751 
	C204.445236,500.682983 197.809647,496.783508 191.074783,493.193176 
	C177.571289,485.994537 164.558929,477.945068 150.993118,470.845825 
	C136.708084,463.370178 122.955811,454.881134 108.909302,446.943665 
	C97.406532,440.443573 85.649544,434.375916 74.332710,427.571930 
	C69.018173,424.376709 63.612221,421.434174 57.961548,418.281982 
	C56.352512,415.438721 52.302681,416.107239 51.332512,412.487183 
	C51.107910,411.017517 51.005138,409.855225 51.005123,408.692963 
	C51.003979,327.762543 51.011047,246.832108 51.079494,165.434631 
	C51.475811,164.271271 51.868599,163.621826 52.913261,163.071213 
	C59.887730,163.800293 64.864288,167.625381 69.732483,172.290680 
	C75.931282,187.924728 79.386940,204.516754 92.491776,216.179993 
	C99.358376,222.291245 107.044128,224.343262 115.955162,222.075836 
	C118.883179,221.330765 121.914322,219.419250 125.003029,222.612808 
	C125.854134,231.590149 125.411583,240.200516 125.459267,248.803802 
	C125.480530,252.639236 125.679680,256.408386 126.884644,260.560913 
	C127.319481,271.327606 127.309364,281.634308 127.089294,291.927368 
	C126.609886,314.349915 128.042847,336.733887 128.137772,359.141815 
	C128.147614,361.466888 128.204407,363.794525 127.983490,366.535767 
	C128.713333,369.701660 131.077011,370.767151 133.222382,372.001190 
	C159.916809,387.356384 186.705872,402.545227 213.481064,417.758514 
	C232.435440,428.528107 251.586823,438.957275 270.340546,450.081024 
	C271.923523,451.019958 273.512085,451.942963 274.475189,454.133972 
	C275.269928,456.474762 275.119690,458.488922 275.123383,460.476349 
	C275.165558,483.121490 275.157166,505.766693 275.131958,528.411865 
	C275.128998,531.059143 275.369507,533.778076 273.313232,536.486023 
z"/>
<path fill="#262525" opacity="1.000000" stroke="none" 
	d="
M127.230301,369.359192 
	C125.129417,368.077057 125.759239,366.255402 125.742699,364.689270 
	C125.381432,330.466400 125.061333,296.243103 124.731583,261.557434 
	C124.216026,249.860275 124.654182,238.619003 124.488762,227.382126 
	C124.459755,225.410919 124.786369,223.412582 124.087814,221.054199 
	C124.064896,218.603546 125.517090,217.864944 127.116302,217.197815 
	C136.036621,213.476562 144.342285,208.677597 152.075928,202.884094 
	C153.414658,201.881226 154.838989,200.995590 156.402374,200.422165 
	C173.079468,194.305145 187.960571,184.806763 202.979904,175.597610 
	C215.754028,167.765121 229.365417,161.394455 242.060104,153.492813 
	C257.764404,143.717819 275.287109,137.298935 290.666077,127.179451 
	C306.403748,116.823906 324.178070,110.111214 339.334686,98.851891 
	C341.036682,97.587524 342.967468,96.346535 345.609283,97.741989 
	C345.915405,103.065689 345.932098,108.153343 345.930511,113.722275 
	C336.744507,127.395782 327.634674,140.628693 318.399078,153.773224 
	C278.407654,210.690506 238.379456,267.581970 198.193008,324.774750 
	C197.804245,327.613495 195.751968,328.603485 193.945816,329.712677 
	C173.883347,342.033386 153.938721,354.543762 133.922653,366.938995 
	C131.980606,368.141602 130.108063,369.669769 127.230301,369.359192 
z"/>
<path fill="#252525" opacity="1.000000" stroke="none" 
	d="
M273.248108,536.987549 
	C273.083679,509.358887 273.098969,481.808746 273.157166,453.815063 
	C273.873444,450.515259 276.531647,449.811859 278.596283,448.581085 
	C308.754578,430.602478 339.084869,412.912018 369.207397,394.875458 
	C405.614014,373.076080 442.339478,351.815674 478.662720,329.877563 
	C480.800903,328.586182 482.939514,327.283630 485.256989,326.343201 
	C486.919525,325.668488 488.633423,324.715607 490.644897,326.409332 
	C490.909424,330.182098 490.939331,333.672668 490.950409,337.634338 
	C490.082855,339.443939 490.644379,340.910797 490.718048,342.577118 
	C490.915405,347.277588 490.942993,351.718750 490.951477,356.632141 
	C490.083710,358.427673 490.642914,359.880402 490.705841,361.537048 
	C490.904663,366.244995 490.946899,370.689056 490.971222,375.603760 
	C490.088135,377.340942 490.643311,378.752716 490.678375,380.415344 
	C490.875824,390.550568 490.850983,400.369568 491.045715,410.184174 
	C491.111267,413.488434 489.545441,415.498871 486.938782,417.009308 
	C476.324402,423.159790 465.722504,429.332306 455.073761,435.422852 
	C436.512695,446.038849 417.946655,456.646576 399.333008,467.169891 
	C384.513367,475.548187 369.583008,483.730682 354.767120,492.115570 
	C330.376221,505.919434 306.054840,519.846313 281.646423,533.619080 
	C279.668152,534.735352 278.368958,537.098145 275.331421,536.998840 
	C274.450256,537.036926 273.939056,537.051453 273.248108,536.987549 
z"/>
<path fill="#38BBC5" opacity="1.000000" stroke="none" 
	d="
M490.851715,326.322388 
	C488.799316,325.286072 487.435425,327.081329 485.996490,327.932220 
	C436.921478,356.951721 387.886475,386.038879 338.812622,415.060333 
	C317.215424,427.832611 295.546753,440.484039 273.555298,453.280945 
	C260.706970,447.467834 249.071548,440.011169 237.030228,433.293396 
	C213.228302,420.014496 189.605194,406.415100 165.907181,392.949890 
	C153.625015,385.971161 141.342346,378.993317 129.054306,372.024933 
	C128.157898,371.516602 127.401443,370.915680 126.977936,369.572235 
	C150.394257,354.622406 173.907745,339.995911 197.721298,325.218018 
	C209.840988,330.745880 220.737961,338.031219 232.047348,344.599365 
	C255.136948,358.009094 278.254852,371.370117 301.344360,384.780060 
	C303.203156,385.859558 305.032104,387.039032 306.697357,388.390808 
	C308.675751,389.996765 310.525848,390.180908 312.760132,388.341553 
	C312.870422,387.907928 312.744446,387.715179 312.840210,387.257629 
	C313.061920,386.992798 312.993256,386.993866 312.994659,387.028198 
	C315.208557,384.785980 317.665710,382.840118 320.420502,381.235535 
	C364.702240,355.442566 408.603821,329.004974 452.837738,303.130829 
	C454.267914,302.294250 455.656555,301.312500 457.802490,301.682312 
	C468.166473,308.664062 478.855652,314.487640 488.634888,321.735046 
	C490.367249,323.018890 491.281006,323.913116 490.851715,326.322388 
z"/>
<path fill="#262626" opacity="1.000000" stroke="none" 
	d="
M458.112488,301.352997 
	C441.350342,311.865814 424.593140,321.987549 407.749268,331.963043 
	C377.029358,350.156494 346.258575,368.264069 315.504486,386.399750 
	C314.937073,386.734314 314.313660,386.973907 313.356232,387.160156 
	C314.389496,382.298248 318.039917,378.953888 320.777191,375.084503 
	C351.218323,332.052948 381.823059,289.137207 412.338806,246.158386 
	C426.293671,226.504105 440.131744,206.766815 454.156464,187.162796 
	C454.489990,186.696564 455.173950,181.118500 457.633789,186.582336 
	C457.927338,220.801590 457.961182,254.867294 458.002319,288.932983 
	C458.007111,292.920685 458.052002,296.908295 458.112488,301.352997 
z"/>
<path fill="#272827" opacity="1.000000" stroke="none" 
	d="
M323.011108,28.603252 
	C323.017822,31.674850 323.019623,34.322350 323.024506,37.409233 
	C324.369110,43.987743 329.718719,47.067234 333.669189,51.634285 
	C339.034424,55.656498 343.324646,60.331371 347.816162,64.783241 
	C349.243805,66.198273 350.636017,67.598778 352.711426,68.736145 
	C353.778412,73.924736 348.805817,73.246422 346.388367,75.431770 
	C344.536987,78.059334 342.099518,79.064903 338.882019,79.390877 
	C337.685272,79.259422 336.951294,78.986801 335.964783,78.350296 
	C334.562195,76.597435 333.389984,75.141327 331.373810,74.065216 
	C327.713715,70.331520 324.819519,66.329277 320.371307,62.942116 
	C319.676849,66.183655 321.129547,68.524872 322.185608,71.277817 
	C323.113495,73.817009 324.298035,75.860222 325.359863,78.363770 
	C326.819580,80.723061 327.557465,82.887108 327.024506,85.710609 
	C323.926361,89.529617 320.303925,91.958473 315.466919,93.059174 
	C314.011688,92.794983 313.209930,92.163918 312.304932,91.058502 
	C311.538483,89.219826 310.774048,87.770882 310.049194,85.946854 
	C309.288666,84.292381 308.798798,82.879234 307.914917,81.293701 
	C307.496490,80.189217 307.098969,79.444946 306.255432,78.574936 
	C305.945740,78.097275 305.839783,77.891891 305.636963,77.349838 
	C300.431946,64.491333 295.307648,51.976147 290.008301,39.151215 
	C289.234924,35.657211 289.565643,32.236496 286.695374,29.746778 
	C285.506989,28.715921 285.898895,26.932981 286.975769,25.647522 
	C289.422607,22.726730 292.815674,21.340036 296.282074,20.175087 
	C297.630737,19.721849 299.684570,20.362297 299.705261,21.451744 
	C299.783356,25.560333 304.604675,27.541931 304.016876,31.796059 
	C303.950287,32.278057 303.886322,32.972435 304.152893,33.252075 
	C305.365692,34.524300 305.260742,37.733444 307.635956,36.987812 
	C309.731110,36.330116 310.260468,34.300964 309.221741,31.649635 
	C305.375000,21.831060 309.567566,10.525414 317.993805,7.062137 
	C318.966827,6.662216 320.091064,5.597124 320.937469,7.674305 
	C321.882812,8.993144 321.318268,10.235134 321.744263,11.638692 
	C321.965393,14.018717 321.991394,16.107599 322.016052,18.644394 
	C323.898926,21.951725 322.614502,25.156874 323.011108,28.603252 
z"/>
<path fill="#302C2B" opacity="1.000000" stroke="none" 
	d="
M345.929901,97.549286 
	C340.827118,98.718102 337.616516,102.650459 333.628510,105.218864 
	C325.676544,110.340149 316.674133,113.541420 308.785217,118.682289 
	C285.770508,133.679932 260.426880,144.428635 236.895889,158.511551 
	C221.524780,167.710892 205.473160,175.808014 190.346649,185.432861 
	C179.376877,192.412827 167.328033,197.073029 155.909897,203.003830 
	C149.255905,206.460052 142.866241,210.965805 136.386993,215.042694 
	C133.171509,217.065918 129.957687,219.289429 125.439331,219.006378 
	C124.021431,218.302444 123.797256,217.282913 124.002563,215.755127 
	C129.910019,211.284851 136.368942,208.261124 142.156586,204.117065 
	C149.270401,199.023468 156.305481,193.298187 164.782043,191.022705 
	C180.119110,186.905518 191.827347,176.580811 205.223694,169.155869 
	C216.946320,162.658554 228.553955,155.928223 240.217987,149.351822 
	C250.527649,143.539001 261.587555,138.879990 271.038147,131.513931 
	C274.194550,129.053741 278.155670,127.944824 281.870728,126.669838 
	C286.498718,125.081535 290.730530,122.990005 294.795898,119.715286 
	C295.238220,119.301598 295.432007,119.156166 295.947083,118.847656 
	C298.757080,117.891792 300.829895,116.461594 302.812805,114.278381 
	C303.369873,113.662041 303.733398,113.355728 304.437378,112.908234 
	C309.816681,109.324341 315.754547,107.615608 321.192383,104.173279 
	C326.280212,100.521637 331.397186,97.570267 336.324463,94.321564 
	C338.960266,92.583664 341.625610,90.226898 345.595551,91.726387 
	C345.911987,93.679344 345.936554,95.399940 345.929901,97.549286 
z"/>
<path fill="#61605D" opacity="1.000000" stroke="none" 
	d="
M345.660767,84.573059 
	C345.832672,85.098640 345.860229,85.269234 345.858398,85.697357 
	C345.275146,86.576027 344.742157,87.437340 343.988068,87.589096 
	C335.003540,89.397255 329.214508,96.752838 321.377808,100.534439 
	C320.332092,101.039040 319.329468,101.923805 318.245819,102.017036 
	C309.487457,102.770546 303.884369,108.906075 297.676392,113.961906 
	C291.386292,119.084602 284.262543,122.498901 276.427582,124.275406 
	C272.260040,125.220360 268.764984,126.819649 265.569550,129.762039 
	C261.051697,133.922150 255.789322,137.173523 250.133209,139.627502 
	C245.528046,141.625519 241.270401,144.092270 237.343918,147.787750 
	C236.070312,149.279953 234.526718,149.375107 232.840332,150.011032 
	C230.315491,150.559570 228.044540,150.785141 226.078812,152.710327 
	C224.890259,153.516296 223.912109,154.039413 222.775665,154.926361 
	C220.690414,155.906158 218.849457,156.648758 217.252228,158.416321 
	C216.833206,158.797806 216.651993,158.937057 216.165482,159.235229 
	C209.181244,162.513138 202.088318,164.907486 196.527802,170.604889 
	C196.190216,171.057983 196.048721,171.233429 195.656891,171.632843 
	C194.483307,172.409363 193.469269,172.835419 192.541473,173.941971 
	C190.012848,176.185272 187.488312,177.823593 184.358704,179.093933 
	C183.287796,179.508041 182.538330,179.845718 181.678772,180.621277 
	C181.247284,180.909531 181.067047,181.013626 180.601059,181.241394 
	C179.254013,181.544968 178.416031,182.092514 177.498138,183.134399 
	C175.705978,184.352798 174.114502,185.234711 171.885269,185.407242 
	C169.717072,185.147995 167.958603,185.316925 165.973694,186.323364 
	C164.684280,186.672165 163.724716,186.728622 162.390015,186.478760 
	C161.529892,186.346893 161.062256,186.188828 160.330261,185.723419 
	C159.099106,183.196823 160.924011,182.445206 162.585052,181.232559 
	C163.081100,180.886368 163.275864,180.743729 163.756775,180.382568 
	C164.243530,180.035645 164.444153,179.907257 164.963715,179.624054 
	C172.906265,176.825089 179.459579,172.199020 186.537918,167.866302 
	C187.087570,167.293961 187.415665,166.982056 188.012695,166.463562 
	C188.811417,165.843292 189.420792,165.543015 190.211563,164.905273 
	C190.830032,164.394775 191.203354,164.125244 191.911102,163.724121 
	C201.634186,158.454254 211.036011,153.323410 219.976440,147.418747 
	C221.808167,146.209000 223.618164,145.193436 226.102188,144.703323 
	C232.674591,144.591736 236.943298,141.056839 240.902710,136.332794 
	C241.569275,135.474442 242.158325,135.072235 243.166199,134.671295 
	C248.982651,133.030365 255.139847,132.854523 258.585754,126.712906 
	C259.194183,125.211136 260.115143,124.377075 261.208374,123.212280 
	C265.347900,120.745026 268.632324,117.424934 273.693970,116.793854 
	C281.100861,117.531258 286.962616,114.581039 292.518188,110.824623 
	C296.108917,108.396759 299.006165,105.145737 302.205505,102.252197 
	C305.838257,98.966660 309.906311,96.607315 315.002319,96.292137 
	C319.511444,96.013245 323.600220,93.808495 326.370178,90.696289 
	C331.143372,85.333389 337.298157,84.187943 344.043518,83.114716 
	C344.893829,83.419128 345.260651,83.758568 345.660767,84.573059 
z"/>
<path fill="#A7D6C6" opacity="1.000000" stroke="none" 
	d="
M130.064117,113.291000 
	C135.279892,108.189140 142.076355,105.559654 147.618042,101.058517 
	C151.757446,97.696358 156.453918,95.262848 161.627716,93.080734 
	C164.072617,95.019295 162.096069,96.977936 161.996338,99.230957 
	C157.846695,104.634621 151.695847,106.652145 146.511673,110.061623 
	C144.202087,111.580551 142.215790,113.073380 141.673218,116.309937 
	C139.983978,117.884140 140.210632,119.239922 140.753998,121.020798 
	C144.092361,131.962265 148.269089,142.602966 152.106552,153.364975 
	C153.651367,157.697388 155.853531,161.957779 153.574371,167.049973 
	C152.879120,167.645401 152.396454,167.834381 151.476746,167.904984 
	C149.043640,167.416641 148.166382,165.765701 147.418976,164.089096 
	C142.202408,152.387344 137.917953,140.282028 132.102753,128.445984 
	C132.279816,125.343369 133.024612,122.696533 133.039597,119.909500 
	C133.053848,117.258850 132.309967,115.195656 130.064117,113.291000 
z"/>
<path fill="#C0D0D4" opacity="1.000000" stroke="none" 
	d="
M91.034462,137.263962 
	C91.194344,132.899750 94.606331,131.384613 97.538712,129.080353 
	C101.978539,127.830681 102.012733,130.303436 101.491890,133.583496 
	C98.872429,137.410217 99.893288,140.789520 101.421432,144.265610 
	C107.982124,159.189255 114.173462,174.270065 120.452354,189.313339 
	C121.402611,191.590027 122.731323,193.823166 121.643066,196.802826 
	C119.051788,199.017227 117.363243,197.545914 115.515480,196.050446 
	C113.645760,194.537186 112.863365,191.930069 110.084229,190.828339 
	C109.639053,190.369843 109.494057,190.158386 109.224579,189.587433 
	C108.872299,183.625290 105.898285,178.876846 103.919342,173.901688 
	C101.004639,166.574005 97.757660,159.350220 94.549042,152.126953 
	C93.075363,148.809402 92.831665,145.126953 92.567566,141.529160 
	C92.458214,140.039337 92.720718,138.541641 91.034462,137.263962 
z"/>
<path fill="#A1B7C8" opacity="1.000000" stroke="none" 
	d="
M109.944397,188.616180 
	C110.002274,189.000717 110.008072,189.492035 110.015411,189.737610 
	C111.436531,191.145370 112.764481,192.387817 113.880173,193.852722 
	C116.212631,196.915237 119.236923,198.740814 123.465881,199.140625 
	C124.360428,199.930267 124.633514,200.626602 124.443619,201.824310 
	C123.215538,203.702240 121.434822,203.381195 119.559875,203.923172 
	C113.270256,202.975433 108.911957,199.478516 104.898315,194.841919 
	C99.721115,181.514267 93.959084,168.822708 89.085602,155.770386 
	C87.980507,152.810699 86.953644,149.850311 86.512230,146.712845 
	C86.380188,145.774353 86.568939,144.573425 84.649216,145.059631 
	C83.654358,145.459930 82.981689,145.739594 81.909592,146.047974 
	C80.405304,146.094910 79.419250,145.815521 78.911835,144.353378 
	C81.776619,142.026764 84.562057,140.095245 87.695709,138.159821 
	C90.877945,137.821548 92.653351,139.059906 92.768066,141.906189 
	C93.224899,153.240616 99.728798,162.455643 103.460182,172.632614 
	C105.392662,177.903259 107.535622,183.117920 109.944397,188.616180 
z"/>
<path fill="#4D4B48" opacity="1.000000" stroke="none" 
	d="
M236.240906,147.250153 
	C241.760803,140.369324 250.507599,138.579758 257.416504,133.805267 
	C257.552155,133.711533 257.745453,133.681503 257.850464,133.565964 
	C267.130463,123.355965 281.301544,122.684502 292.345642,115.889503 
	C297.748993,112.565025 302.084473,107.948372 307.174927,104.261604 
	C308.239532,103.490578 309.052795,102.265793 310.468842,102.158363 
	C318.304535,101.563972 324.651611,97.713936 330.310455,92.718674 
	C334.620972,88.913605 339.926880,87.722343 345.457153,85.983292 
	C345.860382,86.401924 345.891754,86.848961 345.885529,87.631248 
	C341.345123,92.510498 334.931915,94.054749 330.062592,98.078720 
	C326.361816,101.137001 322.092499,103.124100 317.380859,104.489136 
	C310.991730,106.340195 305.298615,109.646851 300.957275,115.435585 
	C297.312439,117.391846 293.771210,118.829308 290.725586,121.774719 
	C290.212616,122.089539 289.992889,122.190399 289.419983,122.365166 
	C284.561279,124.475204 279.665192,125.312447 275.041656,127.045273 
	C270.886139,128.602692 267.308533,130.717361 264.180908,134.304657 
	C263.437042,135.067856 262.845734,135.452362 261.936890,135.981979 
	C260.359406,136.572815 259.135529,137.103119 257.756653,138.073456 
	C256.297180,138.854568 255.078308,139.372772 253.610107,140.142303 
	C250.779892,141.215591 248.430801,142.507080 245.845856,144.049103 
	C245.434906,144.417526 245.279755,144.575821 244.861359,144.936340 
	C244.019043,145.466324 243.469330,145.832825 242.758087,146.553711 
	C242.297333,146.894684 242.099091,147.014679 241.572968,147.255829 
	C239.668121,147.722656 238.108612,148.715073 236.240906,147.250153 
z"/>
<path fill="#8ACDC2" opacity="1.000000" stroke="none" 
	d="
M214.757812,61.166679 
	C217.979980,57.232609 222.749527,56.123402 226.596588,53.120281 
	C230.847549,54.934357 234.253860,54.110794 237.324753,51.235023 
	C238.845428,49.810963 240.136047,47.826286 243.030075,48.868294 
	C244.701721,52.613277 242.107666,55.436405 241.581284,59.014202 
	C241.233383,61.408760 240.092194,62.738377 237.903107,63.617661 
	C232.138275,58.731129 227.692795,62.511692 222.814911,65.421249 
	C220.451202,66.979462 219.703476,69.000458 219.415329,71.406593 
	C219.032364,74.604767 217.907318,77.472618 214.250366,78.989777 
	C211.148087,79.509377 208.716278,78.476631 205.918030,77.338707 
	C204.368347,76.279282 203.095108,75.901352 201.537720,75.781395 
	C197.803696,75.493774 197.485870,74.408020 200.136780,70.809723 
	C203.312180,71.108871 206.000961,69.941269 208.801651,69.875137 
	C210.915436,69.825226 212.004715,68.340134 212.708740,66.570778 
	C213.378662,64.887138 213.956863,63.166134 214.757812,61.166679 
z"/>
<path fill="#3DB8C2" opacity="1.000000" stroke="none" 
	d="
M69.110840,173.420807 
	C64.102341,169.644699 59.185268,166.361237 53.353043,163.949677 
	C52.047550,162.904587 52.098766,161.806534 52.743004,160.265244 
	C57.448513,156.088165 63.186508,154.393829 68.359665,151.047546 
	C69.548889,151.375916 70.246880,151.953415 70.395752,152.756836 
	C71.529030,158.872818 73.286324,164.852982 74.334946,170.983307 
	C74.530647,172.127411 74.172462,173.263489 73.212189,174.580963 
	C71.287018,175.927338 70.184631,175.166641 69.110840,173.420807 
z"/>
<path fill="#C0D0D4" opacity="1.000000" stroke="none" 
	d="
M289.720154,38.890015 
	C293.025513,39.372375 293.219513,42.303326 294.121185,44.371605 
	C298.638214,54.733109 302.906647,65.203156 307.225616,75.650299 
	C307.393616,76.056618 307.185699,76.618347 307.128662,77.501808 
	C304.205902,79.902237 302.710388,77.460831 301.023560,75.897049 
	C299.276520,74.277458 298.613983,71.627022 295.776367,70.574615 
	C294.932312,70.350662 294.470978,70.163063 293.743225,69.663765 
	C293.120605,69.030426 292.864471,68.597397 292.598450,67.758163 
	C291.958557,65.034096 290.881866,62.811283 290.642548,60.008938 
	C290.735107,58.522747 291.183960,57.395660 290.584686,55.914070 
	C290.470612,55.080219 290.469330,54.593613 290.482117,53.730064 
	C290.231262,48.732746 287.341095,44.508156 288.720001,39.421974 
	C289.169189,39.099331 289.328186,39.043667 289.720154,38.890015 
z"/>
<path fill="#5EAAB5" opacity="1.000000" stroke="none" 
	d="
M78.749229,144.018646 
	C79.490311,144.916367 80.371483,145.080276 81.676773,145.071518 
	C83.312843,145.380325 84.151604,146.295242 84.087685,147.524689 
	C83.486023,159.098511 89.780800,168.639282 93.282295,178.998474 
	C94.166817,181.615311 95.909103,184.099960 93.927597,187.275635 
	C93.348747,187.638550 93.087883,187.737335 92.406815,187.879211 
	C89.254387,187.552521 87.219376,186.165955 85.770157,183.340424 
	C82.727890,174.882034 78.686470,167.150208 77.603989,158.557526 
	C77.066719,154.292679 74.777779,149.892471 77.715042,145.212616 
	C78.014534,144.525253 78.193871,144.257278 78.749229,144.018646 
z"/>
<path fill="#87CFB6" opacity="1.000000" stroke="none" 
	d="
M129.565994,112.989914 
	C133.609131,112.546051 135.513626,113.871353 135.007294,117.883911 
	C134.589706,121.193260 135.953293,124.812798 132.876526,127.935516 
	C127.163536,128.563446 122.001083,126.392204 116.267311,126.628036 
	C113.302933,121.547256 117.342163,120.412773 120.615761,118.418457 
	C123.694115,116.453506 126.450981,114.735641 129.565994,112.989914 
z"/>
<path fill="#403F3B" opacity="1.000000" stroke="none" 
	d="
M300.588379,115.422958 
	C302.070709,109.201866 307.523468,106.592316 312.278320,104.867371 
	C320.656616,101.827927 327.925354,97.299271 335.235901,92.503052 
	C338.218231,90.546417 341.459747,88.698349 345.484985,87.993416 
	C345.885468,89.031723 345.923065,90.096947 345.924042,91.560463 
	C338.673340,93.440804 333.777069,99.150772 327.375275,102.125954 
	C325.740692,102.885605 324.251526,103.958191 322.350494,104.947693 
	C318.383118,107.378838 313.853149,107.580353 310.224762,109.951118 
	C308.574432,111.029442 306.785034,111.910492 305.254669,113.741081 
	C304.846375,114.282265 304.644623,114.527481 304.193420,114.863693 
	C303.161926,115.618980 302.264282,116.027512 300.588379,115.422958 
z"/>
<path fill="#51AEB8" opacity="1.000000" stroke="none" 
	d="
M77.632843,144.931488 
	C78.363182,156.106293 81.095657,166.779877 85.568817,177.036316 
	C86.300621,178.714264 87.132957,180.341888 86.975983,182.647491 
	C85.149788,184.571915 83.535622,183.530991 81.551971,182.466553 
	C80.282280,181.690659 79.652756,180.857574 79.123329,179.483337 
	C76.003654,170.103806 73.784401,160.871063 71.100212,151.370148 
	C71.069649,150.449677 71.215523,149.953537 71.705994,149.167542 
	C71.925262,148.840881 71.938217,148.928818 71.893814,148.930557 
	C72.366913,148.649475 72.930618,148.506866 73.704224,148.177979 
	C74.782944,146.684586 75.568169,145.297379 77.632843,144.931488 
z"/>
<path fill="#A7D6C6" opacity="1.000000" stroke="none" 
	d="
M177.710876,83.375679 
	C182.070938,80.757507 186.145248,78.368294 190.582489,75.921219 
	C192.624191,75.957649 193.906357,76.655907 194.674072,78.629837 
	C194.329102,82.988983 190.839981,84.061386 188.142319,85.807968 
	C185.214554,87.703529 182.022736,89.263481 181.067932,93.482185 
	C178.961121,96.852051 181.026321,100.685799 178.651611,103.998550 
	C177.698349,104.858177 176.901138,105.047256 175.627136,104.958275 
	C172.102432,103.313316 171.330643,100.402710 170.888016,96.914383 
	C171.741119,93.403740 173.281342,90.574295 174.623703,87.272217 
	C175.137787,85.421097 176.093811,84.358795 177.710876,83.375679 
z"/>
<path fill="#B4C4D1" opacity="1.000000" stroke="none" 
	d="
M110.229462,188.747787 
	C104.656120,183.620834 103.699242,176.061707 100.503204,169.614716 
	C97.655876,163.871140 95.879448,157.610474 92.705238,151.979309 
	C91.577896,149.979355 92.153542,147.771225 91.987083,145.653671 
	C91.767609,142.861816 91.851700,139.917786 88.312454,138.376068 
	C88.768562,137.767242 89.493202,137.378540 90.537155,136.968689 
	C93.779182,136.545914 95.190643,136.613174 94.489288,140.701889 
	C93.227463,148.057938 97.353569,154.422409 100.014610,160.963623 
	C103.375465,169.225082 106.867828,177.433090 110.316299,185.658783 
	C110.711571,186.601624 111.033897,187.518005 110.229462,188.747787 
z"/>
<path fill="#B1DDCA" opacity="1.000000" stroke="none" 
	d="
M120.547302,118.104645 
	C120.650612,121.413574 116.058998,121.471642 115.971367,125.206177 
	C112.590462,131.409973 106.869301,133.379608 100.427765,134.510864 
	C99.981369,132.444244 101.909164,129.976425 98.197769,129.008789 
	C99.789719,126.909790 101.897316,125.008789 103.627022,122.810448 
	C106.393860,119.293945 109.747574,117.867516 113.968018,119.521454 
	C116.530693,120.525742 117.691017,116.757469 120.547302,118.104645 
z"/>
<path fill="#46B2BC" opacity="1.000000" stroke="none" 
	d="
M71.617432,150.684433 
	C73.994431,152.500885 75.024635,154.381088 75.103561,157.187561 
	C75.248367,162.336670 77.278412,167.122864 78.961624,171.946548 
	C79.700623,174.064331 81.292595,176.007675 80.214180,178.748505 
	C76.152840,180.722855 74.057663,178.324921 72.027771,175.266907 
	C73.791092,172.010178 72.066971,169.345322 71.332542,166.743942 
	C69.969017,161.914230 68.904289,157.073593 68.803352,151.536926 
	C68.755821,151.033096 68.796288,150.894958 68.868210,150.897522 
	C69.667618,150.494293 70.427406,150.267303 71.617432,150.684433 
z"/>
<path fill="#8ACDC2" opacity="1.000000" stroke="none" 
	d="
M276.710571,28.012316 
	C278.901459,27.735844 280.074524,28.941450 279.896088,30.427946 
	C279.595215,32.934254 281.858002,33.011871 282.972168,34.612488 
	C282.833832,37.601421 281.887634,39.903965 279.250854,41.646194 
	C273.865356,41.357830 268.867584,40.471287 263.402740,40.440865 
	C262.265564,40.040077 261.579926,39.600662 260.466492,39.092564 
	C258.587982,37.809090 257.747681,36.478817 258.722168,34.202518 
	C259.750488,31.942345 261.644562,31.684278 263.598846,30.956219 
	C268.710602,32.730690 272.853546,31.791765 276.710571,28.012316 
z"/>
<path fill="#A4CAC6" opacity="1.000000" stroke="none" 
	d="
M278.780121,41.763367 
	C280.186096,39.401730 280.226471,36.643936 282.784790,35.041309 
	C284.361633,35.723049 285.594635,36.498688 286.942993,37.576462 
	C288.399475,43.123871 289.833557,48.342598 291.747864,53.759727 
	C291.979523,54.466972 291.979980,54.904690 291.983398,55.670685 
	C291.998596,56.794785 291.998474,57.590752 292.022827,58.684879 
	C292.650848,61.403839 293.270203,63.824451 293.941711,66.613541 
	C290.952911,68.392937 290.186401,66.009521 289.474365,64.054428 
	C288.216919,60.602009 286.640594,57.353672 284.256165,54.088146 
	C283.099792,49.511765 280.185211,46.148472 278.780121,41.763367 
z"/>
<path fill="#98CFCF" opacity="1.000000" stroke="none" 
	d="
M258.584290,33.908409 
	C258.908752,35.310699 259.337006,36.564590 260.800720,37.712177 
	C261.645538,39.329666 260.938629,40.426594 259.864136,40.808231 
	C251.032211,43.945164 246.424484,50.759548 243.254623,59.385666 
	C242.154297,59.878006 241.392380,59.846119 240.333328,59.239254 
	C240.970154,55.910370 241.922318,52.822544 242.916397,49.050514 
	C243.118240,46.899036 244.054214,45.636032 244.164764,43.823837 
	C244.746109,42.493366 245.859634,42.137001 246.734406,41.076267 
	C246.899033,40.802654 246.917130,40.890972 246.872101,40.893311 
	C247.732040,40.385960 249.023941,40.637043 249.766357,39.206631 
	C252.388947,36.765640 255.180252,35.159527 258.584290,33.908409 
z"/>
<path fill="#B1DDCA" opacity="1.000000" stroke="none" 
	d="
M353.001038,68.605064 
	C351.323059,69.612991 350.067810,70.004936 348.429932,68.243484 
	C343.634613,63.086380 338.473877,58.269024 333.289551,53.021313 
	C332.467041,51.136810 333.182159,50.021370 334.714630,48.964241 
	C341.207001,55.167084 348.381989,60.534214 353.001038,68.605064 
z"/>
<path fill="#91CFC0" opacity="1.000000" stroke="none" 
	d="
M175.746033,86.739334 
	C175.561401,90.248756 174.609940,93.318565 171.920578,95.958031 
	C168.251831,97.308426 165.365982,99.801247 161.288208,99.330742 
	C159.384277,96.991051 161.956055,95.623131 161.982635,93.469086 
	C164.121017,91.489456 166.247818,89.843414 168.675079,88.041428 
	C171.383636,88.559242 173.108673,85.988663 175.746033,86.739334 
z"/>
<path fill="#75C4C2" opacity="1.000000" stroke="none" 
	d="
M242.990723,48.996933 
	C240.555054,49.094868 240.017578,51.353168 238.731995,52.742466 
	C235.071854,56.697819 230.113159,57.189152 227.001190,53.476776 
	C231.027512,50.730309 235.107025,48.368843 239.547821,45.982113 
	C240.667755,45.481773 241.476471,45.222370 242.769791,45.579803 
	C243.740448,46.541065 243.763245,47.370323 243.219757,48.611877 
	C242.996384,48.984322 242.998383,48.996426 242.990723,48.996933 
z"/>
<path fill="#75C4C2" opacity="1.000000" stroke="none" 
	d="
M214.585419,60.920162 
	C216.794708,67.468758 213.613571,71.978600 207.026901,71.971748 
	C205.245972,71.969894 203.465332,71.676613 201.365112,71.274307 
	C201.120972,70.642937 201.275803,70.290718 201.314941,69.780090 
	C201.104218,69.578232 201.202774,69.235641 201.371674,69.178688 
	C204.215683,69.103775 205.669189,66.962746 207.807755,65.388901 
	C210.092758,63.748940 212.163071,62.359238 214.585419,60.920162 
z"/>
<path fill="#A4D5C4" opacity="1.000000" stroke="none" 
	d="
M334.923218,48.550323 
	C334.982086,50.190521 334.242279,51.203754 333.289734,52.459591 
	C330.242737,50.073586 327.413666,47.364643 324.465210,44.792576 
	C322.400421,42.991390 321.548645,40.937355 322.717163,38.062660 
	C328.131775,39.976650 330.681091,44.997169 334.923218,48.550323 
z"/>
<path fill="#75C4C2" opacity="1.000000" stroke="none" 
	d="
M276.903381,27.593773 
	C277.166016,32.086891 274.190887,33.008953 270.995667,33.465900 
	C268.499268,33.822910 265.506287,35.591530 263.986298,31.314127 
	C270.043640,25.331459 272.674622,24.582985 276.903381,27.593773 
z"/>
<path fill="#98CDC1" opacity="1.000000" stroke="none" 
	d="
M200.814789,69.752304 
	C201.173752,69.911430 201.243271,70.244621 201.179230,70.804672 
	C199.999695,71.598732 198.921494,72.327042 199.353271,73.643951 
	C199.908997,75.338821 201.255219,74.196793 202.267487,74.136040 
	C203.571045,74.057808 204.906067,73.784882 205.885040,75.501129 
	C203.003281,79.278282 199.093765,80.111809 194.420822,79.456062 
	C193.148087,78.284760 192.211197,77.362839 191.109863,76.152130 
	C193.205948,72.379227 196.928009,71.253433 200.814789,69.752304 
z"/>
<path fill="#799486" opacity="1.000000" stroke="none" 
	d="
M345.871338,84.470238 
	C345.553925,84.786949 345.350159,84.595352 345.099823,84.164032 
	C343.236908,81.880943 341.251343,83.442673 339.500641,83.857483 
	C337.330353,84.371719 335.310760,84.915627 333.013611,83.380035 
	C332.542877,79.628860 335.073425,78.955559 337.922668,78.058411 
	C340.973175,78.347305 342.700653,75.599503 345.673950,75.523270 
	C346.021912,78.327393 345.979706,81.169907 345.871338,84.470238 
z"/>
<path fill="#B9D3CF" opacity="1.000000" stroke="none" 
	d="
M291.982239,53.617424 
	C288.062683,49.596672 286.891388,44.241615 286.914978,38.205902 
	C287.524170,38.231693 287.989960,38.584785 288.732971,39.046432 
	C290.001923,43.838528 290.993683,48.522064 291.982239,53.617424 
z"/>
<path fill="#B5D9CD" opacity="1.000000" stroke="none" 
	d="
M176.159546,86.692230 
	C173.494431,86.509453 172.035858,90.771591 169.047058,88.193810 
	C171.727661,86.257202 174.479767,84.628922 177.614227,83.073669 
	C177.956299,84.505981 177.035019,85.412140 176.159546,86.692230 
z"/>
<path fill="#C0D0D4" opacity="1.000000" stroke="none" 
	d="
M51.085648,412.564087 
	C53.100971,414.194702 56.363605,414.526764 57.751446,417.630920 
	C55.331242,416.568665 50.434021,418.484100 51.085648,412.564087 
z"/>
<path fill="#61605D" opacity="1.000000" stroke="none" 
	d="
M323.312439,28.743565 
	C320.989441,26.189161 322.596436,22.964712 322.033936,19.530571 
	C325.357574,19.110462 323.680084,21.661093 323.852509,23.071060 
	C324.067719,24.831049 323.715820,26.660383 323.312439,28.743565 
z"/>
<path fill="#98CDC1" opacity="1.000000" stroke="none" 
	d="
M207.679321,65.164398 
	C207.187881,68.066841 204.990082,69.164963 201.872162,69.297379 
	C203.472443,67.811203 205.404297,66.500671 207.679321,65.164398 
z"/>
<path fill="#C0D0D4" opacity="1.000000" stroke="none" 
	d="
M246.558868,40.886604 
	C246.973801,42.021347 246.259415,42.805702 245.198929,43.762909 
	C244.795807,44.789253 244.286743,45.257374 243.171738,45.471207 
	C242.327133,45.308281 241.956711,45.024601 241.802872,44.229172 
	C242.719559,41.991634 244.613632,41.696220 246.558868,40.886604 
z"/>
<path fill="#75C4C2" opacity="1.000000" stroke="none" 
	d="
M52.605583,160.036987 
	C52.962799,160.942001 52.985023,162.005508 53.005310,163.463928 
	C52.545605,164.150421 52.087837,164.442017 51.385815,164.850601 
	C50.917789,163.234909 50.568825,161.472595 52.605583,160.036987 
z"/>
<path fill="#8ACDC2" opacity="1.000000" stroke="none" 
	d="
M71.982666,150.547501 
	C71.209824,150.915115 70.451363,150.941193 69.316513,150.933685 
	C69.435478,149.910812 70.052635,149.070221 71.604736,148.910217 
	C71.949181,149.295914 71.973106,149.750931 71.982666,150.547501 
z"/>
<path fill="#61605D" opacity="1.000000" stroke="none" 
	d="
M490.879333,380.350525 
	C489.609070,379.407318 489.819061,377.942871 490.674255,376.258545 
	C490.950104,377.372192 490.946930,378.669952 490.879333,380.350525 
z"/>
<path fill="#61605D" opacity="1.000000" stroke="none" 
	d="
M490.913086,361.412537 
	C489.560120,360.489807 489.852631,359.000397 490.656189,357.294556 
	C490.942841,358.410919 490.953339,359.717499 490.913086,361.412537 
z"/>
<path fill="#61605D" opacity="1.000000" stroke="none" 
	d="
M490.933594,342.444336 
	C489.515076,341.529419 489.871735,340.018860 490.653931,338.298157 
	C490.947510,339.421021 490.963470,340.736633 490.933594,342.444336 
z"/>
<path fill="#98CFCF" opacity="1.000000" stroke="none" 
	d="
M241.620895,43.994713 
	C242.129959,44.183559 242.367050,44.490948 242.839142,44.972382 
	C243.153839,45.298096 243.233551,45.449768 243.157181,45.805626 
	C242.227875,45.999958 241.454636,45.990093 240.295258,45.968540 
	C240.389038,45.342319 240.868973,44.727787 241.620895,43.994713 
z"/>
<path fill="#403F3B" opacity="1.000000" stroke="none" 
	d="
M321.961792,11.571968 
	C320.930511,11.054519 321.026917,9.859093 321.002533,8.342529 
	C322.235016,8.786693 321.927368,10.055883 321.961792,11.571968 
z"/>
<path fill="#C0D0D4" opacity="1.000000" stroke="none" 
	d="
M249.625336,39.043144 
	C249.767502,40.348957 248.913300,40.966469 247.185028,40.940010 
	C247.081406,39.489395 248.856567,40.264076 249.625336,39.043144 
z"/>
<path fill="#8ACDC2" opacity="1.000000" stroke="none" 
	d="
M73.596428,147.989090 
	C73.423340,148.292023 72.940315,148.615845 72.153351,148.935989 
	C72.099823,148.268661 72.598640,147.992050 73.596428,147.989090 
z"/>
<path fill="#94D2B9" opacity="1.000000" stroke="none" 
	d="
M258.023102,530.335327 
	C258.490906,530.209106 259.077209,530.387085 259.836182,530.826660 
	C259.386414,530.938782 258.764008,530.789124 258.023102,530.335327 
z"/>
<path fill="#94D2B9" opacity="1.000000" stroke="none" 
	d="
M261.022400,532.326721 
	C261.437225,532.261230 262.001862,532.479797 262.777710,532.928467 
	C262.383362,532.976013 261.777802,532.793335 261.022400,532.326721 
z"/>
<path fill="#94D2B9" opacity="1.000000" stroke="none" 
	d="
M259.989532,531.271973 
	C260.193726,531.213928 260.473175,531.428650 260.878967,531.879761 
	C260.691772,531.925598 260.378265,531.735168 259.989532,531.271973 
z"/>
<path fill="#262626" opacity="1.000000" stroke="none" 
	d="
M312.783081,386.991638 
	C313.140045,387.182526 313.218170,387.372284 313.146362,387.831329 
	C312.468384,387.891937 311.952881,387.677704 312.783081,386.991638 
z"/>
<path fill="#6BB888" opacity="1.000000" stroke="none" 
	d="
M71.704330,174.769089 
	C74.421394,176.213425 76.860405,177.557877 79.642494,178.954178 
	C80.488754,179.562683 80.991951,180.119339 81.734024,180.831375 
	C85.273323,186.403656 86.689674,192.669708 89.816803,198.188507 
	C92.310364,202.589172 95.059563,206.777374 99.233810,209.629120 
	C103.842987,212.778015 108.948380,214.482208 114.759499,213.514603 
	C117.897102,212.992188 121.220627,211.271912 124.422493,214.261307 
	C124.391464,216.913681 124.638588,219.188858 124.057205,221.730591 
	C117.318100,223.399429 111.179962,226.189972 104.274780,224.633377 
	C92.275734,221.928528 85.206657,213.318619 79.984123,203.414185 
	C75.391571,194.704498 72.468430,185.112732 68.855064,175.892090 
	C68.572884,175.172028 68.661133,174.306808 68.774574,173.259033 
	C69.790047,173.562408 70.608162,174.115799 71.704330,174.769089 
z"/>
<path fill="#61605D" opacity="1.000000" stroke="none" 
	d="
M123.788582,222.474167 
	C123.758766,219.639725 123.789597,217.270172 123.770226,214.459900 
	C123.047523,213.126434 122.402771,212.221878 122.449692,210.613998 
	C122.423767,209.120834 122.202187,208.034180 122.663467,206.586517 
	C125.883224,201.787155 131.099548,200.462006 135.358398,197.772827 
	C138.407913,195.847260 141.604263,194.112411 144.985229,191.973602 
	C147.293121,190.732727 148.903488,188.695465 151.885880,189.540436 
	C152.567566,190.110992 152.801071,190.553940 152.947357,191.426300 
	C150.566422,197.227219 145.363174,199.814865 140.950134,203.002960 
	C136.835068,205.975739 133.004517,209.907959 127.334740,210.150131 
	C126.728966,210.175995 126.673599,211.193832 126.495834,212.188477 
	C126.363945,213.297714 126.023972,213.925339 125.250305,214.731552 
	C124.987976,216.071762 124.974083,217.140793 124.998291,218.609421 
	C124.998741,232.726822 124.961075,246.444611 124.826622,260.628723 
	C123.348564,252.548660 124.368935,243.934387 124.016266,235.357834 
	C123.846230,231.222946 123.897926,227.078934 123.788582,222.474167 
z"/>
<path fill="#A4CAC6" opacity="1.000000" stroke="none" 
	d="
M293.726929,69.171387 
	C294.488220,68.976562 294.930756,68.981529 295.705170,68.994125 
	C299.425659,72.008583 300.936218,76.449280 304.270447,79.572311 
	C306.217224,81.395775 308.074982,83.248299 310.649567,84.825127 
	C312.110779,86.205109 312.633820,87.717010 313.072449,89.626610 
	C309.075012,93.544205 305.230896,90.918381 300.993774,89.518745 
	C299.150269,88.810310 298.051025,87.669113 297.760986,86.232224 
	C296.984283,82.384315 294.552582,81.347702 290.705872,81.637611 
	C289.704132,81.042221 289.390686,80.393311 289.384033,79.225571 
	C292.025818,76.220436 291.563080,72.311623 293.726929,69.171387 
z"/>
<path fill="#B1DDCA" opacity="1.000000" stroke="none" 
	d="
M321.188660,72.333572 
	C318.163330,68.101379 317.418884,63.802830 318.505768,58.624779 
	C324.218140,62.382187 327.747467,67.770508 332.470764,72.419235 
	C329.596252,75.855171 327.944427,75.842171 321.188660,72.333572 
z"/>
<path fill="#B9D3CF" opacity="1.000000" stroke="none" 
	d="
M310.920166,84.668205 
	C307.797272,86.596916 306.105469,84.498009 304.277161,82.492737 
	C300.814453,78.694901 298.291443,74.321503 296.087097,69.352203 
	C299.157867,69.267990 299.725250,72.333748 301.554504,74.016495 
	C303.072113,75.412521 304.177399,77.348366 306.756897,77.868851 
	C307.104370,77.895950 307.055176,77.922287 307.069458,77.898453 
	C307.470123,78.525452 308.045105,79.014137 308.729004,79.778816 
	C310.052856,81.214256 310.645874,82.690071 310.920166,84.668205 
z"/>
<path fill="#91CFC0" opacity="1.000000" stroke="none" 
	d="
M299.803833,88.261192 
	C304.347046,87.818138 307.986481,90.698257 312.656189,89.982437 
	C313.522217,90.631973 313.958374,91.288391 314.631775,92.127678 
	C315.316925,92.711006 315.501831,93.210609 315.260498,94.197647 
	C314.093140,95.792488 312.776794,96.297302 310.812195,96.315102 
	C307.028564,94.785797 303.077209,97.295113 299.578888,94.340271 
	C298.174835,92.148605 298.158264,90.328575 299.803833,88.261192 
z"/>
<path fill="#A4D5C4" opacity="1.000000" stroke="none" 
	d="
M320.925903,72.415672 
	C324.675842,70.725227 328.110443,74.469345 332.341492,72.836044 
	C333.995758,73.873711 335.283234,75.064354 336.766296,76.533340 
	C333.562897,80.854584 329.199829,80.455055 324.278992,79.268982 
	C322.083221,77.333527 322.308441,74.710358 320.925903,72.415672 
z"/>
<path fill="#8ACDC2" opacity="1.000000" stroke="none" 
	d="
M323.970337,79.409668 
	C327.898682,78.346031 331.949280,77.624718 336.480835,76.857544 
	C337.288483,77.032799 337.615143,77.253899 338.073059,77.635925 
	C337.868927,80.720184 334.685852,80.590721 333.096313,82.658928 
	C332.276245,85.062675 330.472534,85.843468 328.323486,86.718384 
	C327.466370,86.803528 326.991394,86.701950 326.273163,86.248474 
	C326.113342,83.683456 324.780914,81.816719 323.970337,79.409668 
z"/>
<path fill="#799486" opacity="1.000000" stroke="none" 
	d="
M325.679443,86.091705 
	C326.442932,85.957092 326.875214,85.922829 327.633362,85.902084 
	C329.635406,92.166496 323.171967,91.855980 320.723114,94.771881 
	C319.001617,96.821709 316.790222,97.021774 314.906708,94.349289 
	C314.927094,93.593193 314.881683,93.227654 314.852661,92.586334 
	C318.362122,90.271057 321.855225,88.231560 325.679443,86.091705 
z"/>
<path fill="#C0D0D4" opacity="1.000000" stroke="none" 
	d="
M308.888367,79.681488 
	C308.054962,79.813477 307.377594,79.423340 307.121887,78.183731 
	C307.936310,78.066734 308.569885,78.518120 308.888367,79.681488 
z"/>
<path fill="#3B3433" opacity="1.000000" stroke="none" 
	d="
M125.376785,214.986755 
	C124.988823,214.252853 124.975777,213.502975 124.981491,212.378418 
	C128.603897,208.890076 133.561615,208.423203 137.323120,205.288788 
	C140.975708,202.245132 145.510834,200.104691 148.824524,196.664536 
	C154.887207,190.370468 162.659882,187.772186 170.684494,185.757462 
	C177.767471,183.979126 183.448700,179.624374 189.568832,176.147903 
	C196.006363,172.491119 201.383011,167.072769 208.321671,164.153198 
	C216.191666,160.841751 222.281967,154.698730 230.074890,150.597748 
	C230.589584,150.294403 230.813095,150.207520 231.387909,150.057953 
	C235.381607,149.911880 238.256973,147.745377 241.718185,146.208069 
	C241.993484,145.993912 242.000000,146.000000 241.997101,145.995880 
	C242.533737,145.466522 243.066132,144.934021 243.808472,144.212341 
	C244.013351,144.018036 244.000000,144.000885 244.007019,144.007431 
	C246.774002,142.371704 249.886322,141.390762 252.761536,139.254883 
	C253.894684,137.960419 255.077850,137.437378 256.704956,137.071533 
	C258.053589,136.175674 259.580627,136.463730 260.770874,135.238739 
	C261.483643,134.708572 261.958252,134.401230 262.719666,134.048920 
	C268.536194,129.441025 274.625580,126.021751 281.749908,124.612572 
	C284.206970,124.126564 286.292480,122.703392 288.730804,121.259392 
	C289.013336,121.022629 289.504120,121.010193 289.749512,121.002884 
	C291.686157,120.136597 293.265656,118.883598 295.683716,119.737656 
	C293.872162,123.733505 290.059845,125.314369 286.421753,126.574127 
	C278.652588,129.264343 271.593140,133.056976 264.782654,137.635864 
	C259.989563,140.858398 254.376297,142.834930 249.426041,145.854385 
	C228.930161,158.356018 207.034714,168.456223 187.326294,182.323547 
	C180.697128,186.987991 173.152390,189.873276 165.435257,192.587006 
	C154.269363,196.513489 144.948486,204.033478 135.145554,210.529968 
	C132.230621,212.461731 129.289291,214.350311 125.376785,214.986755 
z"/>
<path fill="#3B3433" opacity="1.000000" stroke="none" 
	d="
M305.347412,113.938705 
	C308.193604,107.018517 315.128723,106.784691 321.606506,105.007622 
	C321.766571,106.496094 320.753693,107.371353 319.420502,107.629738 
	C314.331451,108.616043 310.206055,111.660042 305.347412,113.938705 
z"/>
<path fill="#403F3B" opacity="1.000000" stroke="none" 
	d="
M296.247681,119.997955 
	C294.255646,120.334167 292.511322,120.664780 290.380920,120.995483 
	C292.230164,117.683105 295.740662,116.346573 299.622253,115.003220 
	C299.987885,114.987984 300.003326,115.003822 300.010010,115.011246 
	C301.579987,117.848679 298.232819,117.920670 297.253540,119.726990 
	C296.990692,119.983719 296.495331,119.992348 296.247681,119.997955 
z"/>
<path fill="#3B3433" opacity="1.000000" stroke="none" 
	d="
M297.331543,119.933014 
	C296.943695,117.880508 299.182892,117.288399 299.933502,115.338020 
	C301.077118,115.010834 302.137512,115.002998 303.595642,114.995239 
	C302.562866,117.499290 300.120270,118.694229 297.331543,119.933014 
z"/>
<path fill="#483D3E" opacity="1.000000" stroke="none" 
	d="
M230.714340,150.771835 
	C226.350540,155.435776 221.008347,159.277115 215.419739,161.991959 
	C203.814789,167.629425 193.885712,175.826691 182.631287,181.911377 
	C176.542786,185.203094 170.423950,188.407516 163.514725,189.644547 
	C159.438629,190.374313 156.387085,192.704529 153.131134,195.168076 
	C144.588135,201.632004 136.611191,209.170624 125.373352,211.939148 
	C124.922287,209.582413 125.194481,207.348709 128.502228,208.361801 
	C130.172943,208.873474 130.890182,207.709106 131.998993,207.085846 
	C139.153168,203.064545 145.473145,197.939224 151.757416,192.222092 
	C154.263062,188.527786 157.606720,186.628433 161.737167,185.271423 
	C163.068771,185.025986 164.136063,185.003479 165.603668,184.977661 
	C167.552216,185.088013 168.876648,184.190933 170.679443,183.986679 
	C172.986755,184.065353 174.648270,183.157288 176.623520,182.093781 
	C177.680542,181.216858 178.619461,180.822235 179.759735,180.182419 
	C179.986740,179.980087 180.455521,179.942368 180.690613,179.937195 
	C181.523575,179.468704 182.055496,178.932755 182.799469,178.210037 
	C185.932785,176.664337 188.794708,175.197418 191.625610,173.038086 
	C192.672333,172.205505 193.622620,171.828781 194.749542,171.170456 
	C194.974731,170.966721 194.992233,170.998535 194.979675,170.981720 
	C200.806412,165.163345 208.512939,162.433945 215.744080,158.250870 
	C216.004013,158.007019 216.000000,158.000000 216.002869,158.002213 
	C217.866394,156.850433 219.766953,155.758255 221.745224,154.199249 
	C222.513351,152.960556 223.291885,152.287430 224.779556,152.101608 
	C226.733200,151.080032 228.402023,150.227280 230.714340,150.771835 
z"/>
<path fill="#6D7F74" opacity="1.000000" stroke="none" 
	d="
M314.639771,94.013947 
	C316.480499,95.196625 317.906342,95.992950 319.631195,94.125565 
	C322.156494,91.391548 326.274323,90.387909 327.916077,86.265770 
	C329.054291,84.456841 330.635223,83.736809 332.581177,83.012268 
	C336.208466,83.220650 339.361938,82.511833 342.292084,81.085403 
	C345.027252,79.753899 344.859161,81.602089 345.010254,83.616760 
	C338.147919,85.802521 331.300812,87.363373 325.979950,92.837845 
	C322.731537,96.180046 318.235718,97.569092 313.426422,98.133583 
	C308.508179,98.710861 304.578125,101.449837 301.361237,105.321922 
	C295.006683,112.970589 287.016144,117.852654 276.961884,118.911804 
	C276.184601,118.993683 275.362183,118.647308 274.271362,118.250427 
	C273.440002,116.921158 274.096344,116.195374 274.974762,115.209427 
	C277.426331,112.532806 281.321838,112.967514 283.550781,109.936356 
	C286.386841,107.568596 289.189545,105.778412 292.624054,104.426605 
	C293.534393,104.166275 294.124237,103.971367 294.896118,103.409637 
	C295.327820,103.083641 295.508545,102.960289 295.987000,102.693024 
	C300.908630,99.946312 304.522095,95.342789 310.790039,95.244827 
	C312.169495,94.763023 313.238251,94.416100 314.639771,94.013947 
z"/>
<path fill="#84B9BA" opacity="1.000000" stroke="none" 
	d="
M244.161407,135.684555 
	C243.286667,136.024597 242.774475,136.230820 242.077606,136.644867 
	C237.952942,141.107773 232.956528,143.667679 227.295227,145.724365 
	C215.646927,152.230179 204.352798,158.740601 192.723007,165.352020 
	C192.166275,165.390869 191.945206,165.328705 191.583405,164.952301 
	C191.711411,160.616379 196.314224,158.760468 196.650711,154.376770 
	C199.064621,152.131317 201.857147,151.978775 204.916595,151.535355 
	C210.738525,151.332550 215.065582,149.343628 217.441437,143.658875 
	C220.166245,140.753235 223.696732,140.603317 227.187134,139.425751 
	C232.630875,138.603745 236.904114,136.334732 240.581787,132.190552 
	C243.078766,130.596390 245.262817,128.987045 248.207748,131.117935 
	C248.703842,134.317703 246.108368,134.454407 244.161407,135.684555 
z"/>
<path fill="#8FB8BC" opacity="1.000000" stroke="none" 
	d="
M187.884369,167.498322 
	C182.997223,173.001709 176.321091,175.394302 170.421707,179.055206 
	C169.045425,179.909271 167.454407,180.417328 165.604340,181.122787 
	C161.814240,181.483276 158.424026,182.007095 155.199844,183.301437 
	C153.645081,183.925568 152.082764,184.365128 150.086670,183.411163 
	C148.441010,180.377304 149.368469,178.007507 151.434692,175.494659 
	C155.957489,173.130783 160.114304,173.756485 164.659042,175.379822 
	C169.913269,174.946335 173.514725,171.755569 177.619461,169.665924 
	C180.388260,168.256378 182.761551,165.884460 186.577759,166.229446 
	C187.155655,166.496048 187.364639,166.647690 187.884369,167.498322 
z"/>
<path fill="#84B9BA" opacity="1.000000" stroke="none" 
	d="
M149.777832,183.017365 
	C154.904694,181.755814 159.250732,178.190659 164.914093,180.895142 
	C165.246521,181.161011 165.115814,181.159454 165.100433,181.095932 
	C164.771988,181.162720 164.529892,181.374268 164.178940,181.832703 
	C162.772781,182.825287 161.546478,183.652191 160.111969,184.721985 
	C158.393478,187.956024 155.302429,188.649323 152.286652,189.895935 
	C150.161026,190.776749 148.386917,191.724670 146.295441,192.775909 
	C145.526199,192.571930 145.188690,192.168686 144.859619,191.282623 
	C144.832977,187.415558 146.270935,184.737198 149.777832,183.017365 
z"/>
<path fill="#84B9BA" opacity="1.000000" stroke="none" 
	d="
M275.867798,115.616272 
	C275.447235,116.545464 274.867096,117.031265 274.134460,117.758972 
	C269.780212,119.144562 266.671906,122.283867 262.516479,124.245392 
	C261.893829,124.407379 261.596161,124.429176 260.896301,124.246681 
	C258.726166,122.016678 258.509430,119.670189 259.263763,116.736145 
	C263.995117,112.146858 270.311646,111.705048 275.867798,115.616272 
z"/>
<path fill="#4D4B48" opacity="1.000000" stroke="none" 
	d="
M215.643433,158.057617 
	C215.796539,159.721237 214.446594,160.739838 213.155853,161.123367 
	C206.576126,163.078522 201.607758,167.837418 195.316620,170.919708 
	C197.355759,166.272766 201.987930,164.306351 206.218826,161.969437 
	C209.078598,160.389847 212.250549,159.375443 215.643433,158.057617 
z"/>
<path fill="#6D7F74" opacity="1.000000" stroke="none" 
	d="
M244.201523,135.858490 
	C245.084457,134.737915 246.370026,133.657471 247.848907,132.326294 
	C248.579636,131.243179 249.034561,130.335464 250.359344,129.766510 
	C253.806396,129.111786 255.987289,125.986374 259.735657,126.766159 
	C257.159851,133.937607 250.429916,134.134445 244.201523,135.858490 
z"/>
<path fill="#6D7F74" opacity="1.000000" stroke="none" 
	d="
M227.151230,145.973221 
	C231.701096,142.821030 236.461136,139.922318 241.557068,136.938126 
	C238.742340,142.602203 233.631805,145.313477 227.151230,145.973221 
z"/>
<path fill="#4D4B48" opacity="1.000000" stroke="none" 
	d="
M151.942581,190.187210 
	C154.378601,188.280502 156.822067,186.732193 159.584656,185.074371 
	C160.370041,184.983017 160.836319,185.001175 161.652039,185.033920 
	C159.883240,188.678757 155.626678,189.389236 152.325684,191.928436 
	C151.968445,191.499954 151.959244,191.022781 151.942581,190.187210 
z"/>
<path fill="#483D3E" opacity="1.000000" stroke="none" 
	d="
M241.611481,146.009109 
	C239.424484,148.574646 236.975174,151.374817 232.403076,151.008392 
	C231.624817,150.618423 231.473404,150.153809 231.767593,149.295349 
	C233.157898,148.462357 234.333557,147.947968 235.750641,147.214355 
	C237.737869,146.671509 239.483658,146.347916 241.611481,146.009109 
z"/>
<path fill="#799486" opacity="1.000000" stroke="none" 
	d="
M260.157776,126.765549 
	C257.237549,128.313950 254.467026,129.615768 251.339508,130.950623 
	C250.607880,130.604980 250.389603,130.150864 250.368774,129.235840 
	C252.753189,125.384041 256.058563,123.734741 260.541504,123.830719 
	C261.107666,124.052010 261.329590,124.098114 261.871521,124.264908 
	C261.563507,125.096718 260.935516,125.807846 260.157776,126.765549 
z"/>
<path fill="#4D4B48" opacity="1.000000" stroke="none" 
	d="
M231.604340,148.978241 
	C231.988876,149.428116 231.995499,149.879471 232.004639,150.669312 
	C232.007141,151.007797 231.517563,151.017715 231.273132,151.023895 
	C229.302094,151.358398 227.575500,151.686707 225.472961,152.030396 
	C226.397308,149.538712 228.721039,149.077621 231.604340,148.978241 
z"/>
<path fill="#4D4B48" opacity="1.000000" stroke="none" 
	d="
M221.629074,154.014557 
	C221.197128,156.568512 219.153580,157.522949 216.367004,157.992371 
	C217.126144,155.831955 219.054840,154.745987 221.629074,154.014557 
z"/>
<path fill="#4D4B48" opacity="1.000000" stroke="none" 
	d="
M170.769775,183.768860 
	C169.686264,185.086868 168.250504,185.817856 166.227509,185.180283 
	C167.337692,183.929596 168.765884,183.190964 170.769775,183.768860 
z"/>
<path fill="#4D4B48" opacity="1.000000" stroke="none" 
	d="
M179.646729,179.995102 
	C179.492279,181.003067 178.747070,181.710861 177.260193,181.915329 
	C177.207565,180.657150 178.031158,180.055923 179.646729,179.995102 
z"/>
<path fill="#4D4B48" opacity="1.000000" stroke="none" 
	d="
M194.634262,170.982605 
	C194.499802,171.997955 193.755936,172.700089 192.284668,172.937363 
	C192.196884,171.671173 193.005951,171.052216 194.634262,170.982605 
z"/>
<path fill="#4D4B48" opacity="1.000000" stroke="none" 
	d="
M182.694290,178.066711 
	C182.851135,178.884399 182.510132,179.607758 181.239685,179.889755 
	C181.122299,179.093323 181.502167,178.403122 182.694290,178.066711 
z"/>
<path fill="#84B9BA" opacity="1.000000" stroke="none" 
	d="
M192.126465,165.132965 
	C192.248672,165.705002 192.048462,165.890579 191.585114,166.061905 
	C190.914185,166.317230 190.423859,166.426773 189.562317,166.294800 
	C188.473312,164.666885 189.617920,164.462631 190.957535,164.154434 
	C191.514450,164.388763 191.690002,164.600830 192.126465,165.132965 
z"/>
<path fill="#8FB8BC" opacity="1.000000" stroke="none" 
	d="
M188.726791,166.540466 
	C189.320862,165.774902 189.906372,165.884094 190.937714,166.053665 
	C190.901840,166.484512 190.420120,166.854980 189.639999,167.293015 
	C189.133804,167.378815 188.926010,167.397034 188.726791,166.540466 
z"/>
<path fill="#8FB8BC" opacity="1.000000" stroke="none" 
	d="
M189.254303,167.268616 
	C189.167480,167.641846 188.934860,167.861008 188.419434,168.107697 
	C188.195114,168.197342 188.084549,168.072083 188.031097,168.007874 
	C187.787094,167.474289 187.904007,167.101273 188.659592,166.909393 
	C188.990845,166.994217 189.167007,167.176651 189.254303,167.268616 
z"/>
<path fill="#8FB8BC" opacity="1.000000" stroke="none" 
	d="
M164.246399,181.920990 
	C164.165710,181.709457 164.385330,181.468918 164.871521,181.154602 
	C164.887939,181.302811 164.690826,181.573196 164.246399,181.920990 
z"/>
<path fill="#282928" opacity="1.000000" stroke="none" 
	d="
M150.244293,182.638260 
	C148.710770,185.174728 147.244873,187.357071 145.653336,189.828918 
	C145.927841,191.640671 144.640579,192.139465 143.783676,192.769943 
	C138.537628,196.629974 132.554871,199.230240 126.954987,202.488754 
	C126.207306,202.923828 125.347694,202.830276 124.249969,202.247986 
	C123.755730,201.456421 123.550652,200.923798 123.134537,200.197067 
	C122.298653,199.217819 121.290947,198.675095 121.407677,197.176880 
	C115.566879,182.686325 109.660858,168.484863 103.703445,154.304993 
	C101.715897,149.574234 99.679291,144.860138 97.506065,140.212814 
	C96.249840,137.526443 96.746376,135.784851 99.847473,134.569550 
	C105.185768,131.530975 110.279732,128.752426 115.666740,125.758316 
	C121.581032,124.262993 127.052513,123.995087 132.224548,128.039200 
	C139.203598,135.479431 141.094345,145.152191 145.169235,153.735748 
	C147.144119,157.895752 148.638641,162.283813 150.612671,166.808472 
	C153.602814,169.327835 154.694290,171.962402 152.358032,175.632629 
	C151.475128,178.088089 150.893524,180.186127 150.244293,182.638260 
z"/>
<path fill="#282929" opacity="1.000000" stroke="none" 
	d="
M191.591965,163.958481 
	C190.596756,164.509872 189.854599,164.843018 188.923904,165.420959 
	C188.735367,165.665726 188.739258,165.687256 188.730865,165.692352 
	C188.661789,166.445465 188.022690,166.542282 187.209610,166.778748 
	C181.571808,169.773788 176.233276,172.771835 170.888092,175.757950 
	C169.758072,176.389252 168.791580,177.467422 166.961182,177.005310 
	C165.520691,176.649384 164.853165,175.816010 163.942444,174.714767 
	C159.098526,163.767441 154.758728,153.027283 150.000488,142.467102 
	C146.667130,135.069214 143.931915,127.419914 140.599991,120.020958 
	C140.106796,118.925804 139.876816,117.821693 140.572205,116.335274 
	C139.514893,112.958870 140.041214,111.175468 143.439255,109.536865 
	C149.370239,106.676842 154.889618,102.963272 160.806961,99.356644 
	C163.425323,97.855057 165.833740,96.632713 168.204086,95.340546 
	C169.269699,94.759644 170.235611,94.288872 171.327789,95.873734 
	C172.604248,98.556641 173.623840,100.990143 174.863251,103.708504 
	C176.228302,105.618912 175.408524,106.902924 174.096985,108.417946 
	C172.715317,109.667015 171.108688,109.740509 169.713287,110.946716 
	C167.152893,112.186966 164.959702,113.383217 162.721741,114.469894 
	C158.800964,116.373703 158.393066,119.068558 160.302612,122.590752 
	C160.619293,123.174873 160.885010,123.788399 161.178055,124.386688 
	C163.800797,129.741623 163.988815,129.791611 169.463287,126.194473 
	C170.653168,125.444992 171.621826,125.140297 173.044800,124.984436 
	C180.285492,128.309662 181.887375,135.427933 176.607498,140.701874 
	C175.200424,141.523865 174.278885,142.382828 172.839142,143.099548 
	C170.953537,143.760986 169.679413,144.443726 170.569992,146.448563 
	C170.704681,146.751740 170.849167,147.053101 170.966583,147.363052 
	C174.522766,156.749893 174.615707,156.671585 183.732071,152.284576 
	C186.936737,150.742432 189.590012,147.698212 193.989868,148.264069 
	C196.413895,149.834671 197.396545,151.770187 196.900635,154.698761 
	C199.754181,160.595688 194.423431,161.379929 191.591965,163.958481 
z"/>
<path fill="#B5D9CD" opacity="1.000000" stroke="none" 
	d="
M140.431488,116.087029 
	C145.702713,127.454346 150.673935,138.887741 155.561462,150.356781 
	C158.798187,157.952042 161.914932,165.598419 165.101013,173.598648 
	C159.453537,175.088608 155.799057,172.277496 153.002533,167.387573 
	C153.623016,159.193970 149.534271,152.622391 147.178329,145.652374 
	C144.367508,137.336563 141.022446,129.201813 138.697952,120.712845 
	C138.179688,118.820190 137.694916,117.092072 140.431488,116.087029 
z"/>
<path fill="#A4CAC6" opacity="1.000000" stroke="none" 
	d="
M152.642685,167.002899 
	C156.387894,169.962433 160.274765,172.084930 164.780945,173.850037 
	C165.552551,174.731033 165.988464,175.486694 166.528229,176.556351 
	C162.051590,176.955017 157.574677,175.412689 152.509460,175.994980 
	C152.215607,173.205872 151.574738,170.531342 150.907990,167.452057 
	C151.346146,167.035110 151.817596,167.021927 152.642685,167.002899 
z"/>
<path fill="#B4C4D1" opacity="1.000000" stroke="none" 
	d="
M121.095642,196.894348 
	C121.961617,197.725189 122.430275,198.570999 122.911209,199.709900 
	C116.376022,200.017532 113.387085,195.151779 110.071442,190.325226 
	C112.100906,189.840240 113.278046,190.984802 114.450119,192.590302 
	C115.982613,194.689514 117.543945,197.034439 121.095642,196.894348 
z"/>
<path fill="#8AACBD" opacity="1.000000" stroke="none" 
	d="
M83.915009,144.301300 
	C84.298302,142.435623 85.245514,141.536453 86.747169,141.586182 
	C87.742867,141.619171 87.874771,142.597794 87.965645,143.450623 
	C89.095291,154.051529 94.116898,163.285370 98.179527,172.878006 
	C101.017349,179.578629 103.403198,186.470657 106.006271,193.660767 
	C105.514755,194.777985 104.770721,195.101151 103.512451,195.262817 
	C100.456291,194.843002 98.551018,193.443527 97.348969,190.604599 
	C97.700439,187.260971 96.232254,184.753799 95.279572,182.150558 
	C92.209778,173.762238 88.383263,165.680191 85.385635,157.245148 
	C83.883987,153.019638 83.823593,148.924957 83.915009,144.301300 
z"/>
<path fill="#71A8B5" opacity="1.000000" stroke="none" 
	d="
M83.686852,143.987762 
	C86.346916,158.469040 93.636330,171.268387 98.417168,184.954224 
	C98.933998,186.433731 100.709167,188.148178 98.275787,189.908020 
	C95.482948,191.014755 93.859138,190.052856 92.901840,187.381042 
	C94.300064,184.327560 92.408348,182.317932 91.546303,180.121262 
	C88.231087,171.673477 84.540489,163.391815 82.470139,154.461029 
	C81.757698,151.387817 83.617493,148.582443 82.170807,145.392578 
	C82.481575,144.721420 82.939598,144.383194 83.686852,143.987762 
z"/>
<path fill="#8FB8BC" opacity="1.000000" stroke="none" 
	d="
M123.582626,201.989746 
	C131.605316,199.338806 137.997986,194.428040 145.204575,190.260971 
	C145.654266,190.729126 145.780853,191.339844 145.942764,192.414917 
	C139.277985,197.850372 131.719696,201.396896 124.345795,205.916443 
	C123.140442,206.629456 122.186615,206.612183 120.874870,206.153900 
	C119.715927,205.418884 118.976654,204.775558 118.898865,203.362411 
	C120.190826,201.764664 121.744202,202.068604 123.582626,201.989746 
z"/>
<path fill="#99BFBA" opacity="1.000000" stroke="none" 
	d="
M118.702179,202.860779 
	C119.570572,203.532532 120.125793,204.053711 120.858513,204.800781 
	C121.092537,206.890488 119.699699,207.082397 118.389618,207.196487 
	C113.443756,207.627136 103.812607,201.219025 102.291992,196.516769 
	C102.083389,195.871674 102.270340,195.221161 102.820465,194.301147 
	C103.834541,194.003128 104.563133,194.011536 105.656662,194.032135 
	C109.588463,197.725891 113.826744,200.449234 118.702179,202.860779 
z"/>
<path fill="#403F3B" opacity="1.000000" stroke="none" 
	d="
M288.630493,121.031677 
	C287.576691,124.581314 283.945465,125.522537 281.055511,126.195328 
	C275.443085,127.501938 270.487183,129.652313 266.048279,133.235855 
	C265.461212,133.709808 264.516449,133.740753 263.371948,133.990417 
	C266.145782,128.289276 271.950043,126.525993 277.455841,124.431389 
	C280.973907,123.092979 284.645142,122.157082 288.630493,121.031677 
z"/>
<path fill="#483D3E" opacity="1.000000" stroke="none" 
	d="
M252.659790,139.068756 
	C251.362015,142.503510 247.906738,142.986511 244.386536,143.997726 
	C246.053467,141.155930 249.351593,140.428497 252.659790,139.068756 
z"/>
<path fill="#403F3B" opacity="1.000000" stroke="none" 
	d="
M260.681580,135.056458 
	C260.654999,136.870407 259.246460,137.005722 257.394775,137.015900 
	C257.872589,135.919708 259.058655,135.413940 260.681580,135.056458 
z"/>
<path fill="#483D3E" opacity="1.000000" stroke="none" 
	d="
M243.707581,144.079010 
	C243.858536,144.874451 243.499146,145.574631 242.298523,145.928253 
	C242.142181,145.130325 242.497482,144.426483 243.707581,144.079010 
z"/>
<path fill="#282928" opacity="1.000000" stroke="none" 
	d="
M241.255188,132.631287 
	C239.840698,136.990417 233.054489,140.921127 228.389252,140.005737 
	C227.309113,139.921143 226.667892,139.627884 225.807785,138.959030 
	C220.466125,133.780212 216.940155,127.512909 211.499359,122.699074 
	C212.238647,127.620979 214.192627,132.118164 216.440704,136.892014 
	C217.217834,139.228912 218.863358,140.999115 217.931000,143.708405 
	C219.313721,147.081345 218.257614,149.055588 215.231293,150.084824 
	C212.341553,151.067596 210.511429,154.823059 206.400879,153.152832 
	C205.018570,151.945740 203.717514,151.136566 202.869629,149.400452 
	C196.362640,134.315125 190.613068,119.317825 183.798676,104.769775 
	C182.138611,101.225655 179.957108,97.759209 180.284607,93.201134 
	C179.089188,89.570915 180.587051,87.868011 183.428925,86.297066 
	C187.001587,84.322136 190.864410,82.745918 193.989349,79.535332 
	C198.086929,79.192337 201.094055,75.530182 205.640015,75.990570 
	C208.500320,76.197479 210.944031,76.719742 213.476654,78.193497 
	C216.906006,78.073036 218.695038,80.129066 220.211594,82.246925 
	C223.921448,87.427742 226.168915,93.147842 225.705856,100.042450 
	C222.838623,108.217911 226.350784,114.111465 231.703705,119.756241 
	C235.003647,124.167213 239.606567,127.149551 241.255188,132.631287 
z"/>
<path fill="#282929" opacity="1.000000" stroke="none" 
	d="
M261.045410,123.626213 
	C257.736542,125.678406 254.587341,127.350883 251.150055,129.256088 
	C249.410385,130.098038 248.340668,129.421127 247.127838,128.135574 
	C246.502014,126.883232 246.126892,125.934303 245.436539,124.721542 
	C238.102600,105.457596 229.181671,87.257660 221.907959,67.965012 
	C221.247940,66.645142 221.089127,65.637947 221.857666,64.323975 
	C224.543091,62.719097 227.226883,61.727772 229.302109,60.003883 
	C233.418839,56.584187 235.258087,58.270058 236.632782,62.797089 
	C239.421844,64.138046 240.231262,66.525246 241.242233,68.788956 
	C247.299179,82.351028 252.282791,96.373169 258.956207,110.085472 
	C259.614532,112.382973 260.643677,114.257774 259.879395,116.748894 
	C260.110321,119.199600 261.849579,120.949959 261.045410,123.626213 
z"/>
<path fill="#A4D5C4" opacity="1.000000" stroke="none" 
	d="
M257.836670,111.322800 
	C251.482742,99.702751 247.301544,87.426155 241.972092,75.648499 
	C240.201141,71.734863 238.603104,67.742989 236.905197,63.416317 
	C238.308182,62.288422 239.479523,61.306087 239.960815,59.328026 
	C240.763031,58.998569 241.508087,58.998943 242.625946,58.999428 
	C243.237595,58.889664 243.476425,58.779785 244.072723,58.836533 
	C247.522186,64.538528 247.495392,71.070656 250.307037,76.770935 
	C253.149780,82.534241 255.364761,88.625984 257.514435,94.703918 
	C259.027740,98.982689 261.381531,102.714592 264.305145,106.137062 
	C265.452515,107.480186 267.121735,108.608467 266.243225,111.134735 
	C263.417999,113.017006 260.822205,113.105232 257.836670,111.322800 
z"/>
<path fill="#A7D6C6" opacity="1.000000" stroke="none" 
	d="
M246.736450,123.793884 
	C247.449219,124.783302 247.860428,125.563263 248.281418,126.680435 
	C241.723465,130.869125 235.477386,127.421585 233.098450,118.339104 
	C232.730637,117.480728 232.571930,116.982819 232.465240,116.098022 
	C232.488831,113.590706 231.892380,111.671097 230.239609,109.778320 
	C228.626007,106.570396 226.912521,103.845322 224.401703,101.238953 
	C224.062134,92.153351 221.334091,84.510666 214.014343,78.585846 
	C216.649597,76.359848 217.210922,73.274719 217.998627,70.235565 
	C218.590271,67.952858 218.410660,65.125526 221.767212,64.089493 
	C221.880737,64.953392 221.966858,65.763206 222.922272,66.652771 
	C222.656250,72.556282 223.979843,78.007050 226.123795,82.930458 
	C230.902054,93.903290 234.911377,105.214195 240.345093,115.895676 
	C241.837494,118.829407 243.337845,121.869858 246.736450,123.793884 
z"/>
<path fill="#99BFBA" opacity="1.000000" stroke="none" 
	d="
M294.036865,68.640274 
	C293.112854,72.324890 296.305695,77.048767 290.380676,78.934502 
	C288.811096,79.503166 288.074341,78.798157 287.190430,77.682037 
	C286.226410,74.712997 287.389618,72.066078 287.009277,69.425774 
	C286.344910,64.813972 284.953217,60.654530 279.850739,58.457439 
	C279.296143,57.762672 279.121674,57.284649 279.055542,56.369209 
	C279.795990,53.581997 281.360901,52.343842 284.266663,52.657906 
	C287.992767,54.465176 288.841766,57.783806 290.128357,60.843086 
	C291.002594,62.921818 290.895691,65.553261 293.653259,66.899155 
	C294.005280,67.424332 294.016663,67.866638 294.036865,68.640274 
z"/>
<path fill="#B9D3CF" opacity="1.000000" stroke="none" 
	d="
M292.238617,58.775631 
	C291.165466,58.255989 290.923798,57.416241 291.777679,56.207825 
	C292.827484,56.732296 293.091461,57.568836 292.238617,58.775631 
z"/>
<path fill="#77B287" opacity="1.000000" stroke="none" 
	d="
M123.535751,209.741974 
	C123.809578,211.077866 123.828125,212.149857 123.783348,213.620499 
	C118.889313,214.050476 114.362946,216.617828 109.455551,215.839798 
	C101.681480,214.607239 95.307159,210.919601 91.156433,204.155853 
	C86.912674,197.240509 82.381882,190.361801 81.981392,181.408508 
	C83.418053,181.628860 84.863213,182.270981 86.639786,182.979538 
	C87.968201,184.908875 90.110100,185.234711 91.787064,186.713013 
	C92.775780,188.205673 93.798943,189.414291 94.313118,190.699905 
	C99.085464,202.632370 107.497139,208.919571 120.632545,208.276733 
	C121.605438,208.229111 122.555588,208.726959 123.535751,209.741974 
z"/>
<path fill="#88AC8A" opacity="1.000000" stroke="none" 
	d="
M123.854477,209.617737 
	C118.771431,210.498367 113.859100,209.416336 108.922943,208.872559 
	C105.695671,208.517029 102.974449,206.762924 100.831558,204.307877 
	C96.578674,199.435486 92.889282,194.240448 91.963371,187.278717 
	C92.001892,186.952881 92.500893,186.981369 92.750710,186.987122 
	C94.456512,187.902542 95.912491,188.812210 97.665321,189.853699 
	C98.985100,191.822403 101.049431,192.393433 102.800949,193.855072 
	C105.039162,199.920135 113.787102,205.698242 120.758713,205.249054 
	C121.844292,205.297760 122.652580,205.568848 123.757187,205.969055 
	C124.008316,207.141968 123.963120,208.185760 123.854477,209.617737 
z"/>
<path fill="#B9D3CF" opacity="1.000000" stroke="none" 
	d="
M179.978806,92.967247 
	C186.758835,105.316162 191.795120,118.387695 197.250153,131.275375 
	C199.629303,136.896240 202.005020,142.518570 204.513916,148.503815 
	C200.634918,150.787689 198.046707,150.104248 195.578415,145.345901 
	C191.386444,137.264755 186.221512,129.652420 183.556808,120.801735 
	C182.454865,117.141632 180.759583,113.694344 178.906174,110.332306 
	C177.958801,108.613808 176.779861,106.867950 177.806793,104.352051 
	C178.722977,100.394638 176.343002,96.335884 179.978806,92.967247 
z"/>
<path fill="#A4CAC6" opacity="1.000000" stroke="none" 
	d="
M177.624603,103.998245 
	C184.100830,117.668785 189.106644,131.853928 197.204361,144.604187 
	C198.865540,147.219788 200.631927,148.967438 204.231079,148.883423 
	C205.440552,149.885208 206.042908,150.982422 206.089325,152.636551 
	C203.274506,153.614563 200.437302,154.273880 197.204407,155.002686 
	C195.936096,153.301056 195.063492,151.529953 194.073639,149.444916 
	C192.760529,147.865311 191.587372,146.583786 190.832489,144.559341 
	C186.951050,136.143738 183.492783,127.962730 180.302185,119.652870 
	C178.601212,115.222725 176.261169,110.955322 171.901474,107.916031 
	C173.041931,106.782333 174.625931,106.443703 175.003387,104.350700 
	C175.809280,103.995148 176.535507,103.996941 177.624603,103.998245 
z"/>
<path fill="#282929" opacity="1.000000" stroke="none" 
	d="
M284.777924,52.492393 
	C283.205872,53.704781 281.785919,54.555119 280.158630,55.640663 
	C278.737793,58.080418 277.444824,60.194382 274.244171,60.516174 
	C272.888702,60.120449 272.235901,59.399036 271.559540,58.213234 
	C270.595734,55.735046 269.290405,53.801319 266.764526,54.573158 
	C264.272369,55.334705 263.396332,57.483387 264.255493,60.409729 
	C264.933899,61.753967 265.003265,62.931847 265.540405,64.330681 
	C268.475891,70.467529 271.076996,76.368225 273.509094,82.729919 
	C274.174133,85.149017 275.704773,86.779297 276.364502,89.190216 
	C276.684113,90.889717 277.595612,91.905067 278.259064,93.041550 
	C279.220947,94.689346 280.418213,96.311295 282.577423,95.296127 
	C284.396362,94.440933 284.966003,92.599777 284.710510,90.646126 
	C284.475464,88.848846 283.669189,87.140190 283.914856,84.905884 
	C285.246033,81.795685 287.363922,80.719124 290.693420,81.156174 
	C297.881958,78.244064 297.881958,78.244064 300.022003,87.642288 
	C300.065094,89.686981 299.930969,91.396706 299.790283,93.535004 
	C301.264709,98.023682 299.073578,100.802414 296.187622,103.687202 
	C295.898163,103.934731 295.968201,103.960175 295.962494,103.923370 
	C295.573761,104.421074 294.980133,104.619072 294.099792,104.852867 
	C291.054962,106.665459 288.320343,108.479790 285.560883,110.617935 
	C282.369049,112.077820 279.145081,112.932343 275.302856,112.842941 
	C274.024292,112.480293 273.248566,112.073608 272.102783,111.477020 
	C266.065979,108.713760 262.900909,104.316895 260.975128,98.367081 
	C258.264038,89.990883 254.668869,81.889069 250.687836,74.030945 
	C247.214767,67.175438 246.031250,60.247467 248.093140,52.443771 
	C248.328308,51.838398 248.417267,51.595028 248.619934,50.980186 
	C248.903625,50.121170 249.119019,49.654629 249.576782,48.882858 
	C253.179779,43.920040 257.617462,40.721760 263.177856,39.360413 
	C268.405060,38.140835 273.463745,37.663994 278.501862,41.247238 
	C281.895386,44.398190 285.131592,47.287544 284.777924,52.492393 
z"/>
<path fill="#A7D6C6" opacity="1.000000" stroke="none" 
	d="
M263.067200,39.397228 
	C258.590332,42.127319 254.557327,45.298561 251.122070,49.698830 
	C250.727875,50.240116 250.496613,50.490963 250.189545,50.989830 
	C250.107712,51.232285 250.117264,51.121655 250.171204,51.134869 
	C248.645584,51.965164 247.938889,53.382286 247.596725,55.029121 
	C247.220795,56.838394 246.604263,58.464443 244.349335,59.104385 
	C243.998352,59.002037 243.498581,59.000984 243.248688,59.000263 
	C244.425964,49.300686 249.240234,42.440060 259.065613,39.723446 
	C259.651611,39.561420 260.118225,38.967739 260.833984,38.272682 
	C261.648041,38.336670 262.268555,38.702900 263.067200,39.397228 
z"/>
<path fill="#8ACDC2" opacity="1.000000" stroke="none" 
	d="
M243.000458,46.381706 
	C243.001114,46.009819 243.026428,45.576054 243.050293,45.361237 
	C243.544693,44.846375 244.015228,44.546326 244.738434,44.129059 
	C246.499741,46.177830 244.716736,47.327190 243.274719,48.826080 
	C242.997513,48.240746 242.998657,47.497169 243.000458,46.381706 
z"/>
<path fill="#98CDC1" opacity="1.000000" stroke="none" 
	d="
M275.324524,90.263214 
	C274.097870,88.233055 273.192383,86.458488 272.244446,84.355026 
	C275.982117,81.436470 280.439178,79.850616 283.954041,76.177795 
	C285.396484,75.722168 286.422150,75.828529 287.680939,76.737190 
	C288.496857,77.566956 288.994934,78.144714 289.748352,78.861313 
	C290.208496,79.547829 290.413361,80.095497 290.841003,80.840240 
	C289.284760,82.212906 287.505646,83.388512 285.479919,84.757217 
	C282.594360,87.765442 281.175995,92.681984 275.324524,90.263214 
z"/>
<path fill="#85C3B2" opacity="1.000000" stroke="none" 
	d="
M296.257263,103.950699 
	C297.043121,100.789909 298.188110,97.645088 299.558380,94.231926 
	C303.296783,94.294838 306.904022,93.336357 310.720062,94.921890 
	C306.272644,98.062195 301.444519,101.014435 296.257263,103.950699 
z"/>
<path fill="#98CDC1" opacity="1.000000" stroke="none" 
	d="
M273.723816,110.874191 
	C277.565186,111.455345 281.060120,111.592316 285.042267,110.863205 
	C283.042236,113.393257 279.694763,114.288658 276.355774,115.928879 
	C270.774689,114.483742 265.579010,114.131058 260.162537,116.952065 
	C258.440247,115.651611 258.217377,113.706902 257.534790,111.560349 
	C260.031372,110.849228 262.607330,109.988632 265.624817,110.972595 
	C267.126312,109.803665 268.426758,109.297615 270.374512,109.967987 
	C271.629028,110.266022 272.434906,110.799011 273.723816,110.874191 
z"/>
<path fill="#85C3B2" opacity="1.000000" stroke="none" 
	d="
M293.978271,105.036972 
	C294.312531,104.412155 294.835541,103.973183 295.657654,103.710388 
	C295.728455,104.825203 295.394073,105.621857 293.978271,105.036972 
z"/>
<path fill="#98CDC1" opacity="1.000000" stroke="none" 
	d="
M233.608780,116.886154 
	C235.691589,124.055382 240.114197,127.460243 247.849915,127.017517 
	C248.950668,127.779533 249.610138,128.541412 250.565796,129.396057 
	C250.900894,129.819901 250.939804,130.150986 250.980621,130.732864 
	C250.210312,131.309769 249.438080,131.635864 248.354050,132.018768 
	C245.587112,129.585342 244.018677,133.439636 241.485962,132.955338 
	C237.824554,129.205475 234.519226,125.442345 231.092834,121.368607 
	C230.295944,118.878143 230.976135,117.411102 233.608780,116.886154 
z"/>
<path fill="#98CDC1" opacity="1.000000" stroke="none" 
	d="
M226.216339,137.714722 
	C227.029282,138.405258 227.438477,138.844788 227.958572,139.566376 
	C225.942627,143.580154 221.534927,142.028732 218.230194,143.993561 
	C216.961975,142.254944 216.081024,140.451859 215.209473,138.309784 
	C218.587479,134.403992 222.216324,136.274460 226.216339,137.714722 
z"/>
<path fill="#84B9BA" opacity="1.000000" stroke="none" 
	d="
M187.048676,167.009857 
	C187.337372,166.460190 187.762054,166.140411 188.454590,165.759033 
	C188.774200,165.912155 188.825943,166.126846 188.934265,166.667877 
	C188.708252,167.137405 188.462418,167.328003 188.115509,167.754822 
	C187.713333,167.709015 187.448990,167.474365 187.048676,167.009857 
z"/>
<path fill="#B5D9CD" opacity="1.000000" stroke="none" 
	d="
M116.120880,147.264771 
	C114.870438,144.766449 111.439568,142.619873 115.314880,140.006790 
	C119.530380,137.164337 122.698021,137.474655 124.898125,141.811905 
	C130.150314,152.166046 134.490936,162.951035 138.395340,173.881622 
	C139.765289,177.716888 136.475677,182.627029 132.651855,183.714951 
	C131.293793,184.101318 130.837097,183.489014 130.437317,182.499344 
	C129.818314,180.966980 129.227295,179.423325 128.542694,177.508209 
	C130.946121,173.620255 130.857864,170.086594 128.574127,166.518585 
	C124.511368,160.171066 122.568123,152.468948 116.120880,147.264771 
z"/>
<path fill="#A7D6C6" opacity="1.000000" stroke="none" 
	d="
M115.898544,147.431717 
	C118.409454,146.722687 120.323395,147.504578 121.609764,149.927597 
	C125.033035,156.375732 128.727310,162.684631 131.996597,169.207886 
	C133.595444,172.398102 132.833511,175.344101 128.850174,177.061676 
	C124.291420,167.355576 120.121864,157.579193 115.898544,147.431717 
z"/>
<path fill="#85C3B2" opacity="1.000000" stroke="none" 
	d="
M174.828079,140.383224 
	C179.479706,136.226074 179.158813,132.349274 173.388809,126.221573 
	C169.983856,122.745995 166.270309,119.690834 166.746368,113.993469 
	C167.393463,112.133316 168.487762,111.299835 170.337051,110.754288 
	C173.524170,110.226486 175.753769,111.346237 177.132721,113.592911 
	C182.170685,121.801109 184.449417,131.220856 188.427811,139.902878 
	C188.837738,140.797470 188.515244,141.867569 188.264954,143.282959 
	C186.230560,147.561050 182.965775,148.499390 179.139145,147.415878 
	C176.002930,146.527863 174.161026,144.410385 174.828079,140.383224 
z"/>
<path fill="#99BFBA" opacity="1.000000" stroke="none" 
	d="
M187.234863,143.299713 
	C183.853333,133.112473 181.245056,123.002998 175.455673,114.175262 
	C174.595978,112.864418 173.372696,112.047264 171.365417,112.002480 
	C170.373672,111.246796 169.349197,111.089798 168.583160,110.064835 
	C169.414673,109.029732 170.350082,108.333481 171.565552,107.589630 
	C178.496323,108.010689 179.295532,113.949646 181.344086,118.290291 
	C185.199875,126.460182 188.410980,134.934326 191.952942,143.643738 
	C191.689468,144.395813 191.280411,144.663757 190.427658,144.871658 
	C189.002350,144.844055 188.133850,144.408020 187.234863,143.299713 
z"/>
<path fill="#A4D5C4" opacity="1.000000" stroke="none" 
	d="
M189.702789,144.158615 
	C190.468811,144.027008 190.910614,144.019348 191.684082,144.008606 
	C193.313446,145.186249 193.919403,146.671646 193.955627,148.769638 
	C187.792526,150.393707 183.353424,154.896469 178.023270,157.726425 
	C175.154343,159.249634 173.856262,159.091049 172.800247,155.903122 
	C171.821548,152.948608 170.509705,150.061615 168.995834,147.338776 
	C167.341080,144.362488 168.330429,142.777679 171.532166,141.610901 
	C172.313187,141.735458 172.710236,142.064346 172.896561,142.524719 
	C173.861771,144.909729 172.865524,148.665222 177.022217,148.838959 
	C181.163483,149.012024 185.357880,149.067566 188.309052,145.307297 
	C188.616501,144.915573 188.975662,144.575714 189.702789,144.158615 
z"/>
<path fill="#94D2B9" opacity="1.000000" stroke="none" 
	d="
M168.143967,109.775436 
	C169.418839,109.998909 170.358521,110.271713 170.893433,111.641022 
	C169.891220,112.091187 168.950256,112.496017 168.164902,113.744606 
	C167.301620,114.717697 166.588165,115.398048 166.012848,116.221634 
	C163.203430,120.243309 163.305145,120.999977 167.176590,123.800262 
	C168.374161,124.666481 169.784348,125.271667 170.630798,126.970581 
	C163.216003,133.075089 163.216003,133.075089 159.783813,125.067192 
	C156.168274,116.631470 156.168304,116.631554 164.399170,111.820435 
	C165.536057,111.155907 166.672195,110.490105 168.143967,109.775436 
z"/>
<path fill="#94D2B9" opacity="1.000000" stroke="none" 
	d="
M189.790833,143.802765 
	C189.409271,149.196854 184.161743,151.896591 176.534195,150.976440 
	C171.888168,150.415955 170.885544,148.541733 171.892822,141.900467 
	C172.685226,140.998230 173.490311,140.519516 174.573608,139.981781 
	C178.349030,147.017700 181.565567,148.028000 186.829254,143.311157 
	C187.863556,143.188110 188.709122,143.379486 189.790833,143.802765 
z"/>
<path fill="#87CFB6" opacity="1.000000" stroke="none" 
	d="
M170.964661,127.291748 
	C169.032135,126.587860 167.284775,126.013382 165.730118,125.108009 
	C163.746414,123.952766 161.015549,122.645462 161.581635,120.085304 
	C162.192551,117.322357 163.606262,114.371147 167.638947,114.028336 
	C167.771545,116.332436 168.463760,118.258888 170.272095,119.791847 
	C171.979782,121.239487 173.244049,122.948128 173.037720,125.759796 
	C172.447906,126.525986 171.841690,126.900070 170.964661,127.291748 
z"/>
<path fill="#B5D9CD" opacity="1.000000" stroke="none" 
	d="
M198.723221,99.441711 
	C197.663727,96.319855 194.242493,93.388351 199.726288,91.282074 
	C204.094345,89.604332 207.255081,90.485359 209.444489,94.868591 
	C212.493942,100.973587 211.193741,105.591202 205.948868,108.926262 
	C203.644272,110.391670 202.795731,109.667435 201.995148,107.593147 
	C200.985779,104.977905 199.914749,102.386482 198.723221,99.441711 
z"/>
<path fill="#B5D9CD" opacity="1.000000" stroke="none" 
	d="
M226.489731,137.671051 
	C223.113846,137.970001 219.607620,137.974274 215.660126,137.974670 
	C213.241684,133.447464 211.174698,128.960175 209.336624,124.380974 
	C208.705475,122.808556 206.697632,120.879814 209.659500,119.403458 
	C212.121689,118.176178 212.837708,120.317940 213.886246,121.623306 
	C218.080566,126.844925 222.207504,132.120651 226.489731,137.671051 
z"/>
<path fill="#94D2B9" opacity="1.000000" stroke="none" 
	d="
M233.993286,116.669876 
	C232.494812,117.697647 231.945984,119.142204 231.110184,120.763596 
	C230.288483,120.346359 229.644119,119.591850 228.915619,118.929970 
	C223.727905,114.216629 220.288193,109.011520 224.062988,101.361008 
	C228.854721,101.147705 230.054596,104.529686 230.944336,108.622177 
	C232.387817,110.581284 232.515198,112.746025 233.760071,114.754990 
	C233.993332,115.448311 233.994278,115.892502 233.993286,116.669876 
z"/>
<path fill="#B5D9CD" opacity="1.000000" stroke="none" 
	d="
M247.003906,123.633026 
	C243.085312,124.198242 240.805222,121.680954 239.449860,118.587662 
	C232.964081,103.785286 225.526749,89.358513 221.364227,73.616096 
	C220.757874,71.322853 221.130737,69.374435 222.840759,67.286255 
	C227.028519,76.179642 231.095413,85.370522 235.028427,94.618355 
	C239.076874,104.137566 242.994781,113.712288 247.003906,123.633026 
z"/>
<path fill="#B5D9CD" opacity="1.000000" stroke="none" 
	d="
M272.193054,110.725342 
	C270.281982,110.978439 268.572418,110.985611 266.436005,110.987488 
	C253.927155,98.249878 250.434357,81.478569 244.724014,65.747833 
	C244.026825,63.827259 243.971756,61.855293 243.999634,59.430851 
	C246.170731,56.628452 245.630997,52.350136 249.862625,51.158134 
	C248.410599,57.157257 248.441910,63.101685 250.769836,68.992935 
	C255.189011,80.176476 260.960632,90.793015 264.484985,102.366028 
	C265.506989,105.721992 268.619293,107.716499 271.857422,109.666687 
	C272.142029,110.138916 272.268311,110.309166 272.193054,110.725342 
z"/>
<path fill="#98CDC1" opacity="1.000000" stroke="none" 
	d="
M233.981018,114.629639 
	C231.334381,114.190041 231.548050,111.759293 231.017197,109.365822 
	C233.660950,109.806419 233.452194,112.235268 233.981018,114.629639 
z"/>
<path fill="#80CBB4" opacity="1.000000" stroke="none" 
	d="
M284.068085,76.664337 
	C281.788330,81.615005 278.487946,84.532890 272.606018,84.019081 
	C269.525055,77.919792 266.848114,71.813454 264.123962,65.351387 
	C265.946259,60.980251 268.829529,58.749668 273.861267,59.777237 
	C275.741455,58.374634 277.318115,56.932117 279.631836,55.957012 
	C279.964050,56.355499 279.976807,56.835129 279.999512,57.674461 
	C281.071075,59.517750 281.436432,61.103336 280.529144,63.155636 
	C279.445282,64.484528 278.235657,65.045433 277.029236,65.545578 
	C273.619659,66.959091 273.593964,69.689507 274.417694,72.547699 
	C275.340271,75.748856 277.657562,75.138557 279.977081,74.234711 
	C280.755310,73.931465 281.588654,73.956711 282.736725,74.294510 
	C283.681885,74.908630 283.997406,75.544197 284.068085,76.664337 
z"/>
<path fill="#84B9BA" opacity="1.000000" stroke="none" 
	d="
M280.023315,63.325035 
	C279.927643,61.528542 278.793152,60.131027 279.876129,58.324860 
	C282.859619,56.721848 284.590546,57.838757 285.990112,60.447281 
	C288.680328,65.461266 290.124268,70.567986 288.069092,76.586800 
	C286.940887,76.998627 285.882996,77.008057 284.429565,77.024467 
	C283.716034,76.552010 283.398071,76.072571 283.034729,75.302254 
	C282.708466,71.048615 282.581268,67.046135 280.023315,63.325035 
z"/>
<path fill="#B1DDCA" opacity="1.000000" stroke="none" 
	d="
M275.022095,90.369324 
	C279.540131,90.983528 281.009735,86.072571 284.870667,85.002869 
	C285.725159,86.332741 286.362305,87.682671 286.680328,89.103989 
	C287.462402,92.599167 287.064850,95.855576 283.355499,97.444344 
	C279.479614,99.104439 277.574280,96.606827 276.197571,93.458618 
	C275.801910,92.553825 275.425903,91.640465 275.022095,90.369324 
z"/>
<path fill="#A4D5C4" opacity="1.000000" stroke="none" 
	d="
M263.089508,61.274235 
	C261.122894,57.413120 261.695038,54.167774 265.503754,52.431320 
	C269.220978,50.736584 271.269562,53.212200 272.781189,56.641006 
	C270.335754,59.803219 266.960449,60.767773 263.089508,61.274235 
z"/>
<path fill="#94D2B9" opacity="1.000000" stroke="none" 
	d="
M262.758667,61.467606 
	C265.445251,58.825012 268.564758,57.469978 272.459595,57.006599 
	C273.222961,57.755741 273.610657,58.525669 274.115234,59.600605 
	C270.599701,60.655388 267.709167,62.819984 264.418365,64.934189 
	C263.644135,63.934906 263.211578,62.874153 262.758667,61.467606 
z"/>
<path fill="#A4D5C4" opacity="1.000000" stroke="none" 
	d="
M272.166138,111.166595 
	C271.991730,110.804077 271.991913,110.636871 272.003906,110.219162 
	C272.566620,110.126183 273.117493,110.283714 273.867737,110.649185 
	C273.618347,111.458710 273.111420,111.861259 272.166138,111.166595 
z"/>
<path fill="#B5D9CD" opacity="1.000000" stroke="none" 
	d="
M250.374634,51.122925 
	C250.261368,50.928482 250.415039,50.624683 250.767426,50.158333 
	C250.857941,50.335041 250.749741,50.674305 250.374634,51.122925 
z"/>
<path fill="#74C0AF" opacity="1.000000" stroke="none" 
	d="
M279.605804,63.005432 
	C284.906677,65.731514 286.013428,69.479988 283.171600,74.695343 
	C282.495911,75.059204 281.936371,74.971588 281.519073,75.175316 
	C275.904694,77.916374 273.989594,77.650505 272.514648,73.862167 
	C270.455261,68.572723 272.232025,64.965797 277.754333,63.263828 
	C278.223419,63.119259 278.731445,63.101055 279.605804,63.005432 
z"/>
</svg>