<?xml version="1.0" encoding="UTF-8"?>
<!DOCTYPE svg PUBLIC "-//W3C//DTD SVG 1.1//EN" "http://www.w3.org/Graphics/SVG/1.1/DTD/svg11.dtd">
<svg xmlns="http://www.w3.org/2000/svg" version="1.1" width="7000px" height="2076px" style="shape-rendering:geometricPrecision; text-rendering:geometricPrecision; image-rendering:optimizeQuality; fill-rule:evenodd; clip-rule:evenodd" xmlns:xlink="http://www.w3.org/1999/xlink">
<g><path style="opacity:0.262" fill="#d86c1b" d="M 5806.5,653.5 C 5812.84,655.048 5812.51,655.881 5805.5,656C 5806.25,655.329 5806.59,654.496 5806.5,653.5 Z"/></g>
<g><path style="opacity:0.998" fill="#d56b1b" d="M 2382.5,722.5 C 2382.12,724.942 2382.79,725.609 2384.5,724.5C 2385.52,727.028 2386.68,727.028 2388,724.5C 2388.23,725.737 2388.73,726.737 2389.5,727.5C 2392.88,728.179 2396.38,729.513 2400,731.5C 2401.96,730.116 2402.96,730.783 2403,733.5C 2404.53,733.888 2406.19,733.888 2408,733.5C 2409.34,735.004 2411,736.004 2413,736.5C 2416.39,735.88 2418.06,737.547 2418,741.5C 2419.78,740.76 2421.62,740.093 2423.5,739.5C 2424.71,740.274 2424.71,741.107 2423.5,742C 2425.06,742.318 2426.23,743.151 2427,744.5C 2428.23,742.053 2429.73,741.887 2431.5,744C 2430.5,744.333 2429.5,744.667 2428.5,745C 2432.26,744.806 2435.43,745.973 2438,748.5C 2439.05,747.483 2440.22,747.316 2441.5,748C 2442.3,749.771 2443.47,751.271 2445,752.5C 2446.91,749.668 2447.74,750.001 2447.5,753.5C 2450.6,753.092 2452.93,754.259 2454.5,757C 2457.12,757.822 2459.78,758.322 2462.5,758.5C 2462.5,759.5 2462.5,760.5 2462.5,761.5C 2466.39,763.297 2470.39,764.797 2474.5,766C 2473.54,767.147 2473.88,768.147 2475.5,769C 2478.22,771.025 2481.22,772.525 2484.5,773.5C 2485.81,775.518 2485.15,776.685 2482.5,777C 2483.62,777.249 2484.62,777.749 2485.5,778.5C 2486.27,780.396 2487.27,782.063 2488.5,783.5C 2493.91,789.566 2500.24,794.566 2507.5,798.5C 2508.06,802.064 2510.06,804.397 2513.5,805.5C 2514.17,806.833 2514.83,808.167 2515.5,809.5C 2516.85,807.816 2518.52,807.316 2520.5,808C 2519.98,808.561 2519.64,809.228 2519.5,810C 2521.21,811.509 2522.87,813.009 2524.5,814.5C 2527.16,816.598 2529.49,819.098 2531.5,822C 2533.09,822.862 2534.75,823.529 2536.5,824C 2535.36,824.741 2535.36,825.575 2536.5,826.5C 2539.76,827.928 2542.59,829.928 2545,832.5C 2545.33,831.833 2545.67,831.167 2546,830.5C 2547.1,831.967 2548.6,832.801 2550.5,833C 2549.55,833.718 2549.38,834.551 2550,835.5C 2553.7,837.763 2556.87,840.096 2559.5,842.5C 2560.9,844.605 2562.4,846.605 2564,848.5C 2565.16,847.007 2565.99,847.174 2566.5,849C 2566.09,849.945 2565.43,850.612 2564.5,851C 2565.57,851.739 2566.24,852.739 2566.5,854C 2566.52,856.242 2566.18,858.576 2565.5,861C 2565.76,862.261 2566.43,863.261 2567.5,864C 2565.98,867.392 2564.32,870.725 2562.5,874C 2563.13,874.75 2563.63,875.584 2564,876.5C 2564.67,875.167 2565.33,875.167 2566,876.5C 2566.48,877.448 2566.65,878.448 2566.5,879.5C 2564.55,879.193 2562.89,879.193 2561.5,879.5C 2562.12,881.711 2563.12,883.711 2564.5,885.5C 2564.02,886.478 2563.36,887.311 2562.5,888C 2564.9,890.494 2564.9,892.827 2562.5,895C 2564.06,895.941 2565.39,897.108 2566.5,898.5C 2565.97,899.192 2565.31,899.692 2564.5,900C 2565.31,900.308 2565.97,900.808 2566.5,901.5C 2564.57,902.068 2563.23,903.235 2562.5,905C 2563.54,906.953 2563.54,908.953 2562.5,911C 2562.38,913.737 2563.38,914.571 2565.5,913.5C 2566.39,914.325 2566.72,915.325 2566.5,916.5C 2565.18,916.67 2564.01,916.337 2563,915.5C 2562.11,920.346 2563.95,923.679 2568.5,925.5C 2563.97,927.782 2563.64,930.782 2567.5,934.5C 2566.4,934.998 2565.4,935.331 2564.5,935.5C 2565.8,938.463 2567.8,940.796 2570.5,942.5C 2569.62,943.971 2568.29,944.804 2566.5,945C 2569.9,948.197 2572.57,951.697 2574.5,955.5C 2575.79,955.737 2576.79,955.404 2577.5,954.5C 2579.99,954.84 2582.16,955.84 2584,957.5C 2585.23,957.355 2586.39,957.022 2587.5,956.5C 2591.04,958.676 2594.87,960.01 2599,960.5C 2600.68,959.939 2602.01,958.939 2603,957.5C 2605.28,958.719 2607.62,958.719 2610,957.5C 2611.75,959.002 2613.75,960.002 2616,960.5C 2617.86,959.264 2619.69,959.264 2621.5,960.5C 2621.83,960.333 2622.17,960.167 2622.5,960C 2620.22,958.637 2620.05,957.137 2622,955.5C 2622.5,956 2623,956.5 2623.5,957C 2627.09,958.109 2630.59,958.609 2634,958.5C 2634.2,956.714 2635.03,955.381 2636.5,954.5C 2637.05,956.413 2637.22,958.413 2637,960.5C 2637.96,958.193 2639.46,956.193 2641.5,954.5C 2642.86,955.198 2644.03,955.198 2645,954.5C 2646.78,957.276 2647.78,956.943 2648,953.5C 2652.1,954.656 2652.27,955.823 2648.5,957C 2649,957.5 2649.5,958 2650,958.5C 2651.71,957.692 2652.54,956.359 2652.5,954.5C 2657.33,954.278 2661.83,952.945 2666,950.5C 2666.31,951.308 2666.81,951.975 2667.5,952.5C 2669.32,951.253 2671.32,950.586 2673.5,950.5C 2674.9,950.795 2676.4,951.129 2678,951.5C 2679.17,950.107 2680.67,949.273 2682.5,949C 2680.34,948.755 2678.67,947.755 2677.5,946C 2678.33,945.833 2679.17,945.667 2680,945.5C 2681.54,946.114 2682.87,946.114 2684,945.5C 2684.94,947.061 2686.11,948.395 2687.5,949.5C 2688.52,949.145 2689.19,948.478 2689.5,947.5C 2691.25,947.593 2693.08,947.926 2695,948.5C 2695.72,947.956 2696.22,947.289 2696.5,946.5C 2698.65,946.905 2700.65,947.405 2702.5,948C 2703.69,946.088 2704.69,944.088 2705.5,942C 2707.05,941.667 2708.38,942.167 2709.5,943.5C 2710.66,941.322 2711.99,939.322 2713.5,937.5C 2715.61,938.034 2717.45,939.034 2719,940.5C 2719.51,941.996 2719.01,943.163 2717.5,944C 2719.98,944.677 2721.81,943.844 2723,941.5C 2724.02,942.634 2724.68,942.301 2725,940.5C 2725.41,940.957 2725.91,941.291 2726.5,941.5C 2727.52,939.163 2729.18,937.496 2731.5,936.5C 2734.25,937.535 2737.09,939.201 2740,941.5C 2740.31,940.692 2740.81,940.025 2741.5,939.5C 2742.86,941.028 2744.03,942.695 2745,944.5C 2745.91,943.672 2746.58,942.672 2747,941.5C 2747.78,942.728 2748.78,943.728 2750,944.5C 2751.47,943.67 2752.97,943.504 2754.5,944C 2755.64,944.741 2755.64,945.575 2754.5,946.5C 2755.27,947.711 2756.11,947.711 2757,946.5C 2757.48,947.448 2757.65,948.448 2757.5,949.5C 2758.82,949.67 2759.99,949.337 2761,948.5C 2761.09,951.849 2762.26,952.349 2764.5,950C 2761.95,948.484 2762.28,947.651 2765.5,947.5C 2765.33,952.041 2766,952.374 2767.5,948.5C 2767.83,948.833 2768.17,949.167 2768.5,949.5C 2766.34,956.184 2768.34,957.184 2774.5,952.5C 2774.76,954.498 2776.1,956.165 2778.5,957.5C 2778.91,959.772 2780.08,960.105 2782,958.5C 2784.61,960.822 2787.44,961.655 2790.5,961C 2793.17,962 2793.17,963 2790.5,964C 2794.14,964.393 2797.81,965.06 2801.5,966C 2804.08,968.207 2806.91,970.04 2810,971.5C 2816.15,970.767 2822.31,972.1 2828.5,975.5C 2829.17,975.167 2829.83,974.833 2830.5,974.5C 2833.31,975.97 2836.31,976.803 2839.5,977C 2841.66,977.914 2843.66,979.081 2845.5,980.5C 2853.21,992.26 2860.38,1003.93 2867,1015.5C 2868.81,1017.32 2870.97,1018.49 2873.5,1019C 2873.17,1019.33 2872.83,1019.67 2872.5,1020C 2874.32,1021.74 2876.32,1023.24 2878.5,1024.5C 2879.71,1025.72 2879.71,1026.89 2878.5,1028C 2881.02,1030.19 2883.19,1032.69 2885,1035.5C 2885.33,1035.17 2885.67,1034.83 2886,1034.5C 2887.17,1035.89 2888.67,1036.73 2890.5,1037C 2892.71,1038.68 2894.21,1040.85 2895,1043.5C 2897.66,1044.82 2900,1047.16 2902,1050.5C 2906.6,1055.73 2912.1,1056.56 2918.5,1053C 2914.3,1049.96 2910.63,1046.46 2907.5,1042.5C 2908.25,1039.22 2908.75,1035.89 2909,1032.5C 2909.33,1033.17 2909.67,1033.83 2910,1034.5C 2913.29,1032.7 2916.13,1030.37 2918.5,1027.5C 2919.83,1025.83 2919.83,1024.17 2918.5,1022.5C 2923.27,1021.16 2927.77,1021.82 2932,1024.5C 2932.93,1018.64 2935.43,1013.64 2939.5,1009.5C 2941.23,1011.23 2942.56,1013.23 2943.5,1015.5C 2943.09,1019.48 2943.09,1023.31 2943.5,1027C 2946.12,1029.32 2949.12,1031.15 2952.5,1032.5C 2956.33,1026.19 2958.67,1019.35 2959.5,1012C 2959.85,1010.74 2960.52,1010.41 2961.5,1011C 2962.17,1012.33 2962.83,1013.67 2963.5,1015C 2962.61,1020.46 2962.27,1025.79 2962.5,1031C 2964.33,1031.93 2964.67,1033.09 2963.5,1034.5C 2964,1037.52 2965.5,1039.85 2968,1041.5C 2969.86,1037.58 2971.53,1033.58 2973,1029.5C 2974.67,1028.17 2976.33,1028.17 2978,1029.5C 2979.41,1033.84 2979.57,1038.17 2978.5,1042.5C 2981.72,1041.89 2984.72,1040.72 2987.5,1039C 2989.41,1036.21 2992.08,1034.88 2995.5,1035C 2997.33,1031.83 2999.83,1029.33 3003,1027.5C 3004.33,1030.17 3005.67,1030.17 3007,1027.5C 3008.28,1021.51 3009.44,1015.51 3010.5,1009.5C 3012.35,1008.24 3014.19,1008.24 3016,1009.5C 3017.08,1013.77 3017.58,1018.1 3017.5,1022.5C 3021.52,1021.88 3025.02,1020.22 3028,1017.5C 3030.4,1012.36 3032.57,1007.19 3034.5,1002C 3033.59,1000.3 3033.26,998.467 3033.5,996.5C 3034.82,996.33 3035.99,996.663 3037,997.5C 3037.97,994.179 3040.14,992.513 3043.5,992.5C 3043.15,995.428 3042.48,998.262 3041.5,1001C 3043.77,1003.81 3044.77,1006.81 3044.5,1010C 3045.25,1011.73 3045.75,1013.57 3046,1015.5C 3046.78,1011.6 3048.78,1008.6 3052,1006.5C 3053.79,1008.41 3055.79,1010.08 3058,1011.5C 3058.48,1012.45 3058.65,1013.45 3058.5,1014.5C 3062.56,1015.02 3066.56,1015.52 3070.5,1016C 3072.78,1011.82 3074.28,1006.98 3075,1001.5C 3076.26,999.603 3077.93,998.27 3080,997.5C 3081.33,997.755 3082.33,998.422 3083,999.5C 3083.5,1005.16 3083.67,1010.82 3083.5,1016.5C 3090.16,1016.83 3096.82,1017.16 3103.5,1017.5C 3105.71,1019.31 3108.05,1019.65 3110.5,1018.5C 3114.78,1020.98 3119.28,1022.98 3124,1024.5C 3126.57,1025.59 3129.24,1025.59 3132,1024.5C 3133.44,1026.01 3134.94,1026.35 3136.5,1025.5C 3139.5,1026.83 3142.5,1028.17 3145.5,1029.5C 3146.09,1029.29 3146.59,1028.96 3147,1028.5C 3148.12,1030.12 3149.62,1031.12 3151.5,1031.5C 3153.22,1030.45 3154.89,1030.45 3156.5,1031.5C 3157.19,1030.97 3157.69,1030.31 3158,1029.5C 3159.84,1031.35 3161.84,1031.68 3164,1030.5C 3164.67,1031.17 3165.33,1031.83 3166,1032.5C 3168.6,1032.37 3171.27,1032.37 3174,1032.5C 3174.69,1031.64 3175.52,1030.98 3176.5,1030.5C 3178.93,1031.25 3181.26,1031.58 3183.5,1031.5C 3184.25,1030.62 3184.75,1029.62 3185,1028.5C 3186.57,1029.36 3188.24,1030.02 3190,1030.5C 3193.79,1029.44 3197.62,1029.27 3201.5,1030C 3205.98,1033.92 3210.48,1037.09 3215,1039.5C 3216.44,1040.15 3217.94,1040.48 3219.5,1040.5C 3219.5,1041.5 3219.5,1042.5 3219.5,1043.5C 3225.06,1044.24 3230.4,1045.74 3235.5,1048C 3239.88,1048.57 3244.04,1049.07 3248,1049.5C 3249.33,1043.98 3250.33,1038.32 3251,1032.5C 3251.56,1031.98 3252.23,1031.64 3253,1031.5C 3256.35,1036.05 3258.85,1041.05 3260.5,1046.5C 3262.29,1048.92 3263.95,1048.92 3265.5,1046.5C 3266.09,1046.71 3266.59,1047.04 3267,1047.5C 3269.35,1046.19 3271.85,1045.19 3274.5,1044.5C 3274.81,1043.69 3275.31,1043.03 3276,1042.5C 3278.4,1043.6 3280.9,1043.77 3283.5,1043C 3286.46,1041.08 3289.46,1039.25 3292.5,1037.5C 3295.16,1038.09 3297.33,1037.09 3299,1034.5C 3306.2,1034.45 3313.53,1036.11 3321,1039.5C 3321.95,1037.63 3323.12,1037.29 3324.5,1038.5C 3325.98,1039.15 3327.48,1039.48 3329,1039.5C 3330,1038.83 3331,1038.17 3332,1037.5C 3334.34,1039.67 3336.51,1042.01 3338.5,1044.5C 3339.43,1045.64 3340.26,1045.64 3341,1044.5C 3342.67,1045.68 3344.17,1047.01 3345.5,1048.5C 3347.16,1046.98 3348.32,1047.31 3349,1049.5C 3350.4,1048.95 3351.73,1048.62 3353,1048.5C 3355.56,1050.08 3358.4,1051.08 3361.5,1051.5C 3363.16,1050.78 3364.83,1051.11 3366.5,1052.5C 3367.74,1055.32 3369.24,1057.99 3371,1060.5C 3373.45,1061.3 3375.78,1062.97 3378,1065.5C 3383.49,1063.37 3388.99,1063.2 3394.5,1065C 3413.43,1086.47 3436.77,1100.8 3464.5,1108C 3472.03,1110.52 3476.2,1115.69 3477,1123.5C 3479.43,1122.71 3481.77,1122.37 3484,1122.5C 3495.06,1127.79 3505.72,1132.79 3516,1137.5C 3516.33,1137.17 3516.67,1136.83 3517,1136.5C 3520.85,1138.62 3525.02,1139.96 3529.5,1140.5C 3530.19,1139.97 3530.69,1139.31 3531,1138.5C 3532.53,1139.58 3534.03,1140.58 3535.5,1141.5C 3536.11,1140.41 3535.77,1139.25 3534.5,1138C 3536.05,1137.67 3537.38,1138.17 3538.5,1139.5C 3539.81,1138.69 3540.98,1137.69 3542,1136.5C 3544.52,1139.84 3547.02,1140.18 3549.5,1137.5C 3552.48,1141.08 3556.15,1142.41 3560.5,1141.5C 3564.04,1143.53 3567.71,1145.36 3571.5,1147C 3572.19,1148.07 3572.69,1149.23 3573,1150.5C 3573.56,1149.98 3574.23,1149.64 3575,1149.5C 3576.65,1150.65 3578.15,1151.99 3579.5,1153.5C 3580.72,1154.71 3581.89,1154.71 3583,1153.5C 3584.67,1155.83 3586.67,1157.83 3589,1159.5C 3589.56,1158.98 3590.23,1158.64 3591,1158.5C 3593.78,1159.8 3596.61,1160.97 3599.5,1162C 3604.54,1165.53 3609.88,1168.7 3615.5,1171.5C 3616.09,1171.29 3616.59,1170.96 3617,1170.5C 3620.93,1174.93 3625.76,1177.93 3631.5,1179.5C 3631.34,1180.87 3631.51,1182.21 3632,1183.5C 3632.41,1183.04 3632.91,1182.71 3633.5,1182.5C 3634.5,1185.17 3636.17,1185.84 3638.5,1184.5C 3639.71,1185.27 3639.71,1186.11 3638.5,1187C 3640.06,1187.32 3641.23,1188.15 3642,1189.5C 3643.91,1186.67 3644.74,1187 3644.5,1190.5C 3645.55,1190.35 3646.55,1190.52 3647.5,1191C 3651.64,1194.64 3655.64,1198.47 3659.5,1202.5C 3662.17,1201.17 3662.83,1201.83 3661.5,1204.5C 3662.52,1205.35 3663.36,1206.35 3664,1207.5C 3664.41,1207.04 3664.91,1206.71 3665.5,1206.5C 3665.49,1207.44 3665.99,1208.11 3667,1208.5C 3668.56,1207.97 3670.06,1207.3 3671.5,1206.5C 3673.89,1210.82 3675.89,1214.99 3677.5,1219C 3679.27,1220.06 3680.94,1221.23 3682.5,1222.5C 3684.1,1223.43 3685.6,1223.43 3687,1222.5C 3688.19,1225.53 3690.36,1227.2 3693.5,1227.5C 3693.28,1228.68 3693.61,1229.68 3694.5,1230.5C 3696.67,1228.55 3699,1227.88 3701.5,1228.5C 3702.8,1229.09 3703.63,1230.09 3704,1231.5C 3705.45,1230.39 3706.78,1229.39 3708,1228.5C 3710.23,1229.41 3712.4,1230.41 3714.5,1231.5C 3715.96,1230.61 3717.29,1230.61 3718.5,1231.5C 3720.17,1228.83 3721.83,1228.83 3723.5,1231.5C 3725.92,1229.91 3728.59,1228.91 3731.5,1228.5C 3734.6,1228.28 3737.77,1228.28 3741,1228.5C 3744.15,1225.6 3747.82,1225.26 3752,1227.5C 3754.94,1225.18 3758.11,1224.85 3761.5,1226.5C 3762.94,1226.28 3764.27,1225.78 3765.5,1225C 3765.17,1224.67 3764.83,1224.33 3764.5,1224C 3767.17,1223.67 3769.83,1223.33 3772.5,1223C 3775.07,1220.91 3777.9,1220.41 3781,1221.5C 3785.51,1220.16 3789.68,1218.16 3793.5,1215.5C 3795.57,1217.43 3797.91,1217.43 3800.5,1215.5C 3804.49,1217.95 3808.32,1217.62 3812,1214.5C 3813,1215.83 3814,1215.83 3815,1214.5C 3817,1215 3818.66,1216 3820,1217.5C 3821.81,1216.24 3823.65,1216.24 3825.5,1217.5C 3825.29,1218.09 3824.96,1218.59 3824.5,1219C 3829.33,1219.83 3832.17,1222.67 3833,1227.5C 3834.15,1226.54 3835.15,1226.88 3836,1228.5C 3836.72,1227.96 3837.22,1227.29 3837.5,1226.5C 3838.83,1226.5 3840.17,1226.5 3841.5,1226.5C 3841.35,1227.55 3841.52,1228.55 3842,1229.5C 3842.52,1228.48 3843.35,1227.82 3844.5,1227.5C 3845.15,1228.96 3846.65,1230.29 3849,1231.5C 3849.77,1231.36 3850.44,1231.02 3851,1230.5C 3853.38,1232.27 3856.05,1233.61 3859,1234.5C 3859.31,1233.69 3859.81,1233.03 3860.5,1232.5C 3861.43,1233.91 3862.43,1235.41 3863.5,1237C 3865.03,1237.5 3866.53,1237.33 3868,1236.5C 3869.65,1236.82 3870.65,1237.82 3871,1239.5C 3874.14,1238.86 3877.14,1239.53 3880,1241.5C 3882.12,1238.68 3883.95,1238.85 3885.5,1242C 3886.75,1242.74 3887.75,1242.57 3888.5,1241.5C 3891.88,1243.46 3895.38,1245.13 3899,1246.5C 3901.48,1241.22 3902.81,1241.22 3903,1246.5C 3904,1247.5 3905,1248.5 3906,1249.5C 3907.52,1247.38 3909.36,1247.05 3911.5,1248.5C 3911.49,1247.56 3911.99,1246.89 3913,1246.5C 3914.89,1246.78 3916.22,1247.78 3917,1249.5C 3917.33,1249.17 3917.67,1248.83 3918,1248.5C 3919.97,1250.44 3922.14,1250.78 3924.5,1249.5C 3925.75,1250.04 3926.91,1250.71 3928,1251.5C 3929.71,1250.86 3931.54,1250.86 3933.5,1251.5C 3933.28,1252.68 3933.61,1253.68 3934.5,1254.5C 3935.62,1253.46 3936.96,1252.79 3938.5,1252.5C 3940.83,1253.61 3943.16,1253.77 3945.5,1253C 3945.96,1253.41 3946.29,1253.91 3946.5,1254.5C 3945.5,1255.33 3944.5,1256.17 3943.5,1257C 3943.83,1257.17 3944.17,1257.33 3944.5,1257.5C 3946.17,1256.17 3947.83,1256.17 3949.5,1257.5C 3950.39,1256.68 3950.72,1255.68 3950.5,1254.5C 3953.5,1256.52 3956.83,1258.19 3960.5,1259.5C 3961.62,1258.37 3962.96,1257.7 3964.5,1257.5C 3964.5,1258.5 3964.5,1259.5 3964.5,1260.5C 3967.24,1259.49 3969.58,1259.82 3971.5,1261.5C 3972.81,1260.69 3973.98,1259.69 3975,1258.5C 3976.19,1259.56 3976.69,1260.9 3976.5,1262.5C 3980.37,1262.24 3984.04,1262.91 3987.5,1264.5C 3987.83,1265.83 3988.17,1265.83 3988.5,1264.5C 3991.39,1264.72 3994.06,1264.06 3996.5,1262.5C 3999,1264.32 4001.5,1264.65 4004,1263.5C 4006.02,1264.03 4006.85,1265.37 4006.5,1267.5C 4010.73,1266.99 4014.9,1266.99 4019,1267.5C 4020.63,1268.29 4022.13,1269.29 4023.5,1270.5C 4025.52,1269.19 4026.69,1269.85 4027,1272.5C 4027.52,1271.48 4028.35,1270.82 4029.5,1270.5C 4031.38,1270.93 4032.88,1271.93 4034,1273.5C 4037,1272.49 4039.66,1273.16 4042,1275.5C 4044.54,1274.12 4046.54,1274.79 4048,1277.5C 4049.71,1276.07 4051.05,1276.41 4052,1278.5C 4053.83,1277.34 4055.49,1277.67 4057,1279.5C 4058.26,1279.24 4059.26,1278.57 4060,1277.5C 4060.28,1280.74 4061.12,1281.08 4062.5,1278.5C 4065.14,1279.34 4067.81,1279.5 4070.5,1279C 4070.17,1279.33 4069.83,1279.67 4069.5,1280C 4070.89,1281.02 4072.39,1281.85 4074,1282.5C 4076.61,1282.82 4079.11,1282.16 4081.5,1280.5C 4081.28,1281.68 4081.61,1282.68 4082.5,1283.5C 4086.66,1283 4090.82,1282.67 4095,1282.5C 4096.04,1283.62 4096.71,1284.96 4097,1286.5C 4097.38,1285.94 4097.88,1285.61 4098.5,1285.5C 4098.37,1286.38 4098.7,1287.04 4099.5,1287.5C 4101.8,1286.32 4104.14,1286.32 4106.5,1287.5C 4107.17,1287.33 4107.83,1287.17 4108.5,1287C 4107.3,1286.35 4107.3,1285.85 4108.5,1285.5C 4113.88,1286.83 4119.21,1288.17 4124.5,1289.5C 4126.46,1288.55 4128.12,1287.21 4129.5,1285.5C 4131,1286.59 4131.34,1287.76 4130.5,1289C 4131.5,1289.5 4132.5,1290 4133.5,1290.5C 4136.5,1288.4 4139.66,1288.07 4143,1289.5C 4144.47,1289.1 4145.81,1288.43 4147,1287.5C 4148.31,1288.31 4149.48,1289.31 4150.5,1290.5C 4150.55,1289.31 4150.89,1287.98 4151.5,1286.5C 4152.2,1288.1 4153.37,1289.43 4155,1290.5C 4157.74,1290.79 4160.58,1290.45 4163.5,1289.5C 4164.31,1290.65 4165.31,1290.65 4166.5,1289.5C 4167.17,1290.17 4167.83,1290.83 4168.5,1291.5C 4168.49,1290.56 4168.99,1289.89 4170,1289.5C 4171.01,1289.89 4171.51,1290.56 4171.5,1291.5C 4173.16,1289.98 4174.32,1290.31 4175,1292.5C 4175.56,1291.98 4176.23,1291.64 4177,1291.5C 4178.78,1292.95 4180.78,1293.95 4183,1294.5C 4186.27,1291.7 4188.77,1292.37 4190.5,1296.5C 4191.19,1295.97 4191.69,1295.31 4192,1294.5C 4193,1295.83 4194,1295.83 4195,1294.5C 4196.56,1297.04 4198.06,1297.04 4199.5,1294.5C 4200.19,1295.03 4200.69,1295.69 4201,1296.5C 4201.89,1295.29 4202.73,1295.29 4203.5,1296.5C 4201.38,1298.63 4202.05,1298.96 4205.5,1297.5C 4207.35,1298.24 4208.02,1299.24 4207.5,1300.5C 4209.02,1300.12 4210.69,1299.95 4212.5,1300C 4212.17,1299.67 4211.83,1299.33 4211.5,1299C 4213.47,1296.98 4215.14,1297.15 4216.5,1299.5C 4218.07,1298.69 4219.74,1298.36 4221.5,1298.5C 4221.28,1299.68 4221.61,1300.68 4222.5,1301.5C 4223.5,1300.17 4224.5,1300.17 4225.5,1301.5C 4226.93,1300.06 4228.6,1299.06 4230.5,1298.5C 4232.61,1301.04 4234.78,1301.04 4237,1298.5C 4237.33,1299.5 4237.67,1300.5 4238,1301.5C 4240.42,1300.54 4242.92,1300.54 4245.5,1301.5C 4247.04,1301.21 4248.38,1300.54 4249.5,1299.5C 4250.45,1301.05 4250.79,1302.71 4250.5,1304.5C 4254.92,1304.88 4258.59,1306.55 4261.5,1309.5C 4260.08,1309.71 4258.74,1310.21 4257.5,1311C 4259.58,1311.78 4261.42,1312.94 4263,1314.5C 4263.41,1314.04 4263.91,1313.71 4264.5,1313.5C 4268.31,1316.28 4270.31,1319.95 4270.5,1324.5C 4273.24,1323.96 4275.07,1324.96 4276,1327.5C 4276.33,1327.17 4276.67,1326.83 4277,1326.5C 4278.24,1328.31 4278.57,1330.31 4278,1332.5C 4279.07,1331.72 4280.24,1331.89 4281.5,1333C 4282.21,1335.77 4283.71,1336.6 4286,1335.5C 4286.5,1336 4287,1336.5 4287.5,1337C 4286.48,1338.05 4286.32,1339.22 4287,1340.5C 4287.67,1339.17 4288.33,1339.17 4289,1340.5C 4289.22,1341.94 4289.72,1343.27 4290.5,1344.5C 4291.81,1343.54 4293.15,1343.71 4294.5,1345C 4296.67,1347.83 4298.83,1350.67 4301,1353.5C 4303.56,1351.06 4304.39,1351.56 4303.5,1355C 4307.56,1357.59 4311.9,1359.42 4316.5,1360.5C 4317.81,1363.07 4319.64,1364.07 4322,1363.5C 4322.31,1366.15 4323.48,1366.81 4325.5,1365.5C 4327.9,1366.69 4330.23,1368.02 4332.5,1369.5C 4333.83,1368.83 4335.17,1368.17 4336.5,1367.5C 4337.17,1368.83 4337.83,1370.17 4338.5,1371.5C 4339.29,1371.07 4340.13,1370.74 4341,1370.5C 4342.48,1371.98 4343.98,1373.48 4345.5,1375C 4348.46,1375.23 4350.96,1376.4 4353,1378.5C 4354.11,1374.54 4354.95,1374.54 4355.5,1378.5C 4358.14,1380.01 4360.47,1379.67 4362.5,1377.5C 4363.1,1378.72 4363.26,1380.05 4363,1381.5C 4364.44,1380.74 4365.94,1380.07 4367.5,1379.5C 4368.44,1376.9 4370.1,1374.9 4372.5,1373.5C 4374.42,1374.96 4375.09,1376.63 4374.5,1378.5C 4375.32,1379.39 4376.32,1379.72 4377.5,1379.5C 4378.75,1374.19 4380.25,1374.19 4382,1379.5C 4383.88,1378.65 4385.71,1378.98 4387.5,1380.5C 4389.17,1379.83 4390.83,1379.17 4392.5,1378.5C 4395.27,1379.3 4397.94,1379.63 4400.5,1379.5C 4401.5,1378.83 4402.5,1378.17 4403.5,1377.5C 4406.78,1377.42 4410.12,1377.75 4413.5,1378.5C 4414.25,1377.62 4414.75,1376.62 4415,1375.5C 4418.22,1380.43 4421.89,1380.76 4426,1376.5C 4428.56,1378.08 4431.4,1379.08 4434.5,1379.5C 4434.83,1378.83 4435.17,1378.17 4435.5,1377.5C 4437.04,1378.75 4438.54,1378.75 4440,1377.5C 4440.33,1378.17 4440.67,1378.83 4441,1379.5C 4444.92,1378.43 4449.09,1378.43 4453.5,1379.5C 4456.11,1378.77 4458.78,1378.27 4461.5,1378C 4462.31,1376.29 4463.64,1375.46 4465.5,1375.5C 4465.87,1381.26 4466.87,1381.59 4468.5,1376.5C 4469.72,1377.26 4470.72,1378.26 4471.5,1379.5C 4473.59,1376.99 4475.42,1377.32 4477,1380.5C 4479.5,1378.35 4481.84,1378.35 4484,1380.5C 4485,1379.17 4486,1379.17 4487,1380.5C 4488.51,1378.83 4490.34,1377.83 4492.5,1377.5C 4492.28,1378.68 4492.61,1379.68 4493.5,1380.5C 4495.65,1380.3 4497.81,1379.97 4500,1379.5C 4501.4,1380.39 4502.9,1381.06 4504.5,1381.5C 4507.33,1380.13 4510.33,1379.13 4513.5,1378.5C 4518.91,1381.43 4524.58,1381.43 4530.5,1378.5C 4531.83,1379.83 4533.17,1381.17 4534.5,1382.5C 4536.5,1381.83 4538.5,1381.17 4540.5,1380.5C 4541.19,1381.03 4541.69,1381.69 4542,1382.5C 4542.31,1381.69 4542.81,1381.03 4543.5,1380.5C 4547.12,1380.22 4550.79,1380.55 4554.5,1381.5C 4554.28,1380.32 4554.61,1379.32 4555.5,1378.5C 4558.53,1379.99 4561.36,1379.66 4564,1377.5C 4566.16,1378.24 4568.16,1379.24 4570,1380.5C 4572.79,1377.51 4576.29,1376.18 4580.5,1376.5C 4580.26,1373 4581.09,1372.67 4583,1375.5C 4586.1,1373.28 4589.43,1372.95 4593,1374.5C 4593.59,1370.93 4594.92,1370.6 4597,1373.5C 4599.79,1372.59 4602.62,1371.93 4605.5,1371.5C 4606.82,1372.61 4608.32,1372.61 4610,1371.5C 4611.56,1370.05 4612.9,1368.38 4614,1366.5C 4614.33,1367.17 4614.67,1367.83 4615,1368.5C 4616.11,1365.27 4617.94,1362.61 4620.5,1360.5C 4619.43,1358.67 4620.1,1357.51 4622.5,1357C 4621.62,1355.64 4621.29,1354.14 4621.5,1352.5C 4623.94,1352.65 4624.61,1351.81 4623.5,1350C 4624.91,1349.63 4625.91,1348.8 4626.5,1347.5C 4628.08,1346.7 4629.74,1346.2 4631.5,1346C 4632.88,1344.6 4633.71,1343.1 4634,1341.5C 4634.77,1341.64 4635.44,1341.98 4636,1342.5C 4638.45,1338.96 4641.62,1337.46 4645.5,1338C 4644.48,1336.95 4644.32,1335.78 4645,1334.5C 4647.97,1334.85 4650.97,1335.18 4654,1335.5C 4656.26,1333.91 4658.76,1333.25 4661.5,1333.5C 4661.35,1334.55 4661.52,1335.55 4662,1336.5C 4662.58,1335 4663.42,1333.67 4664.5,1332.5C 4667.41,1334.93 4670.41,1334.93 4673.5,1332.5C 4674.09,1332.71 4674.59,1333.04 4675,1333.5C 4677.6,1330.74 4680.6,1330.07 4684,1331.5C 4684.39,1330.57 4685.05,1329.91 4686,1329.5C 4689.77,1330.06 4693.44,1330.06 4697,1329.5C 4698.29,1329.05 4699.45,1328.38 4700.5,1327.5C 4701.17,1328.17 4701.83,1328.83 4702.5,1329.5C 4705.76,1328.25 4709.1,1327.25 4712.5,1326.5C 4713.22,1327.31 4714.05,1327.98 4715,1328.5C 4719.1,1328.05 4723.26,1327.05 4727.5,1325.5C 4727.83,1324.5 4728.5,1323.83 4729.5,1323.5C 4731.95,1323.98 4734.12,1324.98 4736,1326.5C 4739.14,1325.54 4742.47,1324.2 4746,1322.5C 4747.17,1321.49 4748.33,1320.49 4749.5,1319.5C 4750.27,1321.27 4751.6,1322.27 4753.5,1322.5C 4755.16,1321.21 4756.83,1319.88 4758.5,1318.5C 4758.83,1318.83 4759.17,1319.17 4759.5,1319.5C 4757.14,1320.65 4756.98,1321.99 4759,1323.5C 4763.02,1323.16 4766.35,1321.49 4769,1318.5C 4769.25,1319.99 4770.58,1320.99 4773,1321.5C 4774.64,1317.72 4775.81,1317.72 4776.5,1321.5C 4779.33,1322.58 4782,1322.41 4784.5,1321C 4783.4,1319.87 4783.73,1319.04 4785.5,1318.5C 4787.09,1320.66 4788.76,1320.83 4790.5,1319C 4794.79,1318.09 4799.13,1317.42 4803.5,1317C 4804.72,1315.58 4806.05,1315.75 4807.5,1317.5C 4809.06,1317.28 4810.39,1316.61 4811.5,1315.5C 4812.48,1315.98 4813.31,1316.64 4814,1317.5C 4814.71,1316.03 4815.88,1315.36 4817.5,1315.5C 4817.56,1320.32 4818.73,1320.66 4821,1316.5C 4823.21,1318.71 4825.71,1319.04 4828.5,1317.5C 4830.86,1319.02 4832.69,1321.02 4834,1323.5C 4834.29,1320.05 4835.63,1319.71 4838,1322.5C 4840.42,1319.88 4841.92,1319.88 4842.5,1322.5C 4843.22,1321.69 4844.05,1321.02 4845,1320.5C 4847.34,1322.55 4849.68,1324.55 4852,1326.5C 4854.6,1322.69 4856.93,1322.69 4859,1326.5C 4863.35,1325.93 4867.52,1326.93 4871.5,1329.5C 4874.09,1327.84 4876.76,1327.51 4879.5,1328.5C 4880.5,1327.83 4881.5,1327.17 4882.5,1326.5C 4883.74,1328.01 4883.41,1329.17 4881.5,1330C 4882.45,1330.48 4883.45,1330.65 4884.5,1330.5C 4884.28,1329.32 4884.61,1328.32 4885.5,1327.5C 4886.25,1329.01 4887.42,1330.01 4889,1330.5C 4891.06,1329.89 4892.89,1328.89 4894.5,1327.5C 4896.14,1329.15 4897.98,1330.49 4900,1331.5C 4901.81,1331.51 4903.31,1330.84 4904.5,1329.5C 4905.17,1330.83 4905.83,1332.17 4906.5,1333.5C 4906.83,1332.21 4907.17,1330.54 4907.5,1328.5C 4909.94,1328.35 4910.61,1329.19 4909.5,1331C 4911.57,1332.69 4913.74,1332.86 4916,1331.5C 4917.63,1332.29 4919.13,1333.29 4920.5,1334.5C 4921.48,1334.02 4922.31,1333.36 4923,1332.5C 4924.71,1333.14 4926.54,1333.14 4928.5,1332.5C 4928.5,1333.5 4928.5,1334.5 4928.5,1335.5C 4931.04,1335.1 4933.21,1335.77 4935,1337.5C 4937.19,1334.75 4938.86,1335.08 4940,1338.5C 4941.01,1337.66 4942.18,1337.33 4943.5,1337.5C 4943.5,1336.5 4943.5,1335.5 4943.5,1334.5C 4947.47,1336.16 4951.47,1337.83 4955.5,1339.5C 4955.82,1341.13 4956.82,1342.13 4958.5,1342.5C 4959.86,1341.8 4961.03,1341.8 4962,1342.5C 4963.39,1339.38 4965.55,1338.38 4968.5,1339.5C 4965.9,1342.57 4966.56,1343.57 4970.5,1342.5C 4972.38,1343.09 4974.22,1343.76 4976,1344.5C 4978.48,1344.24 4980.65,1342.91 4982.5,1340.5C 4983.19,1341.03 4983.69,1341.69 4984,1342.5C 4985.88,1341.07 4987.38,1341.4 4988.5,1343.5C 4987.17,1344.5 4985.83,1345.5 4984.5,1346.5C 4985,1346.83 4985.5,1347.17 4986,1347.5C 4990.82,1346.65 4995.65,1346.65 5000.5,1347.5C 5000.5,1348.5 5000.5,1349.5 5000.5,1350.5C 5002.23,1350.81 5003.89,1350.98 5005.5,1351C 5004.44,1349.81 5003.1,1349.31 5001.5,1349.5C 5001.5,1348.5 5001.5,1347.5 5001.5,1346.5C 5003.7,1347.01 5005.7,1348.01 5007.5,1349.5C 5008.09,1349.29 5008.59,1348.96 5009,1348.5C 5010.72,1350.9 5011.88,1353.56 5012.5,1356.5C 5013.55,1355.45 5014.55,1354.45 5015.5,1353.5C 5016.58,1353.54 5017.58,1353.87 5018.5,1354.5C 5021.63,1352.46 5024.46,1353.13 5027,1356.5C 5027.31,1355.69 5027.81,1355.03 5028.5,1354.5C 5029.5,1355.83 5030.5,1355.83 5031.5,1354.5C 5031.83,1354.67 5032.17,1354.83 5032.5,1355C 5030.22,1356.36 5030.05,1357.86 5032,1359.5C 5037.06,1358.03 5042.06,1356.37 5047,1354.5C 5048.11,1355.71 5049.28,1355.71 5050.5,1354.5C 5051.48,1354.98 5052.31,1355.64 5053,1356.5C 5054.7,1354.73 5056.53,1353.06 5058.5,1351.5C 5060.07,1353.38 5061.74,1353.71 5063.5,1352.5C 5065.39,1352.7 5066.89,1352.04 5068,1350.5C 5069.33,1351.83 5070.67,1353.17 5072,1354.5C 5073.36,1351.45 5075.53,1350.78 5078.5,1352.5C 5080.17,1351.5 5081.83,1350.5 5083.5,1349.5C 5084.74,1350.04 5085.91,1350.7 5087,1351.5C 5088.91,1348.98 5090.74,1348.98 5092.5,1351.5C 5094.91,1348.99 5097.08,1349.32 5099,1352.5C 5101.08,1351.67 5103.25,1351.67 5105.5,1352.5C 5105.83,1353.83 5106.17,1353.83 5106.5,1352.5C 5109.29,1352.22 5111.79,1352.89 5114,1354.5C 5115.29,1354.05 5116.45,1353.38 5117.5,1352.5C 5119.35,1353.59 5121.02,1354.93 5122.5,1356.5C 5124.32,1355.25 5126.32,1354.59 5128.5,1354.5C 5128.5,1354.83 5128.5,1355.17 5128.5,1355.5C 5130.06,1355.52 5131.56,1355.85 5133,1356.5C 5134.68,1353.84 5136.34,1353.84 5138,1356.5C 5138.72,1355.94 5139.56,1355.61 5140.5,1355.5C 5145.25,1355.99 5149.25,1357.33 5152.5,1359.5C 5153.85,1357.36 5155.52,1357.03 5157.5,1358.5C 5159.83,1355.83 5162.17,1355.83 5164.5,1358.5C 5164.83,1357.17 5165.17,1355.83 5165.5,1354.5C 5167.29,1356.02 5169.12,1356.35 5171,1355.5C 5172.69,1356.32 5172.85,1357.32 5171.5,1358.5C 5175.03,1359.02 5178.37,1360.02 5181.5,1361.5C 5184.69,1361.45 5188.03,1361.12 5191.5,1360.5C 5191.28,1359.32 5191.61,1358.32 5192.5,1357.5C 5195.06,1359.08 5197.56,1360.74 5200,1362.5C 5200.51,1361.47 5201.01,1360.47 5201.5,1359.5C 5203.42,1360.36 5205.42,1361.03 5207.5,1361.5C 5207.35,1362.55 5207.52,1363.55 5208,1364.5C 5210.06,1363.31 5212.06,1362.31 5214,1361.5C 5216.19,1363.74 5218.69,1364.4 5221.5,1363.5C 5223.81,1364.99 5226.31,1365.99 5229,1366.5C 5232.34,1361.91 5236.17,1361.41 5240.5,1365C 5239.27,1366.18 5239.27,1367.35 5240.5,1368.5C 5241.74,1367.75 5243.07,1367.42 5244.5,1367.5C 5245.72,1365.42 5246.39,1363.42 5246.5,1361.5C 5249.52,1363.5 5251.52,1365.83 5252.5,1368.5C 5253.91,1367.38 5255.41,1366.38 5257,1365.5C 5257.67,1366.17 5258.33,1366.83 5259,1367.5C 5261.93,1363.39 5264.1,1363.73 5265.5,1368.5C 5267.5,1368.17 5269.5,1367.83 5271.5,1367.5C 5271.5,1366.5 5271.5,1365.5 5271.5,1364.5C 5275.14,1364.66 5275.47,1365.82 5272.5,1368C 5276.21,1367.2 5279.71,1367.36 5283,1368.5C 5283.17,1368.83 5283.33,1369.17 5283.5,1369.5C 5281.5,1370.17 5279.5,1370.83 5277.5,1371.5C 5277.67,1371.83 5277.83,1372.17 5278,1372.5C 5281.11,1371.29 5284.28,1371.29 5287.5,1372.5C 5289.34,1371.6 5291,1370.6 5292.5,1369.5C 5295.1,1370.27 5297.76,1370.6 5300.5,1370.5C 5301.05,1366.54 5301.89,1366.54 5303,1370.5C 5304.46,1369.12 5305.29,1369.45 5305.5,1371.5C 5309.08,1372.81 5312.74,1373.31 5316.5,1373C 5317.34,1369.97 5318.68,1369.8 5320.5,1372.5C 5320.29,1373.09 5319.96,1373.59 5319.5,1374C 5321.43,1374.25 5323.27,1374.75 5325,1375.5C 5326.06,1374.56 5327.23,1373.56 5328.5,1372.5C 5329.48,1372.98 5330.31,1373.64 5331,1374.5C 5331.39,1373.57 5332.05,1372.91 5333,1372.5C 5334.88,1374.01 5337.05,1374.68 5339.5,1374.5C 5339.28,1375.68 5339.61,1376.68 5340.5,1377.5C 5341.17,1376.17 5341.83,1374.83 5342.5,1373.5C 5343.85,1374.95 5345.52,1375.62 5347.5,1375.5C 5347.73,1377.43 5348.56,1379.1 5350,1380.5C 5352.85,1379.19 5355.51,1377.52 5358,1375.5C 5359.8,1377.88 5362.13,1379.55 5365,1380.5C 5366.67,1379.5 5368,1378.17 5369,1376.5C 5370.37,1377.59 5370.7,1378.93 5370,1380.5C 5369.67,1380.17 5369.33,1379.83 5369,1379.5C 5368.33,1380.5 5368.33,1381.5 5369,1382.5C 5371.17,1380.54 5373.5,1380.2 5376,1381.5C 5376.74,1380.43 5377.74,1379.76 5379,1379.5C 5380.77,1380.45 5382.6,1381.45 5384.5,1382.5C 5387.85,1380.98 5391.02,1381.31 5394,1383.5C 5394.95,1383.09 5395.61,1382.43 5396,1381.5C 5397.73,1383.01 5398.89,1384.68 5399.5,1386.5C 5401.89,1385.91 5403.73,1384.57 5405,1382.5C 5409.01,1384.81 5413.18,1386.14 5417.5,1386.5C 5417.86,1387.87 5418.69,1388.87 5420,1389.5C 5422.13,1388.65 5424.13,1388.31 5426,1388.5C 5426.5,1617.5 5426.67,1846.5 5426.5,2075.5C 3617.5,2075.5 1808.5,2075.5 -0.5,2075.5C -0.5,1648.17 -0.5,1220.83 -0.5,793.5C 5.65189,799.812 12.3186,805.645 19.5,811C 10.3023,816.672 7.80227,824.505 12,834.5C 23.411,848.32 37.911,852.82 55.5,848C 56.1258,847.25 56.6258,846.416 57,845.5C 57.3333,845.833 57.6667,846.167 58,846.5C 59.2505,841.874 60.5839,837.207 62,832.5C 64.2598,828.193 67.2598,827.526 71,830.5C 71.3333,830.167 71.6667,829.833 72,829.5C 73.6851,831.017 75.1851,832.684 76.5,834.5C 77.8935,832.275 79.0602,829.942 80,827.5C 81.6768,826.484 83.3435,825.484 85,824.5C 86.7297,825.649 88.3963,825.649 90,824.5C 91.3679,826.027 91.8679,827.527 91.5,829C 93.1667,829.667 94.8333,829.667 96.5,829C 98.9638,825.951 100.464,822.451 101,818.5C 102.684,816.649 104.517,814.982 106.5,813.5C 107.768,814.428 109.101,814.595 110.5,814C 113.481,805.454 118.314,804.287 125,810.5C 124.689,811.935 124.855,813.268 125.5,814.5C 129.122,815.325 132.789,815.825 136.5,816C 137.253,817.487 138.086,817.654 139,816.5C 147.672,819.568 154.839,817.235 160.5,809.5C 161.716,808.998 162.883,808.665 164,808.5C 164.315,806.414 164.815,804.414 165.5,802.5C 166.85,801.517 167.85,800.184 168.5,798.5C 168.833,798.667 169.167,798.833 169.5,799C 171.925,802.367 173.259,805.867 173.5,809.5C 177.557,811.384 181.223,813.884 184.5,817C 188.461,818.598 192.461,820.098 196.5,821.5C 197.862,823.012 198.196,824.512 197.5,826C 199.329,828.659 201.329,831.159 203.5,833.5C 205.208,831.309 207.208,830.976 209.5,832.5C 210.5,831.833 211.5,831.167 212.5,830.5C 213.72,831.711 214.887,831.711 216,830.5C 218.12,835.447 220.453,835.447 223,830.5C 225.338,832.947 226.504,835.947 226.5,839.5C 223.341,852.22 224.841,852.553 231,840.5C 234.51,830.111 238.677,820.111 243.5,810.5C 249.119,814.097 254.952,814.43 261,811.5C 262.262,815.313 262.929,819.313 263,823.5C 266.909,830.302 272.409,831.969 279.5,828.5C 282.349,831.513 285.515,834.18 289,836.5C 290.073,841.74 293.239,844.74 298.5,845.5C 300.942,844.964 303.275,844.131 305.5,843C 309.723,837.776 313.556,832.276 317,826.5C 318.684,824.649 320.517,822.982 322.5,821.5C 326.802,826.969 332.302,830.636 339,832.5C 343.848,829.197 348.848,828.864 354,831.5C 355.785,830.76 357.618,830.093 359.5,829.5C 362.357,823.117 365.69,816.95 369.5,811C 368.647,808.191 369.647,806.025 372.5,804.5C 374.134,804.968 375.3,805.968 376,807.5C 375.953,803.717 377.453,800.717 380.5,798.5C 383.429,800.82 384.429,803.653 383.5,807C 383.773,809.151 384.439,811.151 385.5,813C 385.219,816.017 385.219,819.183 385.5,822.5C 389.981,822.331 394.147,821.331 398,819.5C 399.799,819.721 401.632,820.054 403.5,820.5C 406.024,817.092 408.857,816.425 412,818.5C 413.667,818.167 415.333,817.833 417,817.5C 421.027,819.542 425.194,820.209 429.5,819.5C 431.092,821.562 432.925,821.895 435,820.5C 435.667,821.167 436.333,821.833 437,822.5C 438.987,821.782 440.821,820.782 442.5,819.5C 444.255,822.023 446.089,822.023 448,819.5C 450.407,820.196 452.74,820.529 455,820.5C 456.066,818.901 457.566,817.901 459.5,817.5C 465.592,816.977 471.592,816.977 477.5,817.5C 478.748,816.96 479.915,816.293 481,815.5C 483.854,818.016 486.521,817.683 489,814.5C 490.682,814.807 492.348,815.14 494,815.5C 498.471,813.37 502.804,813.37 507,815.5C 509.51,813.565 512.177,813.231 515,814.5C 519.175,813.874 523.342,813.207 527.5,812.5C 528.647,812.818 529.481,813.484 530,814.5C 531.079,812.606 532.413,812.273 534,813.5C 535.018,811.436 536.351,811.102 538,812.5C 539.834,810.244 541.501,810.244 543,812.5C 545.316,810.541 547.316,810.541 549,812.5C 550.714,811.075 552.047,811.408 553,813.5C 553.689,812.643 554.522,811.977 555.5,811.5C 557.992,814.995 560.659,818.328 563.5,821.5C 564.711,822.72 564.711,823.887 563.5,825C 564.056,827.237 565.056,829.237 566.5,831C 565.733,837.413 565.233,843.58 565,849.5C 563.214,850.912 561.714,852.579 560.5,854.5C 559.311,855.429 557.978,855.762 556.5,855.5C 556.649,856.552 556.483,857.552 556,858.5C 552.414,859.754 550.248,862.254 549.5,866C 549.905,866.945 550.572,867.612 551.5,868C 550.13,869.441 549.13,871.108 548.5,873C 548.706,875.221 549.039,877.388 549.5,879.5C 548.833,880.5 548.167,881.5 547.5,882.5C 548.574,886.296 548.574,890.129 547.5,894C 555.126,903.628 563.126,912.961 571.5,922C 575.946,926.389 581.279,928.889 587.5,929.5C 587.107,935.695 587.941,941.695 590,947.5C 602.79,957.288 615.29,967.455 627.5,978C 632.328,981.581 637.328,984.915 642.5,988C 645.5,988.667 648.5,988.667 651.5,988C 657.996,985.834 664.163,983.001 670,979.5C 677.663,982.277 685.163,985.443 692.5,989C 699.328,993.915 706.328,998.581 713.5,1003C 716.366,1004.28 719.2,1004.44 722,1003.5C 723.512,1004.26 724.846,1005.26 726,1006.5C 730.622,1007 735.288,1008.33 740,1010.5C 741.533,1009.3 743.033,1009.3 744.5,1010.5C 744.489,1009.56 744.989,1008.89 746,1008.5C 749.098,1009.47 752.265,1009.3 755.5,1008C 756.126,1007.25 756.626,1006.42 757,1005.5C 758.684,1007.46 760.684,1007.46 763,1005.5C 763.667,1006.17 764.333,1006.83 765,1007.5C 766.945,1006.31 768.945,1006.31 771,1007.5C 773.151,1007.24 774.818,1006.24 776,1004.5C 776.333,1005.17 776.667,1005.83 777,1006.5C 778.054,1004.25 779.554,1003.91 781.5,1005.5C 786.081,1004.3 790.581,1002.97 795,1001.5C 795.414,1001.96 795.914,1002.29 796.5,1002.5C 796.205,1001.17 796.705,999.841 798,998.5C 799.016,999.634 799.683,999.301 800,997.5C 802.612,998.054 805.112,997.387 807.5,995.5C 808.086,995.709 808.586,996.043 809,996.5C 810.617,995.149 811.784,993.482 812.5,991.5C 813.736,990.754 815.07,990.421 816.5,990.5C 818.165,986.35 820.498,982.517 823.5,979C 824.401,975.48 826.567,972.313 830,969.5C 831,970.833 832,970.833 833,969.5C 834.438,968.1 835.271,966.433 835.5,964.5C 838.675,963.089 842.009,961.922 845.5,961C 846.641,960.259 846.641,959.425 845.5,958.5C 847.274,957.813 848.941,956.98 850.5,956C 851.784,955.316 852.951,955.483 854,956.5C 855.049,954.893 856.549,954.227 858.5,954.5C 858.632,950.036 860.299,949.37 863.5,952.5C 864.086,952.291 864.586,951.957 865,951.5C 865.131,955.191 863.297,957.525 859.5,958.5C 856.174,964.007 851.508,967.84 845.5,970C 842.07,973.886 838.403,977.553 834.5,981C 835,981.5 835.5,982 836,982.5C 837.945,981.137 840.112,980.303 842.5,980C 843.211,978.745 844.044,977.579 845,976.5C 845.333,976.833 845.667,977.167 846,977.5C 847.491,975.996 849.324,975.163 851.5,975C 852.22,972.878 853.387,972.378 855,973.5C 855.44,971.924 856.273,970.59 857.5,969.5C 859.865,968.915 861.865,967.748 863.5,966C 865.134,965.506 866.801,965.34 868.5,965.5C 868.618,960.515 870.451,956.182 874,952.5C 875.145,949.568 875.978,946.568 876.5,943.5C 873.482,943.506 870.816,944.506 868.5,946.5C 868.167,946 867.833,945.5 867.5,945C 869.477,939.37 871.644,934.203 874,929.5C 878.41,926.567 883.077,923.901 888,921.5C 890.268,916.492 893.268,911.492 897,906.5C 897.333,906.833 897.667,907.167 898,907.5C 898.684,906.216 898.517,905.049 897.5,904C 900.844,897.811 905.178,892.311 910.5,887.5C 912.695,886.231 914.861,886.231 917,887.5C 918.739,884.121 920.572,880.788 922.5,877.5C 923.689,876.571 925.022,876.238 926.5,876.5C 930.431,866.968 936.265,858.635 944,851.5C 947.771,843.384 952.771,836.051 959,829.5C 963.112,829.438 966.779,827.771 970,824.5C 970.333,824.833 970.667,825.167 971,825.5C 974.492,823.505 977.992,821.672 981.5,820C 982.211,818.745 983.044,817.579 984,816.5C 984.333,816.833 984.667,817.167 985,817.5C 985.652,815.277 987.152,814.11 989.5,814C 992.865,809.506 996.699,805.34 1001,801.5C 1008.43,790.383 1015.93,779.216 1023.5,768C 1022.27,763.078 1024.1,759.578 1029,757.5C 1032.06,760.765 1035.39,760.765 1039,757.5C 1041.61,758.673 1044.28,758.006 1047,755.5C 1048.39,757.715 1050.06,757.715 1052,755.5C 1056.89,756.146 1061.73,756.479 1066.5,756.5C 1068.93,756.596 1071.09,755.93 1073,754.5C 1076.32,757.117 1079.65,757.45 1083,755.5C 1084.26,755.759 1085.26,756.426 1086,757.5C 1086.69,755.109 1087.69,755.109 1089,757.5C 1091.11,755.078 1093.11,755.078 1095,757.5C 1100.25,756.604 1105.25,755.938 1110,755.5C 1112.04,756.102 1113.87,757.102 1115.5,758.5C 1115.3,757.471 1115.8,756.471 1117,755.5C 1122.31,757.359 1127.81,758.526 1133.5,759C 1134.55,760.539 1135.88,760.705 1137.5,759.5C 1140.79,760.563 1144.13,761.563 1147.5,762.5C 1150.04,762.377 1152.54,762.377 1155,762.5C 1156.33,765.167 1157.67,765.167 1159,762.5C 1161.28,762.782 1163.61,763.782 1166,765.5C 1167.95,765.249 1170.12,764.582 1172.5,763.5C 1173.17,764.167 1173.83,764.833 1174.5,765.5C 1178.33,765.494 1182.17,765.161 1186,764.5C 1188.73,766.396 1191.57,767.062 1194.5,766.5C 1195.81,767.313 1196.98,768.313 1198,769.5C 1198.38,768.944 1198.88,768.611 1199.5,768.5C 1203.59,769.198 1207.59,770.531 1211.5,772.5C 1213.03,770.342 1214.53,770.675 1216,773.5C 1217.31,771.109 1218.31,771.109 1219,773.5C 1220.33,770.833 1221.67,770.833 1223,773.5C 1225.2,772.578 1227.53,772.578 1230,773.5C 1231.56,772.971 1233.06,772.304 1234.5,771.5C 1238.4,771.452 1242.4,771.785 1246.5,772.5C 1246.5,773.5 1246.5,774.5 1246.5,775.5C 1248.67,775.92 1250.67,775.92 1252.5,775.5C 1254.12,776.115 1255.45,777.115 1256.5,778.5C 1259.31,777.596 1261.81,778.263 1264,780.5C 1265.53,780.888 1267.19,780.888 1269,780.5C 1272.21,782.603 1275.71,785.103 1279.5,788C 1281.02,789.009 1282.69,789.509 1284.5,789.5C 1284.5,790.833 1284.5,792.167 1284.5,793.5C 1286.91,793.137 1288.41,794.137 1289,796.5C 1289.33,796.167 1289.67,795.833 1290,795.5C 1291.61,798.869 1293.94,802.202 1297,805.5C 1300.65,807.75 1304.32,810.75 1308,814.5C 1309.72,814.038 1311.55,813.872 1313.5,814C 1314.05,813.075 1314.71,812.242 1315.5,811.5C 1316.83,812.833 1318.17,812.833 1319.5,811.5C 1320.94,814.044 1322.44,814.044 1324,811.5C 1326.1,813.738 1328.44,814.738 1331,814.5C 1333,814.996 1334.66,815.996 1336,817.5C 1338.08,818.378 1340.41,818.378 1343,817.5C 1346.55,819.48 1350.22,820.146 1354,819.5C 1356.88,821.476 1359.88,822.142 1363,821.5C 1364.97,823.554 1367.14,824.221 1369.5,823.5C 1372.11,823.856 1373.95,825.189 1375,827.5C 1375.31,826.692 1375.81,826.025 1376.5,825.5C 1382.06,826.504 1387.72,828.171 1393.5,830.5C 1394.19,829.975 1394.69,829.308 1395,828.5C 1395.68,830.689 1396.84,831.022 1398.5,829.5C 1402.11,830.523 1405.78,831.356 1409.5,832C 1410.13,832.75 1410.63,833.584 1411,834.5C 1412.52,834.943 1413.69,834.276 1414.5,832.5C 1416.94,834.922 1419.27,834.922 1421.5,832.5C 1423.18,833.782 1425.01,834.782 1427,835.5C 1428.4,833.027 1429.9,833.027 1431.5,835.5C 1434.08,834.062 1436.42,834.396 1438.5,836.5C 1440.43,835.62 1442.26,834.62 1444,833.5C 1446.41,835.153 1447.58,834.487 1447.5,831.5C 1448.55,831.649 1449.55,831.483 1450.5,831C 1450.17,830.667 1449.83,830.333 1449.5,830C 1453.07,828.435 1456.41,826.435 1459.5,824C 1458.94,822.434 1459.61,821.101 1461.5,820C 1462.45,819.383 1463.28,819.549 1464,820.5C 1464.47,818.754 1465.14,817.087 1466,815.5C 1470.43,812.904 1473.43,809.238 1475,804.5C 1475.67,805.167 1476.33,805.833 1477,806.5C 1479.54,800.948 1483.37,796.448 1488.5,793C 1489.78,792.316 1490.95,792.483 1492,793.5C 1492.35,791.82 1493.35,790.82 1495,790.5C 1497.63,791.425 1499.96,791.425 1502,790.5C 1502.76,792.91 1504.42,793.91 1507,793.5C 1509.53,793.435 1511.86,792.768 1514,791.5C 1514.33,792.5 1514.67,793.5 1515,794.5C 1516.45,793.386 1517.78,792.386 1519,791.5C 1519.39,792.428 1520.05,793.095 1521,793.5C 1522.68,792.837 1524.51,792.837 1526.5,793.5C 1529.19,793.321 1531.52,792.321 1533.5,790.5C 1534.19,791.025 1534.69,791.692 1535,792.5C 1536.33,789.833 1537.67,789.833 1539,792.5C 1540.1,789.956 1541.27,789.956 1542.5,792.5C 1547.28,794.715 1551.95,794.715 1556.5,792.5C 1557.17,792.833 1557.83,793.167 1558.5,793.5C 1560.62,792.65 1562.79,791.65 1565,790.5C 1568.05,790.929 1571.21,790.929 1574.5,790.5C 1574.34,788.473 1574.5,786.473 1575,784.5C 1575.67,785.833 1576.33,787.167 1577,788.5C 1577.25,787.376 1577.75,786.376 1578.5,785.5C 1580,786.752 1581.67,787.752 1583.5,788.5C 1584.11,788.376 1584.44,788.043 1584.5,787.5C 1587.83,787.018 1590.5,788.018 1592.5,790.5C 1592.91,791.643 1593.57,792.643 1594.5,793.5C 1595.72,792.289 1596.89,792.289 1598,793.5C 1600.49,790.865 1603.15,789.198 1606,788.5C 1607.26,788.759 1608.26,789.426 1609,790.5C 1610.11,789.289 1611.28,789.289 1612.5,790.5C 1613.17,789.833 1613.83,789.167 1614.5,788.5C 1615.33,789.415 1616.33,790.081 1617.5,790.5C 1621.29,789.739 1624.62,788.739 1627.5,787.5C 1628.19,788.025 1628.69,788.692 1629,789.5C 1630.33,788.506 1631.66,787.506 1633,786.5C 1635.31,787.619 1637.47,787.286 1639.5,785.5C 1637.02,784.14 1637.35,783.14 1640.5,782.5C 1642.18,784.104 1644.18,784.771 1646.5,784.5C 1646.5,783.5 1646.5,782.5 1646.5,781.5C 1666.19,775.879 1685.19,768.379 1703.5,759C 1711.09,757.012 1718.76,755.346 1726.5,754C 1732.9,742.608 1741.07,732.775 1751,724.5C 1754.64,716.848 1759.81,710.348 1766.5,705C 1783.09,702.524 1799.76,700.69 1816.5,699.5C 1817.52,697.105 1816.52,696.105 1813.5,696.5C 1813.28,693.886 1814.44,692.219 1817,691.5C 1817.79,688.037 1819.45,685.037 1822,682.5C 1823.98,676.584 1825.65,670.584 1827,664.5C 1827.69,663.643 1828.52,662.977 1829.5,662.5C 1830.33,668.472 1830.83,674.472 1831,680.5C 1832.89,684.032 1834.72,687.532 1836.5,691C 1835.57,693.338 1834.23,695.504 1832.5,697.5C 1832.91,700.229 1833.91,703.063 1835.5,706C 1840.87,708.735 1846.54,710.568 1852.5,711.5C 1863.75,706.696 1875.42,703.196 1887.5,701C 1891.67,699.167 1895.83,697.333 1900,695.5C 1903.17,695.144 1906.34,695.81 1909.5,697.5C 1910.17,697.167 1910.83,696.833 1911.5,696.5C 1912.38,697.76 1913.38,698.926 1914.5,700C 1918.42,701.598 1922.09,703.598 1925.5,706C 1924.66,707.666 1925.16,707.833 1927,706.5C 1931.47,709.961 1935.97,713.461 1940.5,717C 1942.05,718.646 1943.72,718.979 1945.5,718C 1946.1,720.468 1947.44,722.468 1949.5,724C 1954.1,726.27 1958.43,728.937 1962.5,732C 1964.33,733.167 1965.83,734.667 1967,736.5C 1967.33,736.167 1967.67,735.833 1968,735.5C 1973.14,739.409 1978.47,743.075 1984,746.5C 1985.81,745.391 1986.65,746.058 1986.5,748.5C 1988.29,748.215 1989.95,748.548 1991.5,749.5C 1995.27,754.17 1999.94,756.503 2005.5,756.5C 2008.43,758.785 2011.59,759.451 2015,758.5C 2017.37,760.117 2020.04,761.117 2023,761.5C 2031.76,761.269 2040.42,761.269 2049,761.5C 2051,761.004 2052.66,760.004 2054,758.5C 2058.25,758.921 2062.42,759.087 2066.5,759C 2070.31,754.09 2073.98,749.757 2077.5,746C 2080.37,745.262 2083.04,744.096 2085.5,742.5C 2087.6,742.479 2089.77,742.813 2092,743.5C 2093.19,741.475 2094.69,741.141 2096.5,742.5C 2099.56,741.208 2102.56,740.875 2105.5,741.5C 2110.34,740.863 2115.18,740.196 2120,739.5C 2121.26,739.759 2122.26,740.426 2123,741.5C 2126.36,740.521 2128.86,741.687 2130.5,745C 2137.09,747.393 2143.59,750.893 2150,755.5C 2150.41,755.043 2150.91,754.709 2151.5,754.5C 2167.82,765.571 2185.15,773.904 2203.5,779.5C 2207.49,775.896 2211.99,774.562 2217,775.5C 2218.91,774.324 2218.75,773.324 2216.5,772.5C 2217.27,771.289 2218.11,771.289 2219,772.5C 2220,769.833 2221,769.833 2222,772.5C 2223.31,770.109 2224.31,770.109 2225,772.5C 2225.37,771.584 2225.87,770.75 2226.5,770C 2228.88,769.489 2231.21,768.822 2233.5,768C 2236.12,761.916 2238.12,755.582 2239.5,749C 2238.07,746.733 2238.4,744.733 2240.5,743C 2242.37,742.289 2243.87,742.789 2245,744.5C 2244.52,750.611 2245.52,756.611 2248,762.5C 2251.2,765.538 2252.03,765.038 2250.5,761C 2252.58,760.471 2254.42,760.971 2256,762.5C 2260.28,758.695 2263.28,754.028 2265,748.5C 2266.33,747.167 2267.67,745.833 2269,744.5C 2270.62,745.536 2270.78,746.703 2269.5,748C 2272.03,750.574 2273.19,753.74 2273,757.5C 2273.9,756.299 2275.07,755.465 2276.5,755C 2275.55,754.282 2275.38,753.449 2276,752.5C 2278.18,752.529 2280.34,753.029 2282.5,754C 2282.04,753.586 2281.71,753.086 2281.5,752.5C 2283.39,751.576 2284.89,750.243 2286,748.5C 2288.57,749.983 2290.74,749.483 2292.5,747C 2292.17,746.667 2291.83,746.333 2291.5,746C 2295,743.293 2298.5,743.126 2302,745.5C 2302.22,744.062 2302.72,742.729 2303.5,741.5C 2305,744.131 2305.67,743.797 2305.5,740.5C 2307.14,740.286 2308.64,740.62 2310,741.5C 2316.17,737.838 2322.67,734.838 2329.5,732.5C 2330.09,732.709 2330.59,733.043 2331,733.5C 2336.56,730.944 2341.9,727.944 2347,724.5C 2348.41,725.668 2349.57,725.335 2350.5,723.5C 2353.46,725.834 2356.12,725.334 2358.5,722C 2361.49,721.67 2364.32,720.836 2367,719.5C 2368.15,721.512 2369.32,721.678 2370.5,720C 2369.1,718.658 2369.43,717.824 2371.5,717.5C 2373.05,719.146 2374.72,719.479 2376.5,718.5C 2377.2,720.385 2378.2,720.718 2379.5,719.5C 2380.71,720.274 2380.71,721.107 2379.5,722C 2380.45,722.483 2381.45,722.649 2382.5,722.5 Z M 1569.5,867.5 C 1571.17,867.5 1572.83,867.5 1574.5,867.5C 1574.67,875.174 1574.5,882.841 1574,890.5C 1571.24,889.501 1569.91,887.501 1570,884.5C 1567.05,885.232 1565.55,883.899 1565.5,880.5C 1562.39,880.826 1560.06,879.659 1558.5,877C 1559.83,876 1559.83,875 1558.5,874C 1556.87,874.43 1555.37,874.596 1554,874.5C 1553.5,874 1553,873.5 1552.5,873C 1556.79,871.943 1561.29,870.443 1566,868.5C 1567.31,869.287 1568.48,868.954 1569.5,867.5 Z M 5019.5,1355.5 C 5023.24,1355.46 5023.41,1356.13 5020,1357.5C 5019.54,1356.91 5019.37,1356.24 5019.5,1355.5 Z M 5128.5,1355.5 C 5128.16,1357.23 5127.16,1357.73 5125.5,1357C 5126.53,1356.49 5127.53,1355.99 5128.5,1355.5 Z M 5168.5,1358.5 C 5169.29,1358.78 5169.96,1359.28 5170.5,1360C 5169.18,1360.53 5168.52,1360.03 5168.5,1358.5 Z M 5161.5,1362.5 C 5162.72,1361.54 5164.05,1361.7 5165.5,1363C 5164.07,1363.58 5162.74,1363.41 5161.5,1362.5 Z M 5192.5,1362.5 C 5193.85,1361.2 5195.18,1361.37 5196.5,1363C 5195.07,1363.58 5193.74,1363.41 5192.5,1362.5 Z M 5203.5,1361.5 C 5204.78,1362.39 5204.78,1363.39 5203.5,1364.5C 5202.44,1363.58 5202.44,1362.58 5203.5,1361.5 Z M 5305.5,1371.5 C 5305.36,1373.34 5304.69,1373.67 5303.5,1372.5C 5303.96,1371.7 5304.62,1371.37 5305.5,1371.5 Z M 5335.5,1378.5 C 5334.73,1377.83 5334.07,1376.99 5333.5,1376C 5335.06,1375.81 5335.73,1376.65 5335.5,1378.5 Z M 5335.5,1378.5 C 5336.77,1377.91 5337.77,1377.91 5338.5,1378.5C 5337.39,1379.78 5336.39,1379.78 5335.5,1378.5 Z M 5380.5,1383.5 C 5381.08,1382.23 5381.74,1382.23 5382.5,1383.5C 5382.03,1384.46 5381.36,1384.46 5380.5,1383.5 Z"/></g>
<g><path style="opacity:0.067" fill="#d86d1a" d="M 1747.5,708.5 C 1748.83,709.167 1748.83,709.167 1747.5,708.5 Z"/></g>
<g><path style="opacity:0.087" fill="#d86d1a" d="M 2382.5,722.5 C 2382.64,720.663 2383.31,720.33 2384.5,721.5C 2384.04,722.298 2383.38,722.631 2382.5,722.5 Z"/></g>
<g><path style="opacity:0.201" fill="#d86d1a" d="M 2389.5,727.5 C 2389.95,725.535 2390.95,725.202 2392.5,726.5C 2391.68,727.386 2390.68,727.719 2389.5,727.5 Z"/></g>
<g><path style="opacity:0.208" fill="#d96d1a" d="M 31.5,750.5 C 32.6491,750.791 33.3158,751.624 33.5,753C 33.3333,753.833 33.1667,754.667 33,755.5C 31.1919,753.967 30.6919,752.3 31.5,750.5 Z"/></g>
<g><path style="opacity:0.067" fill="#d86d1a" d="M 33.5,756.5 C 34.8333,757.167 34.8333,757.167 33.5,756.5 Z"/></g>
<g><path style="opacity:0.243" fill="#d86d1a" d="M 1199.5,767.5 C 1200.83,768.167 1200.83,768.167 1199.5,767.5 Z"/></g>
<g><path style="opacity:0.067" fill="#d86d1a" d="M 1643.5,780.5 C 1646,780.511 1646.17,781.178 1644,782.5C 1643.54,781.906 1643.37,781.239 1643.5,780.5 Z"/></g>
<g><path style="opacity:0.067" fill="#d86d1a" d="M 2488.5,783.5 C 2488.9,782.475 2489.56,782.308 2490.5,783C 2489.91,783.464 2489.24,783.631 2488.5,783.5 Z"/></g>
<g><path style="opacity:0.067" fill="#d86d1a" d="M 1634.5,783.5 C 1635.29,783.783 1635.96,784.283 1636.5,785C 1635.18,785.528 1634.52,785.028 1634.5,783.5 Z"/></g>
<g><path style="opacity:0.333" fill="#d76d1a" d="M 1584.5,787.5 C 1583.83,786.167 1583.83,786.167 1584.5,787.5 Z"/></g>
<g><path style="opacity:0.108" fill="#d86d1a" d="M 1592.5,790.5 C 1592.37,789.761 1592.54,789.094 1593,788.5C 1593.69,789.437 1593.53,790.103 1592.5,790.5 Z"/></g>
<g><path style="opacity:0.067" fill="#d86d1a" d="M 1594.5,790.5 C 1595.83,791.167 1595.83,791.167 1594.5,790.5 Z"/></g>
<g><path style="opacity:0.396" fill="#d76c1b" d="M 165.5,802.5 C 162.999,802.489 162.832,801.822 165,800.5C 165.464,801.094 165.631,801.761 165.5,802.5 Z"/></g>
<g><path style="opacity:0.108" fill="#d86d1a" d="M 2524.5,814.5 C 2524.37,813.761 2524.54,813.094 2525,812.5C 2525.69,813.437 2525.53,814.103 2524.5,814.5 Z"/></g>
<g><path style="opacity:0.067" fill="#d86d1a" d="M 552.5,862.5 C 553.833,863.167 553.833,863.167 552.5,862.5 Z"/></g>
<g><path style="opacity:0.997" fill="#d56c1b" d="M 6476.5,2075.5 C 6254.83,2075.5 6033.17,2075.5 5811.5,2075.5C 5805.36,2070.59 5798.69,2066.42 5791.5,2063C 5786.21,2059.38 5781.21,2055.38 5776.5,2051C 5772.35,2050.76 5769.69,2048.76 5768.5,2045C 5767.13,2044.6 5765.79,2044.1 5764.5,2043.5C 5762.18,2040.52 5759.52,2037.85 5756.5,2035.5C 5754.9,2036.55 5754.06,2035.88 5754,2033.5C 5748.03,2027.29 5741.2,2021.29 5733.5,2015.5C 5730.85,2011.68 5728.02,2008.02 5725,2004.5C 5719.05,1998.24 5712.88,1992.24 5706.5,1986.5C 5704.22,1982.72 5701.39,1979.38 5698,1976.5C 5697.51,1975.21 5697.34,1973.87 5697.5,1972.5C 5695.57,1972.27 5693.9,1971.44 5692.5,1970C 5690.31,1967.31 5688.31,1964.47 5686.5,1961.5C 5685.26,1960.75 5683.93,1960.42 5682.5,1960.5C 5682.82,1958.28 5682.16,1956.44 5680.5,1955C 5680.83,1954.67 5681.17,1954.33 5681.5,1954C 5680.5,1953.67 5679.5,1953.33 5678.5,1953C 5675.08,1948.46 5671.41,1944.12 5667.5,1940C 5668.65,1939.09 5668.49,1938.25 5667,1937.5C 5666.67,1937.83 5666.33,1938.17 5666,1938.5C 5665.14,1936.91 5664.47,1935.25 5664,1933.5C 5658.3,1927.3 5652.8,1920.97 5647.5,1914.5C 5640.38,1902.36 5632.21,1891.7 5623,1882.5C 5620.67,1878.17 5618.33,1873.83 5616,1869.5C 5615.33,1868.17 5614.67,1868.17 5614,1869.5C 5612.34,1866.03 5610.17,1863.03 5607.5,1860.5C 5606.67,1858.5 5605.83,1856.5 5605,1854.5C 5598.8,1846.29 5592.96,1837.79 5587.5,1829C 5587.83,1828.67 5588.17,1828.33 5588.5,1828C 5587.5,1827.17 5586.5,1826.33 5585.5,1825.5C 5585.71,1824.91 5586.04,1824.41 5586.5,1824C 5578.31,1816.96 5572.81,1808.13 5570,1797.5C 5568.31,1795.98 5566.81,1794.32 5565.5,1792.5C 5566.46,1790.12 5565.46,1789.12 5562.5,1789.5C 5561.24,1784.71 5559.57,1780.04 5557.5,1775.5C 5555.18,1775.12 5554.51,1774.12 5555.5,1772.5C 5554.5,1771.83 5553.5,1771.17 5552.5,1770.5C 5552.5,1768.17 5552.5,1765.83 5552.5,1763.5C 5551.28,1760.53 5549.28,1758.37 5546.5,1757C 5546.83,1756.67 5547.17,1756.33 5547.5,1756C 5541.54,1740.01 5535.04,1724.18 5528,1708.5C 5526.89,1702.16 5524.73,1696.16 5521.5,1690.5C 5522.48,1688.9 5522.65,1687.24 5522,1685.5C 5518.86,1678.86 5516.53,1671.86 5515,1664.5C 5514.33,1663.83 5513.67,1663.17 5513,1662.5C 5510.34,1649.56 5506.84,1636.56 5502.5,1623.5C 5503.71,1621.15 5503.05,1619.32 5500.5,1618C 5501.08,1617.11 5501.41,1616.11 5501.5,1615C 5497.86,1604.88 5495.19,1594.21 5493.5,1583C 5494.5,1580.91 5493.83,1579.24 5491.5,1578C 5491.83,1577.67 5492.17,1577.33 5492.5,1577C 5489.53,1567.38 5487.37,1557.55 5486,1547.5C 5484.24,1546.58 5484.08,1545.41 5485.5,1544C 5483.43,1542.05 5483.1,1539.88 5484.5,1537.5C 5483.79,1535.22 5483.29,1532.89 5483,1530.5C 5482.5,1530 5482,1529.5 5481.5,1529C 5482.48,1523.64 5481.82,1518.14 5479.5,1512.5C 5480.3,1510.24 5479.64,1508.24 5477.5,1506.5C 5479.02,1504.84 5478.69,1503.68 5476.5,1503C 5477.02,1502.44 5477.36,1501.77 5477.5,1501C 5475.81,1493.36 5474.14,1485.69 5472.5,1478C 5473.97,1472.49 5472.97,1467.16 5469.5,1462C 5470.02,1461.44 5470.36,1460.77 5470.5,1460C 5468.55,1453.89 5467.88,1447.72 5468.5,1441.5C 5465.96,1440.06 5465.96,1438.56 5468.5,1437C 5467.83,1436.33 5467.17,1435.67 5466.5,1435C 5466.62,1433.73 5466.95,1432.4 5467.5,1431C 5465.77,1428.7 5464.77,1426.03 5464.5,1423C 5463.51,1418.52 5463.51,1414.19 5464.5,1410C 5463.83,1409.33 5463.17,1408.67 5462.5,1408C 5462.37,1405.4 5462.37,1402.73 5462.5,1400C 5460.32,1397.58 5459.99,1394.92 5461.5,1392C 5459.42,1385.36 5458.08,1378.52 5457.5,1371.5C 5458.67,1370.09 5458.33,1368.93 5456.5,1368C 5456.28,1364.45 5456.62,1360.78 5457.5,1357C 5454.97,1352.27 5454.31,1347.6 5455.5,1343C 5454.69,1341.69 5453.69,1340.52 5452.5,1339.5C 5452.41,1332.28 5452.41,1325.28 5452.5,1318.5C 5452.09,1315.59 5451.09,1312.92 5449.5,1310.5C 5451.97,1308.9 5451.97,1307.4 5449.5,1306C 5449.24,1304.63 5449.58,1303.13 5450.5,1301.5C 5449.96,1300.26 5449.3,1299.09 5448.5,1298C 5448.64,1297.23 5448.98,1296.56 5449.5,1296C 5448.78,1293.54 5448.12,1291.04 5447.5,1288.5C 5448.61,1282.39 5447.95,1276.22 5445.5,1270C 5445.5,1268.6 5445.83,1267.1 5446.5,1265.5C 5445.93,1263.94 5445.26,1262.44 5444.5,1261C 5445.03,1256.58 5445.37,1252.08 5445.5,1247.5C 5444.98,1245.55 5443.98,1243.88 5442.5,1242.5C 5442.43,1238.23 5442.43,1233.89 5442.5,1229.5C 5441.5,1224.83 5440.5,1220.17 5439.5,1215.5C 5440.61,1213.5 5440.28,1211.67 5438.5,1210C 5439.13,1204.93 5439.13,1199.93 5438.5,1195C 5435.93,1190.47 5434.6,1185.81 5434.5,1181C 5435.18,1174.73 5435.18,1168.57 5434.5,1162.5C 5433.94,1157.08 5432.94,1151.74 5431.5,1146.5C 5432.2,1142.29 5432.53,1137.95 5432.5,1133.5C 5431.96,1132.25 5431.29,1131.09 5430.5,1130C 5430.53,1124.17 5430.53,1118.34 5430.5,1112.5C 5429.45,1107.03 5428.45,1101.53 5427.5,1096C 5427.57,1088.61 5427.57,1081.28 5427.5,1074C 5426.83,1073.67 5426.17,1073.33 5425.5,1073C 5426.08,1069.1 5426.42,1065.1 5426.5,1061C 5425.69,1057.8 5424.69,1054.64 5423.5,1051.5C 5424.08,1048.73 5424.41,1045.89 5424.5,1043C 5423.83,1040.67 5423.17,1038.33 5422.5,1036C 5423.01,1033.83 5423.01,1031.5 5422.5,1029C 5422.91,1028.05 5423.57,1027.39 5424.5,1027C 5421.83,1024.67 5421.83,1022.33 5424.5,1020C 5423.44,1011.24 5423.44,1002.9 5424.5,995C 5422.57,992.729 5422.57,990.729 5424.5,989C 5423.87,988.25 5423.37,987.416 5423,986.5C 5421.98,987.891 5421.15,989.391 5420.5,991C 5417.05,993.059 5413.72,994.559 5410.5,995.5C 5411.86,990.368 5413.2,985.202 5414.5,980C 5416.12,973.325 5419.12,966.992 5423.5,961C 5422.17,959.16 5422.33,958.66 5424,959.5C 5427.63,950.359 5430.96,941.026 5434,931.5C 5443.38,916.569 5452.88,901.736 5462.5,887C 5481.63,887.275 5500.63,885.942 5519.5,883C 5546.09,877.078 5572.43,870.245 5598.5,862.5C 5602.11,862.804 5605.45,863.971 5608.5,866C 5616.5,871.667 5624.5,877.333 5632.5,883C 5638.44,886.803 5644.77,889.803 5651.5,892C 5665.31,894.334 5679.14,895.167 5693,894.5C 5701.21,894.616 5709.38,895.283 5717.5,896.5C 5737.24,893.786 5756.91,890.619 5776.5,887C 5790.86,886.144 5804.86,884.644 5818.5,882.5C 5827.81,886.831 5836.14,892.664 5843.5,900C 5846.46,899.817 5849.46,900.484 5852.5,902C 5853.68,904.513 5855.51,906.346 5858,907.5C 5860.44,906.03 5862.94,904.696 5865.5,903.5C 5868.86,904.523 5871.19,906.69 5872.5,910C 5873.5,910.667 5874.5,910.667 5875.5,910C 5879.76,905.89 5882.76,901.39 5884.5,896.5C 5886.29,896.043 5888.29,896.043 5890.5,896.5C 5892.13,904.412 5893.29,912.412 5894,920.5C 5895.69,922.027 5897.53,923.36 5899.5,924.5C 5903.2,924.189 5906.87,922.855 5910.5,920.5C 5913.09,920.327 5915.76,920.327 5918.5,920.5C 5922.42,917.529 5925.59,918.195 5928,922.5C 5930.04,921.577 5932.21,921.244 5934.5,921.5C 5935.98,915.556 5938.15,909.89 5941,904.5C 5942.93,901.615 5945.43,900.948 5948.5,902.5C 5952.37,907.976 5955.03,913.976 5956.5,920.5C 5957.82,920.33 5958.99,920.663 5960,921.5C 5960.24,928.355 5963.57,932.688 5970,934.5C 5976.96,931.942 5981.13,926.942 5982.5,919.5C 5984.18,918.218 5986.01,917.218 5988,916.5C 5989.95,912.268 5991.62,907.934 5993,903.5C 5995.49,901.503 5998.32,900.503 6001.5,900.5C 6002.05,905.359 6002.05,909.859 6001.5,914C 6006.2,918.367 6009.7,923.534 6012,929.5C 6016.33,933.5 6020.67,933.5 6025,929.5C 6026.76,923.299 6030.43,918.632 6036,915.5C 6038.33,912.5 6040.67,909.5 6043,906.5C 6043.59,907.899 6043.43,909.232 6042.5,910.5C 6047.75,919.414 6050.25,929.08 6050,939.5C 6052.03,943.026 6054.86,945.693 6058.5,947.5C 6059.99,944.523 6061.66,941.19 6063.5,937.5C 6067.4,936.553 6070.07,934.22 6071.5,930.5C 6073.19,929.772 6074.69,928.772 6076,927.5C 6076.45,925.481 6077.28,923.648 6078.5,922C 6078.04,921.586 6077.71,921.086 6077.5,920.5C 6079.94,916.313 6083.28,913.98 6087.5,913.5C 6089.54,914.277 6090.21,915.443 6089.5,917C 6090.96,918.745 6092.29,920.578 6093.5,922.5C 6092.65,924.409 6092.32,926.409 6092.5,928.5C 6094.67,928.92 6096.67,928.92 6098.5,928.5C 6100.85,932.257 6104.02,933.924 6108,933.5C 6111.62,936.891 6115.62,937.225 6120,934.5C 6122.25,934.998 6124.25,935.998 6126,937.5C 6128.52,936.227 6131.02,936.227 6133.5,937.5C 6136.39,936.26 6139.23,934.926 6142,933.5C 6142.48,932.552 6142.65,931.552 6142.5,930.5C 6144.39,930.703 6145.89,930.037 6147,928.5C 6148.48,930.781 6150.15,930.781 6152,928.5C 6152.52,931.55 6154.02,933.883 6156.5,935.5C 6160.67,935.079 6164.84,934.746 6169,934.5C 6170.82,937 6173.15,938.666 6176,939.5C 6179.77,937.678 6183.6,937.012 6187.5,937.5C 6188.98,938.989 6189.81,940.655 6190,942.5C 6192.66,938.355 6194.5,933.855 6195.5,929C 6198.74,927.577 6202.07,927.577 6205.5,929C 6206.02,929.561 6206.36,930.228 6206.5,931C 6204.68,937.778 6203.35,944.111 6202.5,950C 6203.05,950.925 6203.71,951.758 6204.5,952.5C 6206.63,952.525 6208.63,953.025 6210.5,954C 6211.09,955.509 6211.76,957.009 6212.5,958.5C 6214.61,959.961 6216.61,960.794 6218.5,961C 6218.04,961.414 6217.71,961.914 6217.5,962.5C 6221.6,964.151 6224.1,967.151 6225,971.5C 6229.2,976.616 6233.36,981.616 6237.5,986.5C 6239.6,985.035 6241.77,983.701 6244,982.5C 6246.63,984.229 6249.46,985.563 6252.5,986.5C 6254.76,984.831 6257.09,984.165 6259.5,984.5C 6262.17,986.835 6265.17,988.669 6268.5,990C 6269.96,991.745 6271.29,993.578 6272.5,995.5C 6274.57,996.134 6276.4,997.134 6278,998.5C 6278.32,996.699 6278.98,996.366 6280,997.5C 6281.82,995.559 6283.82,994.892 6286,995.5C 6287.67,991.167 6289.33,986.833 6291,982.5C 6291.74,983.641 6292.57,983.641 6293.5,982.5C 6294.25,984.165 6295.75,985.832 6298,987.5C 6298.35,989.218 6298.85,990.885 6299.5,992.5C 6298.74,994.451 6298.41,996.284 6298.5,998C 6299.13,998.75 6299.63,999.584 6300,1000.5C 6304.26,999.903 6308.26,998.57 6312,996.5C 6314.68,997.036 6317.51,998.036 6320.5,999.5C 6321.67,999.081 6322.67,998.415 6323.5,997.5C 6327.76,997.995 6331.92,997.995 6336,997.5C 6337.48,995.219 6339.15,995.219 6341,997.5C 6347.44,995.77 6354.1,996.77 6361,1000.5C 6363.36,999.869 6365.52,999.869 6367.5,1000.5C 6373.34,1004.21 6379.5,1005.88 6386,1005.5C 6388.73,1007.4 6391.57,1008.06 6394.5,1007.5C 6398.42,1008.91 6402.26,1010.58 6406,1012.5C 6409.77,1011.18 6413.61,1011.85 6417.5,1014.5C 6418.96,1013.39 6419.96,1013.89 6420.5,1016C 6426.38,1018.52 6431.88,1021.69 6437,1025.5C 6438.63,1024.9 6440.29,1025.24 6442,1026.5C 6442.33,1026.17 6442.67,1025.83 6443,1025.5C 6447.93,1026.89 6452.93,1027.89 6458,1028.5C 6459,1028.17 6460,1027.83 6461,1027.5C 6464.4,1028.68 6467.73,1030.02 6471,1031.5C 6472.27,1031.38 6473.6,1031.05 6475,1030.5C 6480.31,1032.99 6485.65,1035.32 6491,1037.5C 6492.8,1037.28 6494.63,1036.95 6496.5,1036.5C 6505.23,1039.31 6514.06,1041.65 6523,1043.5C 6525.67,1043.5 6528.33,1043.5 6531,1043.5C 6531.78,1045.21 6533.11,1046.21 6535,1046.5C 6538.79,1047.53 6542.46,1048.86 6546,1050.5C 6546.33,1050.17 6546.67,1049.83 6547,1049.5C 6555.02,1053.64 6563.02,1056.3 6571,1057.5C 6574.39,1060.68 6578.06,1062.68 6582,1063.5C 6582.33,1063.17 6582.67,1062.83 6583,1062.5C 6591.34,1067.18 6599.84,1071.68 6608.5,1076C 6609.48,1078.4 6610.98,1079.24 6613,1078.5C 6623.24,1086.94 6634.74,1094.44 6647.5,1101C 6648.05,1101.92 6648.71,1102.76 6649.5,1103.5C 6686.77,1119.14 6719.11,1140.97 6746.5,1169C 6748.83,1170.67 6751.17,1172.33 6753.5,1174C 6769.94,1191.44 6786.6,1208.44 6803.5,1225C 6807.13,1228.49 6811.13,1231.32 6815.5,1233.5C 6817.04,1236.23 6818.87,1238.9 6821,1241.5C 6832,1252.84 6843.34,1263.84 6855,1274.5C 6860.54,1282.72 6866.87,1290.38 6874,1297.5C 6881.09,1309.25 6888.93,1320.41 6897.5,1331C 6899.68,1337.86 6903.01,1344.03 6907.5,1349.5C 6911.6,1357.62 6915.44,1365.95 6919,1374.5C 6921.12,1375.22 6921.62,1376.39 6920.5,1378C 6922.32,1380.06 6922.99,1382.22 6922.5,1384.5C 6924.5,1387.17 6926.5,1389.83 6928.5,1392.5C 6928.29,1393.09 6927.96,1393.59 6927.5,1394C 6929.88,1397.25 6931.88,1400.75 6933.5,1404.5C 6933.29,1405.09 6932.96,1405.59 6932.5,1406C 6935.47,1413.22 6938.63,1420.39 6942,1427.5C 6947.78,1445.08 6953.61,1462.75 6959.5,1480.5C 6959.39,1481.44 6959.06,1482.28 6958.5,1483C 6960.73,1486.82 6961.4,1490.82 6960.5,1495C 6963.32,1500.43 6964.32,1506.1 6963.5,1512C 6965.39,1515.91 6966.72,1520.08 6967.5,1524.5C 6967.41,1528.04 6967.41,1531.54 6967.5,1535C 6969.53,1536.19 6969.86,1537.69 6968.5,1539.5C 6971.03,1540.52 6971.03,1541.68 6968.5,1543C 6969.42,1548.31 6970.42,1553.64 6971.5,1559C 6969.06,1565.13 6969.06,1570.96 6971.5,1576.5C 6969.97,1583.2 6969.63,1589.7 6970.5,1596C 6968.51,1597.61 6968.18,1599.44 6969.5,1601.5C 6968.89,1603.71 6968.23,1605.88 6967.5,1608C 6967.76,1612.68 6967.76,1617.35 6967.5,1622C 6966.01,1628.62 6964.35,1635.12 6962.5,1641.5C 6962.61,1642.44 6962.94,1643.28 6963.5,1644C 6962.12,1647.46 6960.79,1650.96 6959.5,1654.5C 6959.71,1655.09 6960.04,1655.59 6960.5,1656C 6960.03,1660.28 6958.36,1663.94 6955.5,1667C 6956.31,1667.31 6956.97,1667.81 6957.5,1668.5C 6954.37,1674.14 6952.04,1679.81 6950.5,1685.5C 6951.61,1686.96 6951.11,1687.96 6949,1688.5C 6947.72,1692.16 6946.22,1695.66 6944.5,1699C 6945.52,1700.05 6945.68,1701.22 6945,1702.5C 6940.62,1711.42 6935.46,1720.25 6929.5,1729C 6928.64,1730.45 6928.48,1731.95 6929,1733.5C 6927.23,1734.3 6925.73,1735.47 6924.5,1737C 6925.73,1738.18 6925.73,1739.35 6924.5,1740.5C 6923.91,1740.29 6923.41,1739.96 6923,1739.5C 6919.97,1747.56 6915.31,1754.56 6909,1760.5C 6908.38,1761.45 6908.55,1762.28 6909.5,1763C 6906.14,1766.87 6903.14,1771.04 6900.5,1775.5C 6898.95,1776.68 6897.29,1777.68 6895.5,1778.5C 6895.71,1779.09 6896.04,1779.59 6896.5,1780C 6891.61,1784.08 6887.77,1788.92 6885,1794.5C 6884.67,1793.83 6884.33,1793.17 6884,1792.5C 6882.86,1795.1 6882.03,1797.77 6881.5,1800.5C 6880.45,1800.35 6879.45,1800.52 6878.5,1801C 6878.83,1801.33 6879.17,1801.67 6879.5,1802C 6876.57,1802.69 6875.24,1804.52 6875.5,1807.5C 6873.9,1807.31 6872.56,1807.81 6871.5,1809C 6868.05,1814.5 6863.55,1819.66 6858,1824.5C 6855.59,1828.3 6852.93,1831.96 6850,1835.5C 6849.33,1836.83 6848.67,1836.83 6848,1835.5C 6846.13,1836.82 6845.29,1838.32 6845.5,1840C 6842.35,1842.74 6839.01,1845.24 6835.5,1847.5C 6836.63,1849.53 6836.13,1849.86 6834,1848.5C 6831.52,1853.64 6827.69,1857.48 6822.5,1860C 6823.83,1860.67 6823.83,1861.33 6822.5,1862C 6816.23,1865.63 6810.56,1869.96 6805.5,1875C 6803.38,1877.41 6801.38,1879.91 6799.5,1882.5C 6798.91,1882.29 6798.41,1881.96 6798,1881.5C 6796.98,1882.89 6796.15,1884.39 6795.5,1886C 6789.83,1889.83 6784.16,1893.67 6778.5,1897.5C 6777.31,1899.91 6775.81,1902.24 6774,1904.5C 6773.67,1904.17 6773.33,1903.83 6773,1903.5C 6768.48,1907.75 6763.81,1911.75 6759,1915.5C 6758.67,1915.17 6758.33,1914.83 6758,1914.5C 6753.98,1919.35 6749.48,1923.69 6744.5,1927.5C 6742.48,1929.03 6740.48,1929.7 6738.5,1929.5C 6731.8,1935.2 6725.14,1940.87 6718.5,1946.5C 6715.41,1947.35 6712.91,1949.02 6711,1951.5C 6709.93,1950.72 6708.76,1950.89 6707.5,1952C 6706.62,1953.59 6705.62,1955.09 6704.5,1956.5C 6703.83,1956.17 6703.17,1955.83 6702.5,1955.5C 6698.83,1958.17 6695.17,1960.83 6691.5,1963.5C 6690.61,1964.32 6690.28,1965.32 6690.5,1966.5C 6689.13,1966.34 6687.79,1966.51 6686.5,1967C 6680.5,1971.33 6674.5,1975.67 6668.5,1980C 6661.98,1982.55 6656.31,1986.22 6651.5,1991C 6643.85,1994.16 6636.85,1998.33 6630.5,2003.5C 6625.04,2005.8 6619.71,2008.3 6614.5,2011C 6615.6,2013.39 6614.94,2013.89 6612.5,2012.5C 6609.59,2014.07 6606.93,2015.9 6604.5,2018C 6602.22,2018.99 6599.89,2019.82 6597.5,2020.5C 6592.03,2024.89 6585.7,2027.73 6578.5,2029C 6577.23,2030.31 6576.23,2031.81 6575.5,2033.5C 6574.91,2033.29 6574.41,2032.96 6574,2032.5C 6565.02,2037.63 6556.35,2042.29 6548,2046.5C 6547.59,2046.04 6547.09,2045.71 6546.5,2045.5C 6536.11,2051.68 6525.11,2056.52 6513.5,2060C 6511.13,2061.72 6508.63,2063.22 6506,2064.5C 6505.67,2064.17 6505.33,2063.83 6505,2063.5C 6495.1,2066.98 6485.6,2070.98 6476.5,2075.5 Z"/></g>
<g><path style="opacity:0.149" fill="#d86d1a" d="M 552.5,863.5 C 551.833,864.167 551.833,864.167 552.5,863.5 Z"/></g>
<g><path style="opacity:0.333" fill="#d76d1a" d="M 550.5,865.5 C 551.833,866.167 551.833,866.167 550.5,865.5 Z"/></g>
<g><path style="opacity:0.373" fill="#d86c1b" d="M 569.5,880.5 C 572.523,880.105 573.523,881.105 572.5,883.5C 574.856,884.654 575.023,885.987 573,887.5C 571.121,885.473 569.954,883.14 569.5,880.5 Z"/></g>
<g><path style="opacity:0.149" fill="#d86d1a" d="M 548.5,889.5 C 549.833,890.167 549.833,890.167 548.5,889.5 Z"/></g>
<g><path style="opacity:0.245" fill="#d96d1a" d="M 6014.5,905.5 C 6017.55,905.494 6018.05,906.494 6016,908.5C 6014.96,907.756 6014.46,906.756 6014.5,905.5 Z"/></g>
<g><path style="opacity:0.612" fill="#d66c1a" d="M 877.5,924.5 C 878.833,925.167 878.833,925.167 877.5,924.5 Z"/></g>
<g><path style="opacity:0.223" fill="#d86c1b" d="M 2720.5,932.5 C 2723.57,932.963 2724.07,934.296 2722,936.5C 2720.81,935.437 2720.31,934.103 2720.5,932.5 Z"/></g>
<g><path style="opacity:0.087" fill="#d86d1a" d="M 2733.5,933.5 C 2735.34,933.639 2735.67,934.306 2734.5,935.5C 2733.7,935.043 2733.37,934.376 2733.5,933.5 Z"/></g>
<g><path style="opacity:0.152" fill="#d86d1a" d="M 2725.5,935.5 C 2727.34,935.639 2727.67,936.306 2726.5,937.5C 2725.7,937.043 2725.37,936.376 2725.5,935.5 Z"/></g>
<g><path style="opacity:0.244" fill="#d86c1b" d="M 2743.5,937.5 C 2746.57,937.963 2747.07,939.296 2745,941.5C 2743.81,940.437 2743.31,939.103 2743.5,937.5 Z"/></g>
<g><path style="opacity:0.311" fill="#d96d1a" d="M 2761.5,942.5 C 2763.97,943.36 2764.14,944.694 2762,946.5C 2761.51,945.207 2761.34,943.873 2761.5,942.5 Z"/></g>
<g><path style="opacity:0.067" fill="#d86d1a" d="M 2696.5,946.5 C 2695.83,945.167 2695.83,945.167 2696.5,946.5 Z"/></g>
<g><path style="opacity:0.067" fill="#d86d1a" d="M 2689.5,947.5 C 2688.83,946.167 2688.83,946.167 2689.5,947.5 Z"/></g>
<g><path style="opacity:0.067" fill="#d86d1a" d="M 2769.5,947.5 C 2770.83,948.167 2770.83,948.167 2769.5,947.5 Z"/></g>
<g><path style="opacity:0.067" fill="#d86d1a" d="M 2673.5,949.5 C 2674.83,950.167 2674.83,950.167 2673.5,949.5 Z"/></g>
<g><path style="opacity:0.067" fill="#d86d1a" d="M 2577.5,954.5 C 2576.83,953.167 2576.83,953.167 2577.5,954.5 Z"/></g>
<g><path style="opacity:0.108" fill="#d86d1a" d="M 2607.5,954.5 C 2608.25,953.427 2609.25,953.26 2610.5,954C 2609.65,955.728 2608.65,955.895 2607.5,954.5 Z"/></g>
<g><path style="opacity:0.067" fill="#d86d1a" d="M 2617.5,955.5 C 2619.34,955.639 2619.67,956.306 2618.5,957.5C 2617.7,957.043 2617.37,956.376 2617.5,955.5 Z"/></g>
<g><path style="opacity:0.067" fill="#d86d1a" d="M 2778.5,957.5 C 2778.64,955.663 2779.31,955.33 2780.5,956.5C 2780.04,957.298 2779.38,957.631 2778.5,957.5 Z"/></g>
<g><path style="opacity:0.996" fill="#dd701c" d="M 2783.5,964.5 C 2786.05,965.438 2786.55,966.771 2785,968.5C 2784.21,967.255 2783.71,965.922 2783.5,964.5 Z"/></g>
<g><path style="opacity:0.996" fill="#dd701c" d="M 2790.5,968.5 C 2788.65,969.614 2788.15,968.948 2789,966.5C 2789.72,967.044 2790.22,967.711 2790.5,968.5 Z"/></g>
<g><path style="opacity:0.996" fill="#dd6f1c" d="M 2796.5,968.5 C 2796.06,968.435 2795.73,968.601 2795.5,969C 2799.14,972.126 2802.14,975.626 2804.5,979.5C 2803.79,980.404 2802.79,980.737 2801.5,980.5C 2801.76,979.022 2801.43,977.689 2800.5,976.5C 2798.47,977.629 2798.14,977.129 2799.5,975C 2798.75,973.513 2797.91,973.346 2797,974.5C 2796.67,973.5 2796.33,972.5 2796,971.5C 2795.67,971.833 2795.33,972.167 2795,972.5C 2794.33,967.167 2793.67,967.167 2793,972.5C 2792.52,970.867 2791.69,969.534 2790.5,968.5C 2792.54,965.867 2794.54,965.867 2796.5,968.5 Z"/></g>
<g><path style="opacity:0.996" fill="#db6e1c" d="M 2856.5,1016.5 C 2857.61,1015.05 2857.78,1013.39 2857,1011.5C 2855.33,1009.83 2853.67,1008.17 2852,1006.5C 2850.84,1008.8 2849.84,1008.46 2849,1005.5C 2846.77,1009.32 2844.77,1009.32 2843,1005.5C 2842.67,1005.83 2842.33,1006.17 2842,1006.5C 2841.15,1004.13 2839.82,1002.13 2838,1000.5C 2836.58,1001.57 2835.25,1001.57 2834,1000.5C 2832.4,1002.51 2830.4,1002.51 2828,1000.5C 2827.71,998.956 2827.04,997.623 2826,996.5C 2825.67,997.167 2825.33,997.833 2825,998.5C 2824.58,997.328 2823.91,996.328 2823,995.5C 2821.67,995.5 2820.33,995.5 2819,995.5C 2818.69,993.487 2819.36,993.154 2821,994.5C 2821.74,991.888 2820.74,990.222 2818,989.5C 2817,992.167 2816,992.167 2815,989.5C 2814.67,989.833 2814.33,990.167 2814,990.5C 2813.77,989.263 2813.27,988.263 2812.5,987.5C 2813.68,985.897 2813.51,984.564 2812,983.5C 2811.28,984.044 2810.78,984.711 2810.5,985.5C 2808.98,985.489 2807.82,984.823 2807,983.5C 2805.25,984.174 2803.58,984.507 2802,984.5C 2801.09,983.672 2800.42,982.672 2800,981.5C 2798.5,981.835 2797.16,981.835 2796,981.5C 2795.83,981.167 2795.67,980.833 2795.5,980.5C 2797.52,979.306 2799.52,979.306 2801.5,980.5C 2802.53,981.249 2803.7,981.915 2805,982.5C 2807.14,980.947 2806.97,979.947 2804.5,979.5C 2802.14,975.626 2799.14,972.126 2795.5,969C 2795.73,968.601 2796.06,968.435 2796.5,968.5C 2798.34,968.023 2800.17,967.69 2802,967.5C 2803.19,968.563 2803.69,969.897 2803.5,971.5C 2805.39,971.297 2806.89,971.963 2808,973.5C 2809.02,972.366 2809.68,972.699 2810,974.5C 2815.18,972.946 2819.85,974.279 2824,978.5C 2825.51,976.043 2826.85,976.043 2828,978.5C 2828.56,977.978 2829.23,977.645 2830,977.5C 2833.02,978.473 2836.02,979.473 2839,980.5C 2839.41,980.043 2839.91,979.709 2840.5,979.5C 2842.96,982.281 2845.3,985.114 2847.5,988C 2847.17,988.333 2846.83,988.667 2846.5,989C 2849.03,990.033 2850.7,991.867 2851.5,994.5C 2851.29,995.086 2850.96,995.586 2850.5,996C 2854.73,996.849 2856.4,999.182 2855.5,1003C 2859.24,1006.08 2861.74,1009.58 2863,1013.5C 2863.33,1013.17 2863.67,1012.83 2864,1012.5C 2866.08,1016.33 2868.41,1020 2871,1023.5C 2871.65,1022.3 2872.15,1022.3 2872.5,1023.5C 2870.34,1025.77 2868.34,1025.77 2866.5,1023.5C 2865.91,1023.71 2865.41,1024.04 2865,1024.5C 2864.03,1022.61 2863.36,1020.61 2863,1018.5C 2862.67,1019.5 2862.33,1020.5 2862,1021.5C 2861.33,1020.17 2860.67,1018.83 2860,1017.5C 2858.69,1018.29 2857.52,1017.95 2856.5,1016.5 Z"/></g>
<g><path style="opacity:0.996" fill="#dd701c" d="M 2794.5,976.5 C 2795.29,976.783 2795.96,977.283 2796.5,978C 2795.18,978.528 2794.52,978.028 2794.5,976.5 Z"/></g>
<g><path style="opacity:1" fill="#d46c1a" d="M 2804.5,979.5 C 2806.97,979.947 2807.14,980.947 2805,982.5C 2803.7,981.915 2802.53,981.249 2801.5,980.5C 2802.79,980.737 2803.79,980.404 2804.5,979.5 Z"/></g>
<g><path style="opacity:0.996" fill="#dd701c" d="M 2746.5,984.5 C 2746.52,982.972 2747.18,982.472 2748.5,983C 2747.96,983.717 2747.29,984.217 2746.5,984.5 Z"/></g>
<g><path style="opacity:1" fill="#d46c1a" d="M 2812.5,987.5 C 2812.17,987.5 2811.83,987.5 2811.5,987.5C 2811.67,986.508 2811.34,985.842 2810.5,985.5C 2810.78,984.711 2811.28,984.044 2812,983.5C 2813.51,984.564 2813.68,985.897 2812.5,987.5 Z"/></g>
<g><path style="opacity:0.996" fill="#dd701c" d="M 2746.5,984.5 C 2746.5,986.5 2745.5,987.5 2743.5,987.5C 2744.17,986.167 2745.17,985.167 2746.5,984.5 Z"/></g>
<g><path style="opacity:0.996" fill="#dd701c" d="M 2750.5,986.5 C 2752.65,986.696 2752.81,987.696 2751,989.5C 2750.52,988.552 2750.35,987.552 2750.5,986.5 Z"/></g>
<g><path style="opacity:0.996" fill="#dd701c" d="M 2743.5,987.5 C 2743.01,988.473 2742.51,989.473 2742,990.5C 2741.27,988.843 2741.77,987.843 2743.5,987.5 Z"/></g>
<g><path style="opacity:0.996" fill="#dd701c" d="M 2811.5,987.5 C 2811.83,987.5 2812.17,987.5 2812.5,987.5C 2812.63,988.376 2812.3,989.043 2811.5,989.5C 2810.54,989.03 2810.54,988.363 2811.5,987.5 Z"/></g>
<g><path style="opacity:1" fill="#d46c1a" d="M 2825.5,992.5 C 2829.69,995.952 2829.36,996.785 2824.5,995C 2825.25,994.329 2825.59,993.496 2825.5,992.5 Z"/></g>
<g><path style="opacity:1" fill="#d46c1a" d="M 2831.5,997.5 C 2832.77,998.077 2832.77,998.743 2831.5,999.5C 2830.54,999.03 2830.54,998.363 2831.5,997.5 Z"/></g>
<g><path style="opacity:0.067" fill="#d86d1a" d="M 793.5,999.5 C 794.833,1000.17 794.833,1000.17 793.5,999.5 Z"/></g>
<g><path style="opacity:0.996" fill="#dd701c" d="M 2850.5,1010.5 C 2853,1010.51 2853.17,1011.18 2851,1012.5C 2850.54,1011.91 2850.37,1011.24 2850.5,1010.5 Z"/></g>
<g><path style="opacity:0.996" fill="#dd701c" d="M 2856.5,1016.5 C 2855.76,1016.63 2855.09,1016.46 2854.5,1016C 2855.11,1014.7 2855.45,1013.53 2855.5,1012.5C 2856.43,1013.69 2856.76,1015.02 2856.5,1016.5 Z"/></g>
<g><path style="opacity:0.067" fill="#d86d1a" d="M 3103.5,1017.5 C 3103.9,1016.47 3104.56,1016.31 3105.5,1017C 3104.91,1017.46 3104.24,1017.63 3103.5,1017.5 Z"/></g>
<g><path style="opacity:0.067" fill="#d86d1a" d="M 3110.5,1018.5 C 3109.83,1017.17 3109.83,1017.17 3110.5,1018.5 Z"/></g>
<g><path style="opacity:0.996" fill="#dd701c" d="M 2867.5,1028.5 C 2865,1028.49 2864.83,1027.82 2867,1026.5C 2867.46,1027.09 2867.63,1027.76 2867.5,1028.5 Z"/></g>
<g><path style="opacity:0.996" fill="#dd701c" d="M 2871.5,1029.5 C 2870.31,1030.05 2869.14,1030.38 2868,1030.5C 2867.54,1029.91 2867.37,1029.24 2867.5,1028.5C 2869.12,1028.64 2870.29,1027.97 2871,1026.5C 2871.48,1027.45 2871.65,1028.45 2871.5,1029.5 Z"/></g>
<g><path style="opacity:0.067" fill="#d86d1a" d="M 3168.5,1030.5 C 3169.83,1031.17 3169.83,1031.17 3168.5,1030.5 Z"/></g>
<g><path style="opacity:0.996" fill="#db6e1c" d="M 2888.5,1051.5 C 2888.17,1051.5 2887.83,1051.5 2887.5,1051.5C 2885.05,1049.58 2882.38,1047.08 2879.5,1044C 2880.17,1043.67 2880.83,1043.33 2881.5,1043C 2879.69,1043.05 2878.02,1042.88 2876.5,1042.5C 2877.66,1040.78 2877.49,1039.11 2876,1037.5C 2874.44,1038.21 2873.28,1037.54 2872.5,1035.5C 2873.27,1034.29 2874.11,1034.29 2875,1035.5C 2875.31,1034.23 2875.81,1033.07 2876.5,1032C 2875.55,1031.38 2874.72,1031.55 2874,1032.5C 2872.96,1031.53 2872.13,1030.53 2871.5,1029.5C 2872.23,1028.19 2873.07,1026.86 2874,1025.5C 2874.32,1027.3 2874.98,1027.63 2876,1026.5C 2877.11,1027.76 2877.28,1028.93 2876.5,1030C 2882.25,1036.06 2888.59,1041.39 2895.5,1046C 2898.36,1048.22 2900.36,1051.05 2901.5,1054.5C 2903.19,1055.23 2904.69,1056.23 2906,1057.5C 2907.67,1056.66 2907.83,1057.16 2906.5,1059C 2908.02,1061.2 2909.35,1063.54 2910.5,1066C 2909.67,1066.91 2908.67,1067.58 2907.5,1068C 2907.83,1068.33 2908.17,1068.67 2908.5,1069C 2907,1069.51 2905.84,1069.01 2905,1067.5C 2903.02,1069.3 2901.02,1070.3 2899,1070.5C 2898.33,1067.83 2897.67,1067.83 2897,1070.5C 2895.5,1066.84 2893.5,1063.5 2891,1060.5C 2890.41,1059.1 2890.57,1057.77 2891.5,1056.5C 2891.22,1054.24 2890.22,1052.57 2888.5,1051.5 Z"/></g>
<g><path style="opacity:0.067" fill="#d86d1a" d="M 3324.5,1037.5 C 3325.83,1038.17 3325.83,1038.17 3324.5,1037.5 Z"/></g>
<g><path style="opacity:0.996" fill="#da6e1c" d="M 2769.5,1043.5 C 2768.83,1043.83 2768.17,1044.17 2767.5,1044.5C 2764.93,1045.48 2764.93,1046.65 2767.5,1048C 2767.27,1048.4 2766.94,1048.57 2766.5,1048.5C 2765.83,1048.83 2765.17,1049.17 2764.5,1049.5C 2763.04,1048.54 2761.71,1047.38 2760.5,1046C 2759.83,1044.34 2759.83,1042.51 2760.5,1040.5C 2762.5,1039.82 2764.33,1039.82 2766,1040.5C 2767.52,1041.16 2768.69,1042.16 2769.5,1043.5 Z"/></g>
<g><path style="opacity:0.996" fill="#dd701c" d="M 2760.5,1040.5 C 2759.83,1042.51 2759.83,1044.34 2760.5,1046C 2761.71,1047.38 2763.04,1048.54 2764.5,1049.5C 2764.44,1050.04 2764.11,1050.38 2763.5,1050.5C 2761.7,1049.53 2760.03,1048.36 2758.5,1047C 2759.46,1045.85 2759.12,1044.85 2757.5,1044C 2758.16,1042.48 2759.16,1041.31 2760.5,1040.5 Z"/></g>
<g><path style="opacity:0.996" fill="#db6e1c" d="M 2828.5,1049.5 C 2828.12,1051.7 2827.46,1053.7 2826.5,1055.5C 2825.67,1052.99 2825.51,1050.32 2826,1047.5C 2825,1046.17 2824,1046.17 2823,1047.5C 2821.6,1044.71 2821.1,1042.04 2821.5,1039.5C 2822.28,1040.73 2822.78,1042.06 2823,1043.5C 2823.67,1042.83 2824.33,1042.17 2825,1041.5C 2826.26,1044.21 2828.09,1046.38 2830.5,1048C 2829.58,1048.28 2828.92,1048.78 2828.5,1049.5 Z"/></g>
<g><path style="opacity:1" fill="#d46c1a" d="M 2769.5,1043.5 C 2769.29,1045.42 2768.62,1045.76 2767.5,1044.5C 2768.17,1044.17 2768.83,1043.83 2769.5,1043.5 Z"/></g>
<g><path style="opacity:0.996" fill="#dc6f1c" d="M 2769.5,1043.5 C 2771.08,1044 2771.58,1045 2771,1046.5C 2769.69,1047.31 2768.52,1048.31 2767.5,1049.5C 2766.89,1049.38 2766.56,1049.04 2766.5,1048.5C 2766.94,1048.57 2767.27,1048.4 2767.5,1048C 2764.93,1046.65 2764.93,1045.48 2767.5,1044.5C 2768.62,1045.76 2769.29,1045.42 2769.5,1043.5 Z"/></g>
<g><path style="opacity:0.996" fill="#dd701c" d="M 2821.5,1049.5 C 2823.76,1050.24 2823.93,1051.24 2822,1052.5C 2821.52,1051.55 2821.35,1050.55 2821.5,1049.5 Z"/></g>
<g><path style="opacity:0.996" fill="#dd701c" d="M 2887.5,1051.5 C 2887.83,1051.5 2888.17,1051.5 2888.5,1051.5C 2889.03,1052.85 2889.19,1054.18 2889,1055.5C 2887.81,1054.44 2887.31,1053.1 2887.5,1051.5 Z"/></g>
<g><path style="opacity:0.996" fill="#dd701c" d="M 2881.5,1053.5 C 2882.25,1052.43 2883.25,1052.26 2884.5,1053C 2883.65,1054.73 2882.65,1054.9 2881.5,1053.5 Z"/></g>
<g><path style="opacity:0.996" fill="#dc6f1c" d="M 2828.5,1049.5 C 2829.99,1049.9 2831.66,1050.07 2833.5,1050C 2830.74,1052.4 2831.08,1054.4 2834.5,1056C 2834.17,1056.33 2833.83,1056.67 2833.5,1057C 2834.5,1057.33 2835.5,1057.67 2836.5,1058C 2835.55,1058.72 2835.38,1059.55 2836,1060.5C 2838.69,1061.01 2840.19,1062.17 2840.5,1064C 2838.89,1064.66 2837.73,1064.16 2837,1062.5C 2835.22,1065.28 2834.22,1064.94 2834,1061.5C 2833.69,1062.31 2833.19,1062.97 2832.5,1063.5C 2831.57,1062.31 2831.24,1060.98 2831.5,1059.5C 2832.57,1058.75 2832.74,1057.75 2832,1056.5C 2830.85,1057.46 2829.85,1057.12 2829,1055.5C 2828.29,1057.99 2827.46,1057.99 2826.5,1055.5C 2827.46,1053.7 2828.12,1051.7 2828.5,1049.5 Z"/></g>
<g><path style="opacity:0.996" fill="#dd701c" d="M 2831.5,1059.5 C 2830.71,1060.61 2830.21,1061.94 2830,1063.5C 2829.2,1061.74 2829.37,1060.07 2830.5,1058.5C 2831.11,1058.62 2831.44,1058.96 2831.5,1059.5 Z"/></g>
<g><path style="opacity:0.996" fill="#dd701c" d="M 2997.5,1072.5 C 3000,1072.51 3000.17,1073.18 2998,1074.5C 2997.54,1073.91 2997.37,1073.24 2997.5,1072.5 Z"/></g>
<g><path style="opacity:0.067" fill="#d86d1a" d="M 3572.5,1085.5 C 3573.83,1086.17 3573.83,1086.17 3572.5,1085.5 Z"/></g>
<g><path style="opacity:0.067" fill="#d86d1a" d="M 3514.5,1134.5 C 3515.83,1135.17 3515.83,1135.17 3514.5,1134.5 Z"/></g>
<g><path style="opacity:0.11" fill="#d86d1a" d="M 3806.5,1212.5 C 3807.68,1212.28 3808.68,1212.61 3809.5,1213.5C 3807.95,1214.8 3806.95,1214.46 3806.5,1212.5 Z"/></g>
<g><path style="opacity:0.125" fill="#d86d1a" d="M 3818.5,1212.5 C 3819.29,1212.78 3819.96,1213.28 3820.5,1214C 3819.18,1214.53 3818.52,1214.03 3818.5,1212.5 Z"/></g>
<g><path style="opacity:0.128" fill="#d86d1a" d="M 3837.5,1226.5 C 3835.66,1226.36 3835.33,1225.69 3836.5,1224.5C 3837.3,1224.96 3837.63,1225.62 3837.5,1226.5 Z"/></g>
<g><path style="opacity:0.067" fill="#d86d1a" d="M 3850.5,1227.5 C 3851.83,1228.17 3851.83,1228.17 3850.5,1227.5 Z"/></g>
<g><path style="opacity:0.196" fill="#d86d1a" d="M 3878.5,1237.5 C 3880.34,1237.64 3880.67,1238.31 3879.5,1239.5C 3878.7,1239.04 3878.37,1238.38 3878.5,1237.5 Z"/></g>
<g><path style="opacity:0.094" fill="#d86d1a" d="M 3888.5,1241.5 C 3887.23,1240.92 3887.23,1240.26 3888.5,1239.5C 3889.46,1239.97 3889.46,1240.64 3888.5,1241.5 Z"/></g>
<g><path style="opacity:0.128" fill="#d86d1a" d="M 3964.5,1257.5 C 3964.64,1255.66 3965.31,1255.33 3966.5,1256.5C 3966.04,1257.3 3965.38,1257.63 3964.5,1257.5 Z"/></g>
<g><path style="opacity:0.996" fill="#dd701c" d="M 1649.5,1260.5 C 1648.43,1259.75 1648.26,1258.75 1649,1257.5C 1650.73,1258.35 1650.9,1259.35 1649.5,1260.5 Z"/></g>
<g><path style="opacity:0.996" fill="#dd701c" d="M 1649.5,1260.5 C 1651.76,1261.24 1651.93,1262.24 1650,1263.5C 1649.52,1262.55 1649.35,1261.55 1649.5,1260.5 Z"/></g>
<g><path style="opacity:0.108" fill="#d86d1a" d="M 3988.5,1264.5 C 3988.17,1264.5 3987.83,1264.5 3987.5,1264.5C 3987.2,1261.66 3987.87,1261.16 3989.5,1263C 3988.94,1263.38 3988.61,1263.88 3988.5,1264.5 Z"/></g>
<g><path style="opacity:0.996" fill="#dd701c" d="M 1651.5,1263.5 C 1654,1263.51 1654.17,1264.18 1652,1265.5C 1651.54,1264.91 1651.37,1264.24 1651.5,1263.5 Z"/></g>
<g><path style="opacity:0.067" fill="#d86d1a" d="M 4044.5,1272.5 C 4045.83,1273.17 4045.83,1273.17 4044.5,1272.5 Z"/></g>
<g><path style="opacity:0.067" fill="#d86d1a" d="M 4098.5,1284.5 C 4099.83,1285.17 4099.83,1285.17 4098.5,1284.5 Z"/></g>
<g><path style="opacity:0.11" fill="#d86d1a" d="M 4132.5,1285.5 C 4133.68,1285.28 4134.68,1285.61 4135.5,1286.5C 4133.95,1287.8 4132.95,1287.46 4132.5,1285.5 Z"/></g>
<g><path style="opacity:0.067" fill="#d86d1a" d="M 4123.5,1287.5 C 4124.83,1288.17 4124.83,1288.17 4123.5,1287.5 Z"/></g>
<g><path style="opacity:0.067" fill="#d86d1a" d="M 4163.5,1288.5 C 4164.83,1289.17 4164.83,1289.17 4163.5,1288.5 Z"/></g>
<g><path style="opacity:0.11" fill="#d86d1a" d="M 4180.5,1290.5 C 4181.68,1290.28 4182.68,1290.61 4183.5,1291.5C 4181.95,1292.8 4180.95,1292.46 4180.5,1290.5 Z"/></g>
<g><path style="opacity:0.149" fill="#d86d1a" d="M 4208.5,1297.5 C 4209.83,1298.17 4209.83,1298.17 4208.5,1297.5 Z"/></g>
<g><path style="opacity:0.125" fill="#d86d1a" d="M 4261.5,1309.5 C 4262.29,1309.78 4262.96,1310.28 4263.5,1311C 4262.18,1311.53 4261.52,1311.03 4261.5,1309.5 Z"/></g>
<g><path style="opacity:0.108" fill="#d86d1a" d="M 4807.5,1315.5 C 4807.9,1314.47 4808.56,1314.31 4809.5,1315C 4808.91,1315.46 4808.24,1315.63 4807.5,1315.5 Z"/></g>
<g><path style="opacity:0.184" fill="#d86d1a" d="M 4835.5,1316.5 C 4837.46,1316.95 4837.8,1317.95 4836.5,1319.5C 4835.61,1318.68 4835.28,1317.68 4835.5,1316.5 Z"/></g>
<g><path style="opacity:0.182" fill="#d86d1a" d="M 4852.5,1317.5 C 4854.19,1318.18 4855.19,1319.52 4855.5,1321.5C 4855.17,1321.83 4854.83,1322.17 4854.5,1322.5C 4852.13,1321.24 4851.47,1319.57 4852.5,1317.5 Z"/></g>
<g><path style="opacity:0.067" fill="#d86d1a" d="M 4780.5,1318.5 C 4781.83,1319.17 4781.83,1319.17 4780.5,1318.5 Z"/></g>
<g><path style="opacity:0.108" fill="#d86d1a" d="M 4271.5,1319.5 C 4272.53,1319.9 4272.69,1320.56 4272,1321.5C 4271.54,1320.91 4271.37,1320.24 4271.5,1319.5 Z"/></g>
<g><path style="opacity:0.067" fill="#d86d1a" d="M 4739.5,1321.5 C 4742,1321.51 4742.17,1322.18 4740,1323.5C 4739.54,1322.91 4739.37,1322.24 4739.5,1321.5 Z"/></g>
<g><path style="opacity:0.996" fill="#dd701c" d="M 1707.5,1323.5 C 1708.5,1322.29 1709.5,1322.45 1710.5,1324C 1709.42,1324.47 1708.42,1324.3 1707.5,1323.5 Z"/></g>
<g><path style="opacity:0.098" fill="#d86d1a" d="M 4863.5,1322.5 C 4868.69,1322.97 4868.69,1323.97 4863.5,1325.5C 4862.44,1324.58 4862.44,1323.58 4863.5,1322.5 Z"/></g>
<g><path style="opacity:0.131" fill="#d86d1a" d="M 4868.5,1322.5 C 4870.34,1322.64 4870.67,1323.31 4869.5,1324.5C 4868.7,1324.04 4868.37,1323.38 4868.5,1322.5 Z"/></g>
<g><path style="opacity:0.232" fill="#d86d1a" d="M 4884.5,1323.5 C 4887.67,1323.95 4888.01,1324.95 4885.5,1326.5C 4884.61,1325.68 4884.28,1324.68 4884.5,1323.5 Z"/></g>
<g><path style="opacity:0.122" fill="#d86d1a" d="M 4893.5,1323.5 C 4895.46,1323.95 4895.8,1324.95 4894.5,1326.5C 4893.61,1325.68 4893.28,1324.68 4893.5,1323.5 Z"/></g>
<g><path style="opacity:0.067" fill="#d86d1a" d="M 4690.5,1327.5 C 4691.83,1328.17 4691.83,1328.17 4690.5,1327.5 Z"/></g>
<g><path style="opacity:0.128" fill="#d86d1a" d="M 4947.5,1333.5 C 4949.34,1333.64 4949.67,1334.31 4948.5,1335.5C 4947.7,1335.04 4947.37,1334.38 4947.5,1333.5 Z"/></g>
<g><path style="opacity:0.395" fill="#d86c1b" d="M 4955.5,1339.5 C 4954.15,1338.18 4954.32,1337.18 4956,1336.5C 4962.02,1338.24 4961.86,1339.24 4955.5,1339.5 Z"/></g>
<g><path style="opacity:0.067" fill="#d86d1a" d="M 4988.5,1339.5 C 4990.34,1339.64 4990.67,1340.31 4989.5,1341.5C 4988.7,1341.04 4988.37,1340.38 4988.5,1339.5 Z"/></g>
<g><path style="opacity:0.17" fill="#d86d1a" d="M 4991.5,1342.5 C 4992.78,1343.39 4992.78,1344.39 4991.5,1345.5C 4990.44,1344.58 4990.44,1343.58 4991.5,1342.5 Z"/></g>
<g><path style="opacity:0.208" fill="#d86d1a" d="M 5016.5,1347.5 C 5018.33,1348.05 5020,1348.05 5021.5,1347.5C 5022.39,1348.32 5022.72,1349.32 5022.5,1350.5C 5019.78,1350.61 5017.78,1349.61 5016.5,1347.5 Z"/></g>
<g><path style="opacity:0.254" fill="#d86d1a" d="M 5071.5,1348.5 C 5072.57,1347.57 5073.9,1347.23 5075.5,1347.5C 5075.72,1348.68 5075.39,1349.68 5074.5,1350.5C 5073.48,1349.81 5072.48,1349.14 5071.5,1348.5 Z"/></g>
<g><path style="opacity:0.094" fill="#d86d1a" d="M 5078.5,1347.5 C 5081.3,1349.48 5080.97,1350.31 5077.5,1350C 5078.25,1349.33 5078.59,1348.5 5078.5,1347.5 Z"/></g>
<g><path style="opacity:0.371" fill="#d86c1b" d="M 5106.5,1352.5 C 5106.17,1352.5 5105.83,1352.5 5105.5,1352.5C 5105.05,1351.54 5104.38,1350.71 5103.5,1350C 5105.26,1349.2 5106.93,1349.37 5108.5,1350.5C 5107.76,1351.18 5107.09,1351.85 5106.5,1352.5 Z"/></g>
<g><path style="opacity:0.122" fill="#d86d1a" d="M 5120.5,1350.5 C 5121.08,1349.23 5121.74,1349.23 5122.5,1350.5C 5122.03,1351.46 5121.36,1351.46 5120.5,1350.5 Z"/></g>
<g><path style="opacity:0.172" fill="#d86d1a" d="M 5015.5,1353.5 C 5013.77,1353.16 5013.27,1352.16 5014,1350.5C 5015.04,1351.24 5015.54,1352.24 5015.5,1353.5 Z"/></g>
<g><path style="opacity:0.131" fill="#d86d1a" d="M 5063.5,1352.5 C 5061.66,1352.36 5061.33,1351.69 5062.5,1350.5C 5063.3,1350.96 5063.63,1351.62 5063.5,1352.5 Z"/></g>
<g><path style="opacity:0.152" fill="#d86d1a" d="M 5112.5,1350.5 C 5114.34,1350.64 5114.67,1351.31 5113.5,1352.5C 5112.7,1352.04 5112.37,1351.38 5112.5,1350.5 Z"/></g>
<g><path style="opacity:0.187" fill="#d86d1a" d="M 5128.5,1354.5 C 5128.24,1353.02 5128.57,1351.69 5129.5,1350.5C 5129.83,1351.17 5130.17,1351.83 5130.5,1352.5C 5130.25,1353.71 5129.59,1354.38 5128.5,1354.5 Z"/></g>
<g><path style="opacity:0.209" fill="#d86d1a" d="M 5136.5,1350.5 C 5140.31,1351.75 5140.31,1352.75 5136.5,1353.5C 5136.5,1352.5 5136.5,1351.5 5136.5,1350.5 Z"/></g>
<g><path style="opacity:0.204" fill="#d86d1a" d="M 5149.5,1352.5 C 5150.24,1352.37 5150.91,1352.54 5151.5,1353C 5151.74,1354.56 5151.24,1356.06 5150,1357.5C 5149.5,1357 5149,1356.5 5148.5,1356C 5149.34,1354.99 5149.67,1353.82 5149.5,1352.5 Z"/></g>
<g><path style="opacity:0.067" fill="#d86d1a" d="M 5177.5,1354.5 C 5178.83,1355.17 5178.83,1355.17 5177.5,1354.5 Z"/></g>
<g><path style="opacity:0.108" fill="#d86d1a" d="M 5185.5,1354.5 C 5186.92,1354.75 5187.92,1355.58 5188.5,1357C 5186.51,1357.52 5185.51,1356.69 5185.5,1354.5 Z"/></g>
<g><path style="opacity:0.131" fill="#d86d1a" d="M 5201.5,1359.5 C 5199.66,1359.36 5199.33,1358.69 5200.5,1357.5C 5201.3,1357.96 5201.63,1358.62 5201.5,1359.5 Z"/></g>
<g><path style="opacity:0.102" fill="#d86d1a" d="M 5207.5,1361.5 C 5206.6,1358.9 5207.26,1358.4 5209.5,1360C 5208.96,1360.72 5208.29,1361.22 5207.5,1361.5 Z"/></g>
<g><path style="opacity:0.108" fill="#d86d1a" d="M 5210.5,1359.5 C 5212.34,1359.64 5212.67,1360.31 5211.5,1361.5C 5210.7,1361.04 5210.37,1360.38 5210.5,1359.5 Z"/></g>
<g><path style="opacity:0.067" fill="#d86d1a" d="M 5252.5,1359.5 C 5254.98,1359.73 5255.48,1360.4 5254,1361.5C 5252.97,1361.16 5252.47,1360.5 5252.5,1359.5 Z"/></g>
<g><path style="opacity:0.118" fill="#d86d1a" d="M 5253.5,1362.5 C 5254.38,1362.37 5255.04,1362.7 5255.5,1363.5C 5253.19,1364.87 5252.52,1364.54 5253.5,1362.5 Z"/></g>
<g><path style="opacity:0.067" fill="#d86d1a" d="M 5288.5,1362.5 C 5289.83,1363.17 5289.83,1363.17 5288.5,1362.5 Z"/></g>
<g><path style="opacity:0.12" fill="#d86d1a" d="M 5292.5,1369.5 C 5291.15,1368.83 5289.99,1368.83 5289,1369.5C 5286.97,1368.06 5287.3,1367.39 5290,1367.5C 5291.38,1367.68 5292.21,1368.35 5292.5,1369.5 Z"/></g>
<g><path style="opacity:0.122" fill="#d86d1a" d="M 4605.5,1371.5 C 4604.54,1370.64 4604.54,1369.97 4605.5,1369.5C 4606.77,1370.26 4606.77,1370.92 4605.5,1371.5 Z"/></g>
<g><path style="opacity:0.067" fill="#d86d1a" d="M 4381.5,1370.5 C 4383.08,1371 4383.58,1372 4383,1373.5C 4381.96,1372.76 4381.46,1371.76 4381.5,1370.5 Z"/></g>
<g><path style="opacity:0.168" fill="#d86d1a" d="M 4346.5,1371.5 C 4347.5,1371.5 4348.5,1371.5 4349.5,1371.5C 4349.19,1374.96 4348.19,1374.96 4346.5,1371.5 Z"/></g>
<g><path style="opacity:0.197" fill="#d96d1a" d="M 4392.5,1371.5 C 4395.12,1372.47 4395.12,1373.47 4392.5,1374.5C 4391.44,1373.58 4391.44,1372.58 4392.5,1371.5 Z"/></g>
<g><path style="opacity:0.152" fill="#d86d1a" d="M 4375.5,1372.5 C 4377.34,1372.64 4377.67,1373.31 4376.5,1374.5C 4375.7,1374.04 4375.37,1373.38 4375.5,1372.5 Z"/></g>
<g><path style="opacity:0.125" fill="#d86d1a" d="M 4350.5,1373.5 C 4353,1373.51 4353.17,1374.18 4351,1375.5C 4350.54,1374.91 4350.37,1374.24 4350.5,1373.5 Z"/></g>
<g><path style="opacity:0.067" fill="#d86d1a" d="M 5352.5,1373.5 C 5353.83,1374.17 5353.83,1374.17 5352.5,1373.5 Z"/></g>
<g><path style="opacity:0.125" fill="#d86d1a" d="M 4395.5,1374.5 C 4397.33,1375.14 4397.67,1376.14 4396.5,1377.5C 4394.48,1376.87 4394.15,1375.87 4395.5,1374.5 Z"/></g>
<g><path style="opacity:0.108" fill="#d86d1a" d="M 4384.5,1375.5 C 4386.34,1375.64 4386.67,1376.31 4385.5,1377.5C 4384.7,1377.04 4384.37,1376.38 4384.5,1375.5 Z"/></g>
<g><path style="opacity:0.244" fill="#d86d1a" d="M 5374.5,1375.5 C 5376.97,1375.95 5377.14,1376.95 5375,1378.5C 5374.52,1377.55 5374.35,1376.55 5374.5,1375.5 Z"/></g>
<g><path style="opacity:0.149" fill="#d86d1a" d="M 4533.5,1377.5 C 4535.34,1377.64 4535.67,1378.31 4534.5,1379.5C 4533.7,1379.04 4533.37,1378.38 4533.5,1377.5 Z"/></g>
<g><path style="opacity:0.131" fill="#d86d1a" d="M 5384.5,1377.5 C 5386.34,1377.64 5386.67,1378.31 5385.5,1379.5C 5384.7,1379.04 5384.37,1378.38 5384.5,1377.5 Z"/></g>
<g><path style="opacity:0.175" fill="#d86d1a" d="M 5407.5,1380.5 C 5409.34,1380.64 5409.67,1381.31 5408.5,1382.5C 5407.7,1382.04 5407.37,1381.38 5407.5,1380.5 Z"/></g>
<g><path style="opacity:0.131" fill="#d86d1a" d="M 5417.5,1386.5 C 5417.64,1384.66 5418.31,1384.33 5419.5,1385.5C 5419.04,1386.3 5418.38,1386.63 5417.5,1386.5 Z"/></g>
</svg>
